<svg width="470" height="470" viewBox="0 0 470 470" fill="none" xmlns="http://www.w3.org/2000/svg">
<g clip-path="url(#clip0_2692_9631)">
<path d="M148.81 178.865C144.746 179.627 143.518 182.59 143.899 186.739V283.643C143.688 288.046 145.212 290.713 148.81 291.306C156.261 292.237 160.706 296.216 161.341 304.006L161.257 321.194C161.13 325.089 162.611 327.587 166.633 327.756L303.036 327.629C306.634 327.671 308.539 325.893 308.751 322.422L308.709 303.667C309.64 296.259 313.831 292.068 321.324 291.179C325.388 290.967 326.235 288.046 326.277 283.516L326.235 185.977C326.489 181.828 324.796 179.5 321.197 178.949C313.873 178.103 309.259 174.377 308.793 166.334V147.749C308.624 144.912 307.311 143.092 304.517 142.626L167.311 142.584C163.67 142.584 161.595 144.192 161.384 147.749V166.334C160.791 173.7 156.854 178.103 148.81 178.865ZM333.559 151.643V318.485C333.559 329.83 328.521 335.291 318.615 335.037H151.731C141.19 334.995 136.449 329.111 136.406 318.485V151.559C136.406 140.933 141.063 135.133 151.266 135.006L318.911 135.048C329.029 135.133 333.813 140.763 333.559 151.643Z" stroke="black" stroke-miterlimit="10" stroke-linecap="round" stroke-linejoin="round"/>
<path d="M148.763 178.367L148.741 178.369L148.718 178.373C146.569 178.776 145.106 179.78 144.253 181.285C143.417 182.761 143.208 184.649 143.399 186.762V283.631C143.293 285.879 143.624 287.758 144.502 289.168C145.394 290.6 146.811 291.483 148.729 291.799L148.739 291.801L148.748 291.802C152.402 292.258 155.26 293.455 157.281 295.441C159.295 297.419 160.528 300.231 160.841 304.025L160.757 321.178C160.757 321.18 160.757 321.182 160.757 321.185C160.693 323.183 161.036 324.913 161.991 326.174C162.961 327.456 164.496 328.166 166.612 328.255L166.623 328.256L166.634 328.256L303.033 328.129C304.91 328.15 306.425 327.698 307.501 326.712C308.579 325.724 309.139 324.27 309.25 322.452L309.251 322.436L309.251 322.421L309.209 303.698C309.667 300.09 310.911 297.315 312.908 295.333C314.907 293.349 317.709 292.114 321.367 291.677C322.434 291.62 323.324 291.383 324.056 290.963C324.795 290.538 325.346 289.94 325.748 289.207C326.537 287.766 326.756 285.792 326.777 283.521V283.516L326.735 185.992C326.863 183.858 326.497 182.115 325.567 180.822C324.627 179.516 323.167 178.745 321.273 178.455L321.264 178.454L321.255 178.453C317.659 178.037 314.792 176.922 312.77 174.98C310.757 173.047 309.523 170.24 309.293 166.319V147.749V147.734L309.292 147.719C309.204 146.234 308.813 144.959 308.029 143.985C307.239 143.004 306.093 142.382 304.6 142.133L304.559 142.126L304.518 142.126L167.311 142.084H167.311C165.425 142.084 163.862 142.5 162.738 143.451C161.605 144.411 160.996 145.848 160.885 147.719L160.884 147.734V147.749V166.313C160.591 169.908 159.489 172.72 157.533 174.727C155.574 176.736 152.703 177.994 148.763 178.367ZM333.059 151.632L333.059 151.632V151.643V318.485C333.059 324.095 331.812 328.152 329.432 330.775C327.062 333.385 323.488 334.662 318.628 334.538V334.537H318.615H151.733C146.555 334.517 142.89 333.064 140.504 330.397C138.11 327.719 136.927 323.732 136.906 318.484V151.559C136.906 146.308 138.058 142.341 140.387 139.674C142.705 137.019 146.263 135.569 151.269 135.506L318.907 135.548C318.908 135.548 318.908 135.548 318.909 135.548C323.877 135.59 327.443 136.99 329.748 139.627C332.062 142.273 333.185 146.256 333.059 151.632Z" fill="white" stroke="black"/>
<path d="M4.40134 332.37L107.994 335.037V135.006L4.40134 137.673C2.19993 137.673 0.421875 139.493 0.421875 141.695V328.391C0.421875 330.55 2.19993 332.37 4.40134 332.37Z" stroke="black" stroke-miterlimit="10" stroke-linecap="round" stroke-linejoin="round"/>
<path d="M465.601 337.069L362.008 339.736V139.662L465.601 142.329C467.802 142.329 469.58 144.15 469.58 146.351V333.047C469.58 335.248 467.802 337.069 465.601 337.069Z" stroke="black" stroke-miterlimit="10" stroke-linecap="round" stroke-linejoin="round"/>
<path d="M332.368 4.40329L335.035 107.996H134.961L137.628 4.40329C137.628 2.20189 139.448 0.423828 141.65 0.423828H328.346C330.547 0.423828 332.368 2.20189 332.368 4.40329Z" stroke="black" stroke-miterlimit="10" stroke-linecap="round" stroke-linejoin="round"/>
<path d="M331.779 465.597L334.446 362.004H134.414L137.081 465.597C137.081 467.798 138.902 469.576 141.103 469.576H327.799C330 469.576 331.779 467.798 331.779 465.597Z" stroke="black" stroke-miterlimit="10" stroke-linecap="round" stroke-linejoin="round"/>
<path d="M197.4 242.192C196.589 242.192 195.912 242.048 195.368 241.76C194.824 241.472 194.413 241.029 194.136 240.432C193.859 239.824 193.704 239.04 193.672 238.08L196.12 237.712C196.131 238.267 196.179 238.715 196.264 239.056C196.36 239.397 196.488 239.643 196.648 239.792C196.819 239.941 197.021 240.016 197.256 240.016C197.555 240.016 197.747 239.915 197.832 239.712C197.928 239.509 197.976 239.296 197.976 239.072C197.976 238.539 197.848 238.091 197.592 237.728C197.336 237.355 196.989 236.981 196.552 236.608L195.432 235.632C194.941 235.216 194.525 234.747 194.184 234.224C193.853 233.691 193.688 233.035 193.688 232.256C193.688 231.157 194.013 230.32 194.664 229.744C195.315 229.157 196.2 228.864 197.32 228.864C198.013 228.864 198.568 228.981 198.984 229.216C199.411 229.451 199.731 229.76 199.944 230.144C200.168 230.517 200.317 230.917 200.392 231.344C200.477 231.76 200.525 232.16 200.536 232.544L198.072 232.848C198.061 232.464 198.035 232.133 197.992 231.856C197.96 231.568 197.885 231.349 197.768 231.2C197.651 231.04 197.469 230.96 197.224 230.96C196.957 230.96 196.76 231.072 196.632 231.296C196.515 231.52 196.456 231.744 196.456 231.968C196.456 232.448 196.568 232.843 196.792 233.152C197.027 233.451 197.331 233.765 197.704 234.096L198.776 235.04C199.341 235.52 199.816 236.064 200.2 236.672C200.595 237.28 200.792 238.032 200.792 238.928C200.792 239.536 200.653 240.091 200.376 240.592C200.099 241.083 199.704 241.472 199.192 241.76C198.691 242.048 198.093 242.192 197.4 242.192ZM202.179 242V229.04H208.003V230.992H205.043V234.208H207.299V236.192H205.043V240.064H208.035V242H202.179ZM209.335 242V229.04H212.199V240.064H215.175V242H209.335ZM216.429 242V229.04H222.253V230.992H219.293V234.208H221.549V236.192H219.293V240.064H222.285V242H216.429ZM227.297 242.192C226.316 242.192 225.537 242.016 224.961 241.664C224.396 241.301 223.996 240.8 223.761 240.16C223.526 239.509 223.409 238.747 223.409 237.872V233.2C223.409 232.304 223.526 231.536 223.761 230.896C223.996 230.245 224.396 229.744 224.961 229.392C225.537 229.04 226.316 228.864 227.297 228.864C228.257 228.864 229.004 229.024 229.537 229.344C230.081 229.653 230.465 230.091 230.689 230.656C230.913 231.221 231.025 231.872 231.025 232.608V233.728H228.225V232.432C228.225 232.176 228.209 231.931 228.177 231.696C228.156 231.461 228.081 231.269 227.953 231.12C227.825 230.96 227.606 230.88 227.297 230.88C226.998 230.88 226.774 230.96 226.625 231.12C226.486 231.28 226.396 231.483 226.353 231.728C226.321 231.963 226.305 232.213 226.305 232.48V238.576C226.305 238.864 226.326 239.131 226.369 239.376C226.422 239.611 226.518 239.803 226.657 239.952C226.806 240.091 227.02 240.16 227.297 240.16C227.596 240.16 227.809 240.085 227.937 239.936C228.065 239.776 228.145 239.573 228.177 239.328C228.209 239.083 228.225 238.832 228.225 238.576V237.216H231.025V238.336C231.025 239.072 230.913 239.733 230.689 240.32C230.476 240.896 230.097 241.355 229.553 241.696C229.02 242.027 228.268 242.192 227.297 242.192ZM233.769 242V231.168H231.817V229.04H238.585V231.168H236.649V242H233.769ZM247.531 242.192C246.55 242.192 245.771 242.016 245.195 241.664C244.63 241.301 244.23 240.8 243.995 240.16C243.761 239.509 243.643 238.747 243.643 237.872V233.2C243.643 232.304 243.761 231.536 243.995 230.896C244.23 230.245 244.63 229.744 245.195 229.392C245.771 229.04 246.55 228.864 247.531 228.864C248.491 228.864 249.238 229.024 249.771 229.344C250.315 229.653 250.699 230.091 250.923 230.656C251.147 231.221 251.259 231.872 251.259 232.608V233.728H248.459V232.432C248.459 232.176 248.443 231.931 248.411 231.696C248.39 231.461 248.315 231.269 248.187 231.12C248.059 230.96 247.841 230.88 247.531 230.88C247.233 230.88 247.009 230.96 246.859 231.12C246.721 231.28 246.63 231.483 246.587 231.728C246.555 231.963 246.539 232.213 246.539 232.48V238.576C246.539 238.864 246.561 239.131 246.603 239.376C246.657 239.611 246.753 239.803 246.891 239.952C247.041 240.091 247.254 240.16 247.531 240.16C247.83 240.16 248.043 240.085 248.171 239.936C248.299 239.776 248.379 239.573 248.411 239.328C248.443 239.083 248.459 238.832 248.459 238.576V237.216H251.259V238.336C251.259 239.072 251.147 239.733 250.923 240.32C250.71 240.896 250.331 241.355 249.787 241.696C249.254 242.027 248.502 242.192 247.531 242.192ZM252.211 242L254.659 229.04H257.923L260.339 242H257.699L257.267 239.264H255.363L254.915 242H252.211ZM255.619 237.552H256.995L256.307 232.496L255.619 237.552ZM264.963 242.192C264.152 242.192 263.475 242.048 262.931 241.76C262.387 241.472 261.976 241.029 261.699 240.432C261.421 239.824 261.267 239.04 261.235 238.08L263.683 237.712C263.693 238.267 263.741 238.715 263.827 239.056C263.923 239.397 264.051 239.643 264.211 239.792C264.381 239.941 264.584 240.016 264.819 240.016C265.117 240.016 265.309 239.915 265.395 239.712C265.491 239.509 265.539 239.296 265.539 239.072C265.539 238.539 265.411 238.091 265.155 237.728C264.899 237.355 264.552 236.981 264.115 236.608L262.995 235.632C262.504 235.216 262.088 234.747 261.747 234.224C261.416 233.691 261.251 233.035 261.251 232.256C261.251 231.157 261.576 230.32 262.227 229.744C262.877 229.157 263.763 228.864 264.883 228.864C265.576 228.864 266.131 228.981 266.547 229.216C266.973 229.451 267.293 229.76 267.507 230.144C267.731 230.517 267.88 230.917 267.955 231.344C268.04 231.76 268.088 232.16 268.099 232.544L265.635 232.848C265.624 232.464 265.597 232.133 265.555 231.856C265.523 231.568 265.448 231.349 265.331 231.2C265.213 231.04 265.032 230.96 264.786 230.96C264.52 230.96 264.323 231.072 264.195 231.296C264.077 231.52 264.019 231.744 264.019 231.968C264.019 232.448 264.131 232.843 264.355 233.152C264.589 233.451 264.893 233.765 265.266 234.096L266.339 235.04C266.904 235.52 267.379 236.064 267.763 236.672C268.157 237.28 268.355 238.032 268.355 238.928C268.355 239.536 268.216 240.091 267.939 240.592C267.661 241.083 267.267 241.472 266.755 241.76C266.253 242.048 265.656 242.192 264.963 242.192ZM269.741 242V229.04H275.565V230.992H272.605V234.208H274.861V236.192H272.605V240.064H275.597V242H269.741Z" fill="#1A232F"/>
<path d="M221.924 128.126C221.271 128.126 220.725 127.986 220.286 127.706C219.857 127.426 219.53 127.039 219.306 126.544C219.082 126.049 218.951 125.475 218.914 124.822L220.314 124.444C220.342 124.845 220.403 125.233 220.496 125.606C220.599 125.979 220.762 126.287 220.986 126.53C221.21 126.763 221.523 126.88 221.924 126.88C222.335 126.88 222.643 126.768 222.848 126.544C223.063 126.311 223.17 125.979 223.17 125.55C223.17 125.037 223.053 124.626 222.82 124.318C222.587 124.001 222.293 123.683 221.938 123.366L220.034 121.686C219.661 121.359 219.385 121.005 219.208 120.622C219.031 120.23 218.942 119.749 218.942 119.18C218.942 118.349 219.18 117.705 219.656 117.248C220.132 116.791 220.781 116.562 221.602 116.562C222.05 116.562 222.442 116.623 222.778 116.744C223.123 116.856 223.408 117.033 223.632 117.276C223.865 117.519 224.047 117.827 224.178 118.2C224.318 118.564 224.411 118.993 224.458 119.488L223.114 119.852C223.086 119.479 223.03 119.138 222.946 118.83C222.862 118.513 222.713 118.261 222.498 118.074C222.293 117.878 221.994 117.78 221.602 117.78C221.21 117.78 220.902 117.887 220.678 118.102C220.463 118.307 220.356 118.615 220.356 119.026C220.356 119.371 220.412 119.656 220.524 119.88C220.645 120.104 220.837 120.333 221.098 120.566L223.016 122.246C223.445 122.619 223.823 123.067 224.15 123.59C224.477 124.103 224.64 124.715 224.64 125.424C224.64 125.984 224.523 126.469 224.29 126.88C224.057 127.281 223.735 127.589 223.324 127.804C222.923 128.019 222.456 128.126 221.924 128.126ZM225.951 128V116.66H227.505V128H225.951ZM229.34 128V116.66H231.804C232.644 116.66 233.307 116.791 233.792 117.052C234.287 117.304 234.637 117.687 234.842 118.2C235.057 118.713 235.164 119.353 235.164 120.118V124.29C235.164 125.093 235.057 125.769 234.842 126.32C234.637 126.871 234.296 127.291 233.82 127.58C233.353 127.86 232.723 128 231.93 128H229.34ZM230.922 126.866H231.818C232.397 126.866 232.807 126.754 233.05 126.53C233.293 126.306 233.437 125.979 233.484 125.55C233.54 125.121 233.568 124.603 233.568 123.996V120.314C233.568 119.726 233.531 119.25 233.456 118.886C233.381 118.522 233.218 118.256 232.966 118.088C232.714 117.92 232.317 117.836 231.776 117.836H230.922V126.866ZM236.723 128V116.66H241.119V117.836H238.305V121.588H240.587V122.708H238.305V126.866H241.147V128H236.723ZM245.007 128L247.415 116.66H248.941L251.363 128H249.865L249.347 125.144H247.037L246.491 128H245.007ZM247.247 124.01H249.137L248.185 118.9L247.247 124.01Z" fill="#1A232F"/>
<path d="M221.699 355.126C221.045 355.126 220.499 354.986 220.061 354.706C219.631 354.426 219.305 354.039 219.081 353.544C218.857 353.049 218.726 352.475 218.689 351.822L220.089 351.444C220.117 351.845 220.177 352.233 220.271 352.606C220.373 352.979 220.537 353.287 220.761 353.53C220.985 353.763 221.297 353.88 221.699 353.88C222.109 353.88 222.417 353.768 222.623 353.544C222.837 353.311 222.945 352.979 222.945 352.55C222.945 352.037 222.828 351.626 222.595 351.318C222.361 351.001 222.067 350.683 221.713 350.366L219.809 348.686C219.435 348.359 219.16 348.005 218.983 347.622C218.805 347.23 218.717 346.749 218.717 346.18C218.717 345.349 218.955 344.705 219.431 344.248C219.907 343.791 220.555 343.562 221.377 343.562C221.825 343.562 222.217 343.623 222.553 343.744C222.898 343.856 223.183 344.033 223.407 344.276C223.64 344.519 223.822 344.827 223.953 345.2C224.093 345.564 224.186 345.993 224.233 346.488L222.889 346.852C222.861 346.479 222.805 346.138 222.721 345.83C222.637 345.513 222.487 345.261 222.273 345.074C222.067 344.878 221.769 344.78 221.377 344.78C220.985 344.78 220.677 344.887 220.453 345.102C220.238 345.307 220.131 345.615 220.131 346.026C220.131 346.371 220.187 346.656 220.299 346.88C220.42 347.104 220.611 347.333 220.873 347.566L222.791 349.246C223.22 349.619 223.598 350.067 223.925 350.59C224.251 351.103 224.415 351.715 224.415 352.424C224.415 352.984 224.298 353.469 224.065 353.88C223.831 354.281 223.509 354.589 223.099 354.804C222.697 355.019 222.231 355.126 221.699 355.126ZM225.726 355V343.66H227.28V355H225.726ZM229.114 355V343.66H231.578C232.418 343.66 233.081 343.791 233.566 344.052C234.061 344.304 234.411 344.687 234.616 345.2C234.831 345.713 234.938 346.353 234.938 347.118V351.29C234.938 352.093 234.831 352.769 234.616 353.32C234.411 353.871 234.07 354.291 233.594 354.58C233.128 354.86 232.498 355 231.704 355H229.114ZM230.696 353.866H231.592C232.171 353.866 232.582 353.754 232.824 353.53C233.067 353.306 233.212 352.979 233.258 352.55C233.314 352.121 233.342 351.603 233.342 350.996V347.314C233.342 346.726 233.305 346.25 233.23 345.886C233.156 345.522 232.992 345.256 232.74 345.088C232.488 344.92 232.092 344.836 231.55 344.836H230.696V353.866ZM236.497 355V343.66H240.893V344.836H238.079V348.588H240.361V349.708H238.079V353.866H240.921V355H236.497ZM245.398 355V343.66H248.002C248.515 343.66 248.958 343.716 249.332 343.828C249.714 343.94 250.032 344.113 250.284 344.346C250.536 344.579 250.722 344.878 250.844 345.242C250.965 345.597 251.026 346.017 251.026 346.502C251.026 346.969 250.965 347.375 250.844 347.72C250.732 348.056 250.554 348.322 250.312 348.518C250.078 348.714 249.775 348.84 249.402 348.896C249.859 348.999 250.228 349.176 250.508 349.428C250.788 349.671 250.993 349.988 251.124 350.38C251.264 350.763 251.334 351.225 251.334 351.766C251.334 352.251 251.278 352.695 251.166 353.096C251.054 353.497 250.876 353.838 250.634 354.118C250.4 354.398 250.097 354.617 249.724 354.776C249.36 354.925 248.926 355 248.422 355H245.398ZM246.98 353.866H248.044C248.753 353.866 249.224 353.703 249.458 353.376C249.7 353.04 249.822 352.503 249.822 351.766C249.822 351.29 249.756 350.893 249.626 350.576C249.504 350.249 249.304 350.007 249.024 349.848C248.753 349.68 248.384 349.596 247.918 349.596H246.98V353.866ZM246.98 348.392H247.918C248.366 348.392 248.716 348.331 248.968 348.21C249.22 348.079 249.397 347.874 249.5 347.594C249.602 347.314 249.654 346.95 249.654 346.502C249.654 345.979 249.574 345.601 249.416 345.368C249.257 345.135 249.01 344.99 248.674 344.934C248.338 344.869 247.899 344.836 247.358 344.836H246.98V348.392Z" fill="#1A232F"/>
<path d="M128.126 248.233C128.126 248.886 127.986 249.432 127.706 249.871C127.426 250.3 127.039 250.627 126.544 250.851C126.049 251.075 125.475 251.206 124.822 251.243L124.444 249.843C124.845 249.815 125.233 249.754 125.606 249.661C125.979 249.558 126.287 249.395 126.53 249.171C126.763 248.947 126.88 248.634 126.88 248.233C126.88 247.822 126.768 247.514 126.544 247.309C126.311 247.094 125.979 246.987 125.55 246.987C125.037 246.987 124.626 247.104 124.318 247.337C124.001 247.57 123.683 247.864 123.366 248.219L121.686 250.123C121.359 250.496 121.005 250.772 120.622 250.949C120.23 251.126 119.749 251.215 119.18 251.215C118.349 251.215 117.705 250.977 117.248 250.501C116.791 250.025 116.562 249.376 116.562 248.555C116.562 248.107 116.623 247.715 116.744 247.379C116.856 247.034 117.033 246.749 117.276 246.525C117.519 246.292 117.827 246.11 118.2 245.979C118.564 245.839 118.993 245.746 119.488 245.699L119.852 247.043C119.479 247.071 119.138 247.127 118.83 247.211C118.513 247.295 118.261 247.444 118.074 247.659C117.878 247.864 117.78 248.163 117.78 248.555C117.78 248.947 117.887 249.255 118.102 249.479C118.307 249.694 118.615 249.801 119.026 249.801C119.371 249.801 119.656 249.745 119.88 249.633C120.104 249.512 120.333 249.32 120.566 249.059L122.246 247.141C122.619 246.712 123.067 246.334 123.59 246.007C124.103 245.68 124.715 245.517 125.424 245.517C125.984 245.517 126.469 245.634 126.88 245.867C127.281 246.1 127.589 246.422 127.804 246.833C128.019 247.234 128.126 247.701 128.126 248.233ZM128 244.206L116.66 244.206L116.66 242.652L128 242.652L128 244.206ZM128 240.817L116.66 240.817L116.66 238.353C116.66 237.513 116.791 236.851 117.052 236.365C117.304 235.871 117.687 235.521 118.2 235.315C118.713 235.101 119.353 234.993 120.118 234.993L124.29 234.993C125.093 234.993 125.769 235.101 126.32 235.315C126.871 235.521 127.291 235.861 127.58 236.337C127.86 236.804 128 237.434 128 238.227L128 240.817ZM126.866 239.235L126.866 238.339C126.866 237.761 126.754 237.35 126.53 237.107C126.306 236.865 125.979 236.72 125.55 236.673C125.121 236.617 124.603 236.589 123.996 236.589L120.314 236.589C119.726 236.589 119.25 236.627 118.886 236.701C118.522 236.776 118.256 236.939 118.088 237.191C117.92 237.443 117.836 237.84 117.836 238.381L117.836 239.235L126.866 239.235ZM128 233.434L116.66 233.434L116.66 229.038L117.836 229.038L117.836 231.852L121.588 231.852L121.588 229.57L122.708 229.57L122.708 231.852L126.866 231.852L126.866 229.01L128 229.01L128 233.434ZM128.126 221.692C128.126 222.495 127.958 223.12 127.622 223.568C127.286 224.007 126.833 224.315 126.264 224.492C125.695 224.66 125.06 224.744 124.36 224.744L120.356 224.744C119.591 224.744 118.923 224.66 118.354 224.492C117.785 224.315 117.346 224.007 117.038 223.568C116.721 223.12 116.562 222.495 116.562 221.692C116.562 220.983 116.693 220.423 116.954 220.012C117.215 219.592 117.589 219.293 118.074 219.116C118.559 218.929 119.143 218.836 119.824 218.836L120.72 218.836L120.72 220.334L119.922 220.334C119.502 220.334 119.133 220.357 118.816 220.404C118.489 220.441 118.237 220.553 118.06 220.74C117.883 220.927 117.794 221.239 117.794 221.678C117.794 222.126 117.892 222.453 118.088 222.658C118.275 222.863 118.545 222.999 118.9 223.064C119.245 223.12 119.651 223.148 120.118 223.148L124.612 223.148C125.181 223.148 125.634 223.101 125.97 223.008C126.297 222.915 126.53 222.761 126.67 222.546C126.81 222.331 126.88 222.042 126.88 221.678C126.88 221.249 126.787 220.941 126.6 220.754C126.404 220.567 126.138 220.451 125.802 220.404C125.466 220.357 125.074 220.334 124.626 220.334L123.786 220.334L123.786 218.836L124.626 218.836C125.317 218.836 125.928 218.92 126.46 219.088C126.983 219.256 127.393 219.545 127.692 219.956C127.981 220.367 128.126 220.945 128.126 221.692Z" fill="#1A232F"/>
<path d="M354.126 248.322C354.126 248.975 353.986 249.521 353.706 249.96C353.426 250.389 353.039 250.716 352.544 250.94C352.049 251.164 351.475 251.295 350.822 251.332L350.444 249.932C350.845 249.904 351.233 249.843 351.606 249.75C351.979 249.647 352.287 249.484 352.53 249.26C352.763 249.036 352.88 248.723 352.88 248.322C352.88 247.911 352.768 247.603 352.544 247.398C352.311 247.183 351.979 247.076 351.55 247.076C351.037 247.076 350.626 247.193 350.318 247.426C350.001 247.659 349.683 247.953 349.366 248.308L347.686 250.212C347.359 250.585 347.005 250.861 346.622 251.038C346.23 251.215 345.749 251.304 345.18 251.304C344.349 251.304 343.705 251.066 343.248 250.59C342.791 250.114 342.562 249.465 342.562 248.644C342.562 248.196 342.623 247.804 342.744 247.468C342.856 247.123 343.033 246.838 343.276 246.614C343.519 246.381 343.827 246.199 344.2 246.068C344.564 245.928 344.993 245.835 345.488 245.788L345.852 247.132C345.479 247.16 345.138 247.216 344.83 247.3C344.513 247.384 344.261 247.533 344.074 247.748C343.878 247.953 343.78 248.252 343.78 248.644C343.78 249.036 343.887 249.344 344.102 249.568C344.307 249.783 344.615 249.89 345.026 249.89C345.371 249.89 345.656 249.834 345.88 249.722C346.104 249.601 346.333 249.409 346.566 249.148L348.246 247.23C348.619 246.801 349.067 246.423 349.59 246.096C350.103 245.769 350.715 245.606 351.424 245.606C351.984 245.606 352.469 245.723 352.88 245.956C353.281 246.189 353.589 246.511 353.804 246.922C354.019 247.323 354.126 247.79 354.126 248.322ZM354 244.295L342.66 244.295L342.66 242.741L354 242.741L354 244.295ZM354 240.906L342.66 240.906L342.66 238.442C342.66 237.602 342.791 236.939 343.052 236.454C343.304 235.959 343.687 235.609 344.2 235.404C344.713 235.189 345.353 235.082 346.118 235.082L350.29 235.082C351.093 235.082 351.769 235.189 352.32 235.404C352.871 235.609 353.291 235.95 353.58 236.426C353.86 236.893 354 237.523 354 238.316L354 240.906ZM352.866 239.324L352.866 238.428C352.866 237.849 352.754 237.439 352.53 237.196C352.306 236.953 351.979 236.809 351.55 236.762C351.121 236.706 350.603 236.678 349.996 236.678L346.314 236.678C345.726 236.678 345.25 236.715 344.886 236.79C344.522 236.865 344.256 237.028 344.088 237.28C343.92 237.532 343.836 237.929 343.836 238.47L343.836 239.324L352.866 239.324ZM354 233.523L342.66 233.523L342.66 229.127L343.836 229.127L343.836 231.941L347.588 231.941L347.588 229.659L348.708 229.659L348.708 231.941L352.866 231.941L352.866 229.099L354 229.099L354 233.523ZM354 224.623L342.66 224.623L342.66 222.159C342.66 221.319 342.791 220.656 343.052 220.171C343.304 219.676 343.687 219.326 344.2 219.121C344.713 218.906 345.353 218.799 346.118 218.799L350.29 218.799C351.093 218.799 351.769 218.906 352.32 219.121C352.871 219.326 353.291 219.667 353.58 220.143C353.86 220.61 354 221.24 354 222.033L354 224.623ZM352.866 223.041L352.866 222.145C352.866 221.566 352.754 221.156 352.53 220.913C352.306 220.67 351.979 220.526 351.55 220.479C351.121 220.423 350.603 220.395 349.996 220.395L346.314 220.395C345.726 220.395 345.25 220.432 344.886 220.507C344.522 220.582 344.256 220.745 344.088 220.997C343.92 221.249 343.836 221.646 343.836 222.187L343.836 223.041L352.866 223.041Z" fill="#1A232F"/>
</g>
<defs>
<clipPath id="clip0_2692_9631">
<rect width="470" height="470" fill="white"/>
</clipPath>
</defs>
</svg>
