<svg width="108" height="93" fill="none" xmlns="http://www.w3.org/2000/svg"><g clip-path="url(#clip0_2873_12042)"><path d="M5.895 78.233c4.915.144 9.83.43 14.745.37 8.872-.124 17.58-1.416 26.064-4.103 19.742-6.256 34.63-18.666 45.276-36.348 6.587-10.933 10.829-22.768 12.828-35.424.081-.533.163-1.087.224-1.62.082-.739.53-1.15 1.224-1.108.754.04 1.183.554 1.081 1.333-.265 1.928-.51 3.856-.898 5.764-3.1 15.24-9.177 29.168-18.701 41.455C75.236 64.675 58.94 74.746 39.056 78.93 28.9 81.064 18.662 81.433 8.342 80.593c-.938-.082-1.896-.144-3.1-.246.408.37.673.615.939.84 3.548 2.934 7.097 5.847 10.645 8.76.123.102.265.225.388.328.652.513.897 1.169.347 1.846-.572.677-1.244.492-1.877-.041-4.996-4.123-9.993-8.225-14.97-12.348-.958-.8-.856-1.724.246-2.257 5.832-2.83 11.686-5.64 17.518-8.471.734-.349 1.407-.37 1.815.472.408.84-.081 1.353-.795 1.702-4.222 2.03-8.443 4.082-12.665 6.113a22.3 22.3 0 00-.958.512c-.041.164 0 .308.02.431z" fill="#fff"/></g><defs><clipPath id="clip0_2873_12042"><path fill="#fff" transform="rotate(90 53.668 53.668)" d="M0 0h92.592v107.336H0z"/></clipPath></defs></svg>