<svg width="20" height="20" fill="none" xmlns="http://www.w3.org/2000/svg"><g clip-path="url(#clip0_2873_12061)"><path d="M9.992 19.702c-2.328 0-4.657.003-6.985 0-1.356 0-2.462-.797-2.862-2.05a2.802 2.802 0 01.215-2.265c2.341-4.32 4.688-8.635 7.035-12.953.912-1.682 3.022-2.12 4.481-.925.303.246.538.55.725.89l4.284 7.888c.916 1.684 1.822 3.368 2.744 5.046a2.92 2.92 0 01-2.078 4.316c-.21.034-.425.05-.637.05-2.31.003-4.616.003-6.922.003zm1.184-10.55c0-.787.006-1.572-.003-2.36a1.164 1.164 0 00-1.422-1.14 1.166 1.166 0 00-.919 1.15c-.006.838-.003 1.678-.003 2.516 0 .725-.003 1.447.003 2.172.003.531.347.981.838 1.118a1.165 1.165 0 001.503-1.115c.012-.778.003-1.56.003-2.34zm-1.187 8.2a1.759 1.759 0 00.044-3.516 1.763 1.763 0 00-1.782 1.707 1.754 1.754 0 001.738 1.81z" fill="#F46717"/></g><defs><clipPath id="clip0_2873_12061"><path fill="#fff" d="M0 0h20v20H0z"/></clipPath></defs></svg>