<svg width="40" height="47" fill="none" xmlns="http://www.w3.org/2000/svg"><g clip-path="url(#clip0_2947_11043)"><path fill-rule="evenodd" clip-rule="evenodd" d="M32.293 7.123v4.54h5.045v1.85h-.504v3.026h2.859v4.037l-.505 1.009h-1.85v12.78h-1.005l-.004 5.046-.505 1.009v2.018h4.037v3.868H.17v-3.868h3.87V40.42l-.505-1.01v-5.044H2.526V21.5H.616l-.444-.848V16.54H3.03v-3.025h-.505v-1.85h4.851v-4.54H2.19v-3.03h5.187V1.237L8.05.228h23.57l.673 1.01v2.858h5.213v3.027h-5.213z" fill="#fff" fill-opacity=".358"/><mask id="mask0_2947_11043" style="mask-type:luminance" maskUnits="userSpaceOnUse" x="0" y="0" width="40" height="47"><path fill-rule="evenodd" clip-rule="evenodd" d="M32.293 7.123v4.541h5.045v1.85l-.504-.002v3.027h2.859v4.037l-.505 1.009h-1.85v12.78h-1.005l-.004 5.046-.504 1.009v2.018h4.036v3.868H.17v-3.868h3.87V40.42l-.505-1.01v-5.044H2.526V21.5H.616l-.444-.848V16.54H3.03v-3.025h-.505v-1.85h4.852v-4.54H2.19v-3.03h5.188V1.237L8.05.228h23.57l.673 1.01v2.858h5.213v3.027h-5.213z" fill="#fff"/></mask><g mask="url(#mask0_2947_11043)" clip-rule="evenodd" stroke="#000" stroke-miterlimit="10" stroke-linejoin="round"><path fill-rule="evenodd" d="M8.172 11.664h23.423V.228H8.172v11.436z" fill="#fff"/><path d="M7.375 11.664h24.93V1.237H7.376v10.427z"/><path fill-rule="evenodd" d="M.172 20.573v-4.04h39.482l.023 4.04-.423.92H.613l-.441-.92z" fill="#fff"/><path fill-rule="evenodd" d="M28.435 16.532v4.04c-5.659 1.165-11.348 1.156-17.068 0v-4.04h17.068zM.172 20.573v-4.04h8.55v4.04c-1.956.619-6.103.873-8.07.92l-.48-.92zm30.906-4.041v4.04c1.957.62 6.198.874 8.165.92l.438-.92v-4.04h-8.603z" fill="#fff"/><path fill-rule="evenodd" d="M28.43 20.573h2.641v-4.04H28.43v4.04zm-19.711 0h2.641v-4.04H8.72v4.04zM.172 46.306h5.917v-3.868H.172v3.868zm2.351-32.792H37.31v-1.85H2.523v1.85zM34.46 46.306h5.396v-3.868H34.46v3.868z" fill="#fff"/><path d="M34.994 42.438l.026 3.868H5.525L5.5 42.438h29.494z"/><path fill-rule="evenodd" d="M3.523 39.374h32.824v-5.008H3.523v5.008z" fill="#fff"/><path d="M4.04 42.438h31.784v-8.073H4.039v8.072z"/><path d="M36.347 34.366v5.008l-.523 1.033-31.784.04-.517-1.073.014-5.008h32.81z"/><path fill-rule="evenodd" d="M30.203 7.123h7.302V4.096h-7.302v3.027zm-27.984 0h7.2V4.096h-7.2v3.027z" fill="#fff"/><path d="M8.148 7.123h23.424V4.096H8.148v3.027z"/></g><path d="M32.293 7.123v4.54h5.045v1.85h-.504v3.026h2.859v4.037l-.505 1.009h-1.85v12.78h-1.005l-.004 5.046-.505 1.009v2.018h4.037v3.868H.17v-3.868h3.87V40.42l-.505-1.01v-5.044H2.526V21.5H.616l-.444-.848V16.54H3.03v-3.025h-.505v-1.85h4.851v-4.54H2.19v-3.03h5.187V1.237L8.05.228h23.57l.673 1.01v2.858h5.213v3.027h-5.213z" stroke="#000" stroke-miterlimit="10" stroke-linejoin="round"/></g><defs><clipPath id="clip0_2947_11043"><path fill="#fff" d="M0 0h40v46.579H0z"/></clipPath></defs></svg>