<svg width="116" height="149" fill="none" xmlns="http://www.w3.org/2000/svg"><g clip-path="url(#clip0_2864_11786)"><path fill-rule="evenodd" clip-rule="evenodd" d="M96.086 27.126V44.38h17.255v7.029h-5.752v7.67h7.029v19.457l-2.569 2.27h.013v30.035h-8.947v20.451l-2.556 1.916v7.669h14.059v7.029H.868v-7.029h14.058v-7.669l-2.556-1.916v-20.451H3.423V80.807h.015l-2.57-2.27V59.079h6.39v-7.67H3.423v-7.028h17.255V27.126H7.258V15.623h13.42V4.76L23.234.925H92.89l3.195 3.834v10.864h13.42v11.503h-13.42z" fill="#fff" fill-opacity=".358"/><mask id="mask0_2864_11786" style="mask-type:luminance" maskUnits="userSpaceOnUse" x="0" y="0" width="115" height="148"><path fill-rule="evenodd" clip-rule="evenodd" d="M96.086 27.126V44.38h17.255v7.029h-5.752v7.67h7.029v19.457l-2.569 2.27h.013v30.035h-8.947v20.451l-2.556 1.916v7.669h14.059v7.029H.868v-7.029h14.058v-7.669l-2.556-1.916v-20.451H3.423V80.807h.015l-2.57-2.27V59.079h6.39v-7.67H3.423v-7.028h17.255V27.126H7.258V15.623h13.42V4.76L23.234.925H92.89l3.195 3.834v10.864h13.42v11.503h-13.42z" fill="#fff"/></mask><g mask="url(#mask0_2864_11786)" clip-rule="evenodd" stroke="#000" stroke-miterlimit="10" stroke-linejoin="round"><path fill-rule="evenodd" d="M23.234 44.38h69.658V.926H23.234V44.38z" fill="#fff"/><path d="M20.68 44.38h75.408V4.76H20.68v39.62z"/><path fill-rule="evenodd" d="M.867 78.537V59.08h113.751v19.457l-2.569 2.27H3.438l-2.57-2.27z" fill="#fff"/><path fill-rule="evenodd" d="M82.062 59.079v17.893c-16.113 5.091-32.314 5.054-48.601 0V59.08h48.601zM.867 78.537V59.08H25.79v17.893c-7.436 2.35-14.879 3.659-22.352 3.835l-2.57-2.271zM89.695 59.08v17.893c7.436 2.35 14.88 3.659 22.354 3.835l2.569-2.271V59.08H89.695zM25.79 76.973h7.667V59.079H25.79v17.894z" fill="#fff"/><path fill-rule="evenodd" d="M82.063 76.973h7.668V59.079h-7.668v17.894zM.867 147.907h21.836v-7.029H.867v7.029zM3.422 51.41h109.917v-7.03H3.422v7.03zm89.234 96.497h21.966v-7.029H92.656v7.029z" fill="#fff"/><path d="M20.14 147.907h75.315v-7.029H20.141v7.029z"/><path fill-rule="evenodd" d="M12.367 131.293h90.746v-20.449H12.367v20.449z" fill="#fff"/><path d="M14.93 140.878h85.633v-30.036H14.93v30.036z"/><path d="M103.113 110.842v20.451l-2.556 1.916H14.923l-2.556-1.916v-20.451h90.746z"/><path fill-rule="evenodd" d="M86.25 27.126h23.255V15.623H86.25v11.503zm-78.992 0h22.99V15.623H7.257v11.503z" fill="#fff"/><path d="M26.344 27.126h64.008V15.623H26.344v11.503z"/></g><path d="M96.086 27.126V44.38h17.255v7.029h-5.752v7.67h7.029v19.457l-2.569 2.27h.013v30.035h-8.947v20.451l-2.556 1.916v7.669h14.059v7.029H.868v-7.029h14.058v-7.669l-2.556-1.916v-20.451H3.423V80.807h.015l-2.57-2.27V59.079h6.39v-7.67H3.423v-7.028h17.255V27.126H7.258V15.623h13.42V4.76L23.234.925H92.89l3.195 3.834v10.864h13.42v11.503h-13.42z" stroke="#000" stroke-miterlimit="10" stroke-linejoin="round"/></g><defs><clipPath id="clip0_2864_11786"><path fill="#fff" d="M0 0h116v149H0z"/></clipPath></defs></svg>