<svg width="47" height="40" fill="none" xmlns="http://www.w3.org/2000/svg"><g clip-path="url(#clip0_2947_11080)"><path fill-rule="evenodd" clip-rule="evenodd" d="M7.122 7.71h4.541V2.665h1.85l-.002.504h3.027V.31h4.037l1.009.505v1.85h12.78V3.67l5.046.004 1.009.504h2.018V.142h3.868v39.69h-3.868v-3.869h-2.018l-1.01.505h-5.044v1.009H21.499v1.91l-.848.444h-4.113v-2.859h-3.025v.505h-1.85v-4.852h-4.54v5.188H4.094v-5.188H1.236l-1.009-.672V8.383l1.01-.673h2.858V2.497h3.027V7.71z" fill="#fff" fill-opacity=".358"/><mask id="mask0_2947_11080" style="mask-type:luminance" maskUnits="userSpaceOnUse" x="0" y="0" width="47" height="40"><path fill-rule="evenodd" clip-rule="evenodd" d="M7.122 7.71h4.541V2.665h1.85l-.002.504h3.027V.31h4.037l1.009.505v1.85h12.78V3.67l5.046.004 1.009.504h2.018V.142h3.868v39.69h-3.868v-3.869h-2.018l-1.01.505h-5.044v1.009H21.499v1.91l-.848.444h-4.113v-2.859h-3.025v.505h-1.85v-4.852h-4.54v5.188H4.094v-5.188H1.236l-1.009-.672V8.383l1.01-.673h2.858V2.497h3.027V7.71z" fill="#fff"/></mask><g mask="url(#mask0_2947_11080)" clip-rule="evenodd" stroke="#000" stroke-miterlimit="10" stroke-linejoin="round"><path fill-rule="evenodd" d="M11.664 31.834V8.411H.228v23.423h11.436z" fill="#fff"/><path d="M11.664 32.625V7.695H1.237v24.93h10.427z"/><path fill-rule="evenodd" d="M20.573 39.831h-4.04V.35l4.04-.023.92.423v38.64l-.92.441z" fill="#fff"/><path fill-rule="evenodd" d="M16.527 11.57h4.04c1.165 5.66 1.156 11.349 0 17.069h-4.04V11.57zm4.046 28.261h-4.04v-8.55h4.04c.619 1.956.873 6.103.92 8.07l-.92.48zM16.532 8.929h4.04c.62-1.957.874-6.198.92-8.165l-.92-.438h-4.04v8.603z" fill="#fff"/><path fill-rule="evenodd" d="M20.57 11.57V8.93h-4.04v2.641h4.04zm0 19.71v-2.64h-4.04v2.641h4.04zm25.735 8.551v-5.917h-3.868v5.917h3.868zm-32.789-2.354V2.69h-1.85v34.787h1.85zM46.305 5.538V.143h-3.868v5.395h3.868z" fill="#fff"/><path d="M42.437 5.01l3.868-.026v29.495l-3.868.025V5.009z"/><path fill-rule="evenodd" d="M39.375 36.48V3.656h-5.008V36.48h5.008z" fill="#fff"/><path d="M42.438 35.964V4.179h-8.073v31.785h8.072z"/><path d="M34.365 3.656h5.008l1.033.523.04 31.784-1.073.517-5.008-.014V3.656z"/><path fill-rule="evenodd" d="M7.125 9.796V2.494H4.098v7.302h3.027zm0 27.985v-7.2H4.098v7.2h3.027z" fill="#fff"/><path d="M7.125 31.856V8.433H4.098v23.423h3.027z"/></g><path d="M7.122 7.71h4.541V2.665h1.85l-.002.504h3.027V.31h4.037l1.009.505v1.85h12.78V3.67l5.046.004 1.009.504h2.018V.142h3.868v39.69h-3.868v-3.869h-2.018l-1.01.505h-5.044v1.009H21.499v1.91l-.848.444h-4.113v-2.859h-3.025v.505h-1.85v-4.852h-4.54v5.188H4.094v-5.188H1.236l-1.009-.672V8.383l1.01-.673h2.858V2.497h3.027V7.71z" stroke="#000" stroke-miterlimit="10" stroke-linejoin="round"/></g><defs><clipPath id="clip0_2947_11080"><path fill="#fff" transform="rotate(-90 20 20)" d="M0 0h40v46.579H0z"/></clipPath></defs></svg>