<svg width="178" height="153" fill="none" xmlns="http://www.w3.org/2000/svg"><g clip-path="url(#clip0_2864_11785)"><path fill-rule="evenodd" clip-rule="evenodd" d="M27.575 29.8H44.83V10.628h7.03l-.006 1.916h11.503V1.68h15.337l3.835 1.917v7.03h48.568v3.818l19.17.016 3.835 1.917h7.669V1.042h14.698v150.817h-14.698v-14.698h-7.669l-3.835 1.917h-19.17v3.835H82.209v7.261l-3.223 1.685h-15.63v-10.864H51.86v1.918h-7.03v-18.435H27.575v19.712H16.073v-19.712H5.209l-3.835-2.556V32.355L5.21 29.8h10.864V9.99h11.502V29.8z" fill="#fff" fill-opacity=".358"/><mask id="mask0_2864_11785" style="mask-type:luminance" maskUnits="userSpaceOnUse" x="1" y="1" width="176" height="151"><path fill-rule="evenodd" clip-rule="evenodd" d="M27.575 29.8H44.83V10.628h7.03l-.006 1.916h11.503V1.68h15.337l3.835 1.917v7.03h48.568v3.818l19.17.016 3.835 1.917h7.669V1.042h14.698v150.817h-14.698v-14.698h-7.669l-3.835 1.917h-19.17v3.835H82.209v7.261l-3.223 1.685h-15.63v-10.864H51.86v1.918h-7.03v-18.435H27.575v19.712H16.073v-19.712H5.209l-3.835-2.556V32.355L5.21 29.8h10.864V9.99h11.502V29.8z" fill="#fff"/></mask><g mask="url(#mask0_2864_11785)" clip-rule="evenodd" stroke="#000" stroke-miterlimit="10" stroke-linejoin="round"><path fill-rule="evenodd" d="M44.828 121.469V32.461H1.372v89.008h43.456z" fill="#fff"/><path d="M44.828 124.477V29.741H5.207v94.736h39.621z"/><path fill-rule="evenodd" d="M78.686 151.859H63.332V1.827l15.354-.088 3.494 1.608v146.836l-3.494 1.676z" fill="#fff"/><path fill-rule="evenodd" d="M63.325 44.47H78.68c4.422 21.504 4.39 43.124 0 64.858H63.325V44.469zm15.361 107.389H63.332v-32.493h15.354c2.351 7.436 3.318 23.196 3.494 30.669l-3.494 1.824zM63.332 34.43h15.354c2.351-7.438 3.318-23.552 3.494-31.026l-3.494-1.666H63.332V34.43z" fill="#fff"/><path fill-rule="evenodd" d="M78.688 44.469V34.43H63.332v10.04h15.355zm0 74.898V109.33H63.332v10.037h15.355zm97.781 32.492v-22.484H161.77v22.484h14.699zM51.86 142.914V10.724h-7.03v132.19h7.03zM176.469 21.547v-20.5H161.77v20.5h14.699z" fill="#fff"/><path d="M161.771 19.538l14.698-.097v112.08l-14.698.096V19.539z"/><path fill-rule="evenodd" d="M150.125 139.125V14.395h-19.031v124.73h19.031z" fill="#fff"/><path d="M161.773 137.164V16.383h-30.674v120.781h30.674z"/><path d="M131.098 14.396h19.03l3.927 1.986.148 120.782-4.075 1.961-19.03-.051V14.396z"/><path fill-rule="evenodd" d="M27.578 37.727V9.98H16.075v27.747h11.503zm0 106.343v-27.36H16.075v27.36h11.503z" fill="#fff"/><path d="M27.578 121.555V32.547H16.075v89.008h11.503z"/></g><path d="M27.575 29.8H44.83V10.628h7.03l-.006 1.916h11.503V1.68h15.337l3.835 1.917v7.03h48.568v3.818l19.17.016 3.835 1.917h7.669V1.042h14.698v150.817h-14.698v-14.698h-7.669l-3.835 1.917h-19.17v3.835H82.209v7.261l-3.223 1.685h-15.63v-10.864H51.86v1.918h-7.03v-18.435H27.575v19.712H16.073v-19.712H5.209l-3.835-2.556V32.355L5.21 29.8h10.864V9.99h11.502V29.8z" stroke="#000" stroke-miterlimit="10" stroke-linejoin="round"/></g><defs><clipPath id="clip0_2864_11785"><path fill="#fff" transform="rotate(-90 76.504 75.996)" d="M0 0h152v177H0z"/></clipPath></defs></svg>