<svg width="152" height="177" fill="none" xmlns="http://www.w3.org/2000/svg"><g clip-path="url(#clip0_2864_11785)"><path fill-rule="evenodd" clip-rule="evenodd" d="M122.701 27.07v17.254h19.17v7.03l-1.916-.006v11.503h10.864v15.337l-1.917 3.835h-7.031v48.568h-3.817l-.016 19.171-1.917 3.834v7.67h15.337v14.697H.641v-14.697h14.698v-7.67l-1.917-3.834v-19.171H9.587V81.703H2.326L.641 78.48V62.85h10.864V51.355H9.587v-7.03h18.435V27.07H8.31V15.567h19.712V4.703L30.578.868h89.567l2.556 3.835v10.864h19.81V27.07h-19.81z" fill="#fff" fill-opacity=".358"/><mask id="mask0_2864_11785" style="mask-type:luminance" maskUnits="userSpaceOnUse" x="0" y="0" width="152" height="176"><path fill-rule="evenodd" clip-rule="evenodd" d="M122.701 27.07v17.254h19.17v7.03l-1.916-.006v11.503h10.864v15.337l-1.917 3.835h-7.031v48.568h-3.817l-.016 19.171-1.917 3.834v7.67h15.337v14.697H.641v-14.697h14.698v-7.67l-1.917-3.834v-19.171H9.587V81.703H2.326L.641 78.48V62.85h10.864V51.355H9.587v-7.03h18.435V27.07H8.31V15.567h19.712V4.703L30.578.868h89.567l2.556 3.835v10.864h19.81V27.07h-19.81z" fill="#fff"/></mask><g mask="url(#mask0_2864_11785)" clip-rule="evenodd" stroke="#000" stroke-miterlimit="10" stroke-linejoin="round"><path fill-rule="evenodd" d="M31.031 44.324h89.008V.868H31.031v43.456z" fill="#fff"/><path d="M28.023 44.324h94.736V4.703H28.023v39.621z"/><path fill-rule="evenodd" d="M.64 78.178V62.823h150.033l.088 15.355-1.608 3.493H2.317L.64 78.178z" fill="#fff"/><path fill-rule="evenodd" d="M108.031 62.823v15.355c-21.505 4.423-43.125 4.39-64.86 0V62.823h64.86zM.64 78.178V62.823h32.494v15.355c-7.436 2.35-23.196 3.317-30.67 3.493L.642 78.178zm117.43-15.355v15.355c7.438 2.35 23.552 3.317 31.026 3.493l1.666-3.493V62.823H118.07zm-10.039 15.355h10.038V62.823h-10.038v15.355z" fill="#fff"/><path fill-rule="evenodd" d="M33.133 78.178H43.17V62.823H33.133v15.355zM.64 175.963h22.485v-14.699H.64v14.699zm8.946-124.61h132.189v-7.029H9.585v7.03zm121.367 124.61h20.5v-14.699h-20.5v14.699z" fill="#fff"/><path d="M132.961 161.266l.098 14.697H20.979l-.096-14.697H132.96z"/><path fill-rule="evenodd" d="M13.375 149.621h124.729V130.59H13.375v19.031z" fill="#fff"/><path d="M15.336 161.266h120.781v-30.675H15.336v30.675z"/><path d="M138.104 130.591v19.031l-1.986 3.926-120.782.148-1.961-4.074.05-19.031h124.679z"/><path fill-rule="evenodd" d="M114.773 27.07h27.747V15.566h-27.747v11.502zm-106.343 0h27.36V15.566H8.43v11.502z" fill="#fff"/><path d="M30.945 27.07h89.008V15.566H30.945v11.502z"/></g><path d="M122.701 27.07v17.254h19.17v7.03l-1.916-.006v11.503h10.864v15.337l-1.917 3.835h-7.031v48.568h-3.817l-.016 19.171-1.917 3.834v7.67h15.337v14.697H.641v-14.697h14.698v-7.67l-1.917-3.834v-19.171H9.587V81.703H2.326L.641 78.48V62.85h10.864V51.355H9.587v-7.03h18.435V27.07H8.31V15.567h19.712V4.703L30.578.868h89.567l2.556 3.835v10.864h19.81V27.07h-19.81z" stroke="#000" stroke-miterlimit="10" stroke-linejoin="round"/></g><defs><clipPath id="clip0_2864_11785"><path fill="#fff" d="M0 0h152v177H0z"/></clipPath></defs></svg>