<svg width="20" height="20" fill="none" xmlns="http://www.w3.org/2000/svg"><g clip-path="url(#clip0_2873_12049)"><path d="M0 10.01C.011 4.465 4.47-.005 9.983 0a9.985 9.985 0 0110.01 10.017c-.004 5.546-4.53 10.017-10.085 9.983-5.449-.038-9.92-4.523-9.908-9.99zm9-2.037v.281c0 .911-.007 1.823.004 2.738.011.784.803 1.252 1.474.881.353-.195.514-.51.514-.915V5.037c0-.045-.004-.087-.008-.132a.995.995 0 00-.96-.904c-.577-.015-1.02.424-1.023 1.032-.004.979 0 1.957 0 2.94zm.99 9.02c.833 0 1.504-.665 1.504-1.493A1.503 1.503 0 009.991 14c-.818 0-1.493.675-1.497 1.488 0 .833.668 1.504 1.497 1.504z" fill="#E23030"/></g><defs><clipPath id="clip0_2873_12049"><path fill="#fff" d="M0 0h20v20H0z"/></clipPath></defs></svg>