<svg width="570" height="579" fill="none" xmlns="http://www.w3.org/2000/svg"><path d="M568.354 49.46v479.888c-.049 32.62-14.456 48.374-42.937 47.598l-480.073-.034c-30.314-.164-44.015-17.006-44.024-47.594l.024-480.17c0-30.523 13.391-47.263 42.716-47.602l482.269.082c28.991.31 42.767 16.497 42.025 47.832zm-531.4 78.26c-11.64 2.241-15.248 10.657-14.138 22.697l-.023 278.711c-.655 12.686 3.717 20.384 14.155 22.064 21.49 2.628 34.182 14.137 36.077 36.546l-.205 49.418c-.319 11.188 3.86 18.372 15.488 18.92l392.322-.32c10.306.068 15.778-4.94 16.48-14.959l-.105-53.929c2.684-21.363 14.7-33.396 36.241-35.904 11.627-.604 14.099-9.007 14.248-22.02l-.161-280.572c.671-11.874-4.125-18.638-14.533-20.159-21.116-2.469-34.38-13.159-35.711-36.339l-.044-53.474c-.469-8.198-4.292-13.366-12.332-14.723L90.028 23.5c-10.49 0-16.47 4.634-17.068 14.8v53.413c-1.622 21.239-12.94 33.848-36.006 36.007z" stroke="#000" stroke-width="2.638" stroke-miterlimit="10"/><mask id="mask0_2853_11101" style="mask-type:luminance" maskUnits="userSpaceOnUse" x="1" y="1" width="568" height="576"><path fill-rule="evenodd" clip-rule="evenodd" d="M568.354 49.46v479.888c-.049 32.62-14.456 48.374-42.937 47.598l-480.073-.034c-30.314-.164-44.015-17.006-44.024-47.594l.024-480.17c0-30.523 13.391-47.263 42.716-47.602l482.269.082c28.991.31 42.767 16.497 42.025 47.832zm-531.4 78.26c-11.64 2.241-15.248 10.657-14.138 22.697l-.023 278.711c-.655 12.686 3.717 20.384 14.155 22.064 21.49 2.628 34.182 14.137 36.077 36.546l-.205 49.418c-.319 11.188 3.86 18.372 15.488 18.92l392.322-.32c10.306.068 15.778-4.94 16.48-14.959l-.105-53.929c2.684-21.363 14.7-33.396 36.241-35.904 11.627-.604 14.099-9.007 14.248-22.02l-.161-280.572c.671-11.874-4.125-18.638-14.533-20.159-21.116-2.469-34.38-13.159-35.711-36.339l-.044-53.474c-.469-8.198-4.292-13.366-12.332-14.723L90.028 23.5c-10.49 0-16.47 4.634-17.068 14.8v53.413c-1.622 21.239-12.94 33.848-36.006 36.007z" fill="#fff"/></mask><g mask="url(#mask0_2853_11101)"><path d="M37.069 117.162c-17.426 1.003-25.928 12.616-24.797 35.684l-.023 273.827c-.946 23.19 7.631 34.594 24.673 35.52 15.925 1.921 24.05 10.389 24.693 25.142l-.213 53.602c1.144 16.148 9.104 25.082 25.103 25.51l396.394-.329c15.915-.537 24.148-9.236 25.532-25.215l-.049-53.962c.476-13.654 8.024-22.504 24.801-25.088 15.794-1.066 24.399-9.886 24.802-27.556l-.168-291.648c-1.826-15.528-9.959-24.178-24.707-25.61-16.291-1.974-23.776-10.993-24.784-25.192l.105-53.784c-1.824-14.684-8.822-23.47-22.16-25.033l-393.186-.177c-21.304-.263-31.175 9.534-31.53 27.701v50.257c.078 15.604-8.3 24.208-24.486 26.351z" stroke="#000" stroke-width="1.333" stroke-miterlimit="10"/><path d="M40.436 119.022c-17.186.99-25.57 12.478-24.455 35.294L15.96 425.16c-.933 22.939 7.526 34.218 24.331 35.134 15.706 1.9 23.719 10.276 24.354 24.868l-.211 53.017c1.13 15.972 8.979 24.809 24.756 25.232l390.921-.325c15.694-.531 23.815-9.135 25.179-24.939l-.048-53.376c.469-13.504 7.913-22.259 24.459-24.815 15.574-1.053 24.061-9.777 24.457-27.254l-.164-288.471c-1.801-15.36-9.821-23.915-24.365-25.331-16.067-1.953-23.448-10.873-24.442-24.917l.103-53.199c-1.799-14.524-8.701-23.214-21.855-24.76l-387.756-.176c-21.01-.26-30.744 9.431-31.093 27.4v49.71c.076 15.434-8.188 23.944-24.15 26.064z" stroke="#000" stroke-width="1.333" stroke-miterlimit="10"/><path fill-rule="evenodd" clip-rule="evenodd" d="M36.998 70.858c11.77 0 21.325 9.555 21.325 21.325 0 11.771-9.556 21.326-21.325 21.326-11.77 0-21.326-9.555-21.326-21.326 0-11.77 9.555-21.325 21.326-21.325z" fill="#fff"/><mask id="mask1_2853_11101" style="mask-type:luminance" maskUnits="userSpaceOnUse" x="15" y="70" width="44" height="44"><path fill-rule="evenodd" clip-rule="evenodd" d="M36.998 70.858c11.77 0 21.325 9.555 21.325 21.325 0 11.771-9.556 21.326-21.325 21.326-11.77 0-21.326-9.555-21.326-21.326 0-11.77 9.555-21.325 21.326-21.325z" fill="#fff"/></mask><g mask="url(#mask1_2853_11101)"><path fill-rule="evenodd" clip-rule="evenodd" d="M36.987 80.614c6.474 0 11.73 5.256 11.73 11.729 0 6.473-5.256 11.729-11.73 11.729-6.473 0-11.73-5.256-11.73-11.73 0-6.472 5.257-11.728 11.73-11.728z" fill="#fff" stroke="#000" stroke-width=".667" stroke-miterlimit="10"/></g><path d="M36.998 70.858c11.77 0 21.325 9.555 21.325 21.325 0 11.771-9.556 21.326-21.325 21.326-11.77 0-21.326-9.555-21.326-21.326 0-11.77 9.555-21.325 21.326-21.325z" stroke="#000" stroke-width=".667" stroke-miterlimit="10"/><path fill-rule="evenodd" clip-rule="evenodd" d="M533.116 70.858c11.769 0 21.325 9.555 21.325 21.325 0 11.771-9.556 21.326-21.325 21.326-11.771 0-21.327-9.555-21.327-21.326 0-11.77 9.556-21.325 21.327-21.325z" fill="#fff"/><mask id="mask2_2853_11101" style="mask-type:luminance" maskUnits="userSpaceOnUse" x="511" y="70" width="44" height="44"><path fill-rule="evenodd" clip-rule="evenodd" d="M533.116 70.858c11.769 0 21.325 9.555 21.325 21.325 0 11.771-9.556 21.326-21.325 21.326-11.771 0-21.327-9.555-21.327-21.326 0-11.77 9.556-21.325 21.327-21.325z" fill="#fff"/></mask><g mask="url(#mask2_2853_11101)"><path fill-rule="evenodd" clip-rule="evenodd" d="M533.104 80.614c6.474 0 11.73 5.256 11.73 11.729 0 6.473-5.256 11.729-11.73 11.729-6.473 0-11.729-5.256-11.729-11.73 0-6.472 5.256-11.728 11.729-11.728z" fill="#fff" stroke="#000" stroke-width=".667" stroke-miterlimit="10"/></g><path d="M533.116 70.858c11.769 0 21.325 9.555 21.325 21.325 0 11.771-9.556 21.326-21.325 21.326-11.771 0-21.327-9.555-21.327-21.326 0-11.77 9.556-21.325 21.327-21.325z" stroke="#000" stroke-width=".667" stroke-miterlimit="10"/><path fill-rule="evenodd" clip-rule="evenodd" d="M36.998 465.838c11.77 0 21.325 9.556 21.325 21.327 0 11.769-9.556 21.325-21.325 21.325-11.77 0-21.326-9.556-21.326-21.325 0-11.771 9.555-21.327 21.326-21.327z" fill="#fff"/><mask id="mask3_2853_11101" style="mask-type:luminance" maskUnits="userSpaceOnUse" x="15" y="465" width="44" height="44"><path fill-rule="evenodd" clip-rule="evenodd" d="M36.998 465.838c11.77 0 21.325 9.556 21.325 21.327 0 11.769-9.556 21.325-21.325 21.325-11.77 0-21.326-9.556-21.326-21.325 0-11.771 9.555-21.327 21.326-21.327z" fill="#fff"/></mask><g mask="url(#mask3_2853_11101)"><path fill-rule="evenodd" clip-rule="evenodd" d="M36.987 475.596c6.474 0 11.73 5.255 11.73 11.729 0 6.474-5.256 11.73-11.73 11.73-6.473 0-11.73-5.256-11.73-11.73s5.257-11.729 11.73-11.729z" fill="#fff" stroke="#000" stroke-width=".667" stroke-miterlimit="10"/></g><path d="M36.998 465.838c11.77 0 21.325 9.556 21.325 21.327 0 11.769-9.556 21.325-21.325 21.325-11.77 0-21.326-9.556-21.326-21.325 0-11.771 9.555-21.327 21.326-21.327z" stroke="#000" stroke-width=".667" stroke-miterlimit="10"/><path fill-rule="evenodd" clip-rule="evenodd" d="M533.116 465.838c11.769 0 21.325 9.556 21.325 21.327 0 11.769-9.556 21.325-21.325 21.325-11.771 0-21.327-9.556-21.327-21.325 0-11.771 9.556-21.327 21.327-21.327z" fill="#fff"/><mask id="mask4_2853_11101" style="mask-type:luminance" maskUnits="userSpaceOnUse" x="511" y="465" width="44" height="44"><path fill-rule="evenodd" clip-rule="evenodd" d="M533.116 465.838c11.769 0 21.325 9.556 21.325 21.327 0 11.769-9.556 21.325-21.325 21.325-11.771 0-21.327-9.556-21.327-21.325 0-11.771 9.556-21.327 21.327-21.327z" fill="#fff"/></mask><g mask="url(#mask4_2853_11101)"><path fill-rule="evenodd" clip-rule="evenodd" d="M533.104 475.596c6.474 0 11.73 5.255 11.73 11.729 0 6.474-5.256 11.73-11.73 11.73-6.473 0-11.729-5.256-11.729-11.73s5.256-11.729 11.729-11.729z" fill="#fff" stroke="#000" stroke-width=".667" stroke-miterlimit="10"/></g><path d="M533.116 465.838c11.769 0 21.325 9.556 21.325 21.327 0 11.769-9.556 21.325-21.325 21.325-11.771 0-21.327-9.556-21.327-21.325 0-11.771 9.556-21.327 21.327-21.327z" stroke="#000" stroke-width=".667" stroke-miterlimit="10"/><path fill-rule="evenodd" clip-rule="evenodd" d="M37.003 529.86c6.257 0 11.338 5.081 11.338 11.338 0 6.259-5.08 11.339-11.338 11.339-6.259 0-11.339-5.08-11.339-11.339 0-6.257 5.08-11.338 11.339-11.338z" fill="#fff"/><mask id="mask5_2853_11101" style="mask-type:luminance" maskUnits="userSpaceOnUse" x="25" y="529" width="24" height="24"><path fill-rule="evenodd" clip-rule="evenodd" d="M37.003 529.86c6.257 0 11.338 5.081 11.338 11.338 0 6.259-5.08 11.339-11.338 11.339-6.259 0-11.339-5.08-11.339-11.339 0-6.257 5.08-11.338 11.339-11.338z" fill="#fff"/></mask><g mask="url(#mask5_2853_11101)"><path fill-rule="evenodd" clip-rule="evenodd" d="M36.84 531.75c5.215 0 9.448 4.233 9.448 9.448 0 5.215-4.233 9.449-9.448 9.449-5.216 0-9.45-4.234-9.45-9.449s4.234-9.448 9.45-9.448z" fill="#fff" stroke="#000" stroke-width=".667" stroke-miterlimit="10"/></g><path d="M37.003 529.86c6.257 0 11.338 5.081 11.338 11.338 0 6.259-5.08 11.339-11.338 11.339-6.259 0-11.339-5.08-11.339-11.339 0-6.257 5.08-11.338 11.339-11.338z" stroke="#000" stroke-width=".667" stroke-miterlimit="10"/><path fill-rule="evenodd" clip-rule="evenodd" d="M37.003 26.811c6.257 0 11.338 5.08 11.338 11.338 0 6.258-5.08 11.338-11.338 11.338-6.259 0-11.339-5.08-11.339-11.338 0-6.258 5.08-11.338 11.339-11.338z" fill="#fff"/><mask id="mask6_2853_11101" style="mask-type:luminance" maskUnits="userSpaceOnUse" x="25" y="26" width="24" height="24"><path fill-rule="evenodd" clip-rule="evenodd" d="M37.003 26.811c6.257 0 11.338 5.08 11.338 11.338 0 6.258-5.08 11.338-11.338 11.338-6.259 0-11.339-5.08-11.339-11.338 0-6.258 5.08-11.338 11.339-11.338z" fill="#fff"/></mask><g mask="url(#mask6_2853_11101)"><path fill-rule="evenodd" clip-rule="evenodd" d="M36.84 28.7c5.215 0 9.448 4.234 9.448 9.448 0 5.216-4.233 9.45-9.448 9.45-5.216 0-9.45-4.234-9.45-9.45 0-5.214 4.234-9.448 9.45-9.448z" fill="#fff" stroke="#000" stroke-width=".667" stroke-miterlimit="10"/></g><path d="M37.003 26.811c6.257 0 11.338 5.08 11.338 11.338 0 6.258-5.08 11.338-11.338 11.338-6.259 0-11.339-5.08-11.339-11.338 0-6.258 5.08-11.338 11.339-11.338z" stroke="#000" stroke-width=".667" stroke-miterlimit="10"/><path fill-rule="evenodd" clip-rule="evenodd" d="M533.12 26.811c6.257 0 11.339 5.08 11.339 11.338 0 6.258-5.082 11.338-11.339 11.338-6.259 0-11.339-5.08-11.339-11.338 0-6.258 5.08-11.338 11.339-11.338z" fill="#fff"/><mask id="mask7_2853_11101" style="mask-type:luminance" maskUnits="userSpaceOnUse" x="521" y="26" width="24" height="24"><path fill-rule="evenodd" clip-rule="evenodd" d="M533.12 26.811c6.257 0 11.339 5.08 11.339 11.338 0 6.258-5.082 11.338-11.339 11.338-6.259 0-11.339-5.08-11.339-11.338 0-6.258 5.08-11.338 11.339-11.338z" fill="#fff"/></mask><g mask="url(#mask7_2853_11101)"><path fill-rule="evenodd" clip-rule="evenodd" d="M532.956 28.7c5.216 0 9.449 4.234 9.449 9.448 0 5.216-4.233 9.45-9.449 9.45-5.215 0-9.448-4.234-9.448-9.45 0-5.214 4.233-9.448 9.448-9.448z" fill="#fff" stroke="#000" stroke-width=".667" stroke-miterlimit="10"/></g><path d="M533.12 26.811c6.257 0 11.339 5.08 11.339 11.338 0 6.258-5.082 11.338-11.339 11.338-6.259 0-11.339-5.08-11.339-11.338 0-6.258 5.08-11.338 11.339-11.338z" stroke="#000" stroke-width=".667" stroke-miterlimit="10"/><path fill-rule="evenodd" clip-rule="evenodd" d="M533.12 529.86c6.257 0 11.339 5.081 11.339 11.338 0 6.259-5.082 11.339-11.339 11.339-6.259 0-11.339-5.08-11.339-11.339 0-6.257 5.08-11.338 11.339-11.338z" fill="#fff"/><mask id="mask8_2853_11101" style="mask-type:luminance" maskUnits="userSpaceOnUse" x="521" y="529" width="24" height="24"><path fill-rule="evenodd" clip-rule="evenodd" d="M533.12 529.86c6.257 0 11.339 5.081 11.339 11.338 0 6.259-5.082 11.339-11.339 11.339-6.259 0-11.339-5.08-11.339-11.339 0-6.257 5.08-11.338 11.339-11.338z" fill="#fff"/></mask><g mask="url(#mask8_2853_11101)"><path fill-rule="evenodd" clip-rule="evenodd" d="M532.956 531.75c5.216 0 9.449 4.233 9.449 9.448 0 5.215-4.233 9.449-9.449 9.449-5.215 0-9.448-4.234-9.448-9.449s4.233-9.448 9.448-9.448z" fill="#fff" stroke="#000" stroke-width=".667" stroke-miterlimit="10"/></g><path d="M533.12 529.86c6.257 0 11.339 5.081 11.339 11.338 0 6.259-5.082 11.339-11.339 11.339-6.259 0-11.339-5.08-11.339-11.339 0-6.257 5.08-11.338 11.339-11.338z" stroke="#000" stroke-width=".667" stroke-miterlimit="10"/></g><mask id="mask9_2853_11101" style="mask-type:luminance" maskUnits="userSpaceOnUse" x="22" y="22" width="526" height="534"><path fill-rule="evenodd" clip-rule="evenodd" d="M36.907 127.192c-11.64 2.241-15.247 10.657-14.139 22.697L22.746 428.6c-.655 12.687 3.718 20.384 14.156 22.064 21.489 2.628 34.182 14.137 36.076 36.547l-.206 49.417c-.318 11.188 3.86 18.372 15.49 18.92l392.321-.32c10.305.068 15.779-4.94 16.481-14.959l-.106-53.929c2.684-21.363 14.7-33.396 36.242-35.904 11.627-.604 14.098-9.007 14.247-22.02l-.16-280.572c.669-11.873-4.127-18.637-14.535-20.159-21.114-2.469-34.38-13.158-35.71-36.338l-.043-53.475c-.471-8.198-4.292-13.366-12.333-14.723l-394.684-.177c-10.491-.002-16.471 4.635-17.07 14.8v53.413c-1.62 21.239-12.94 33.848-36.005 36.007z" fill="#fff"/></mask><g mask="url(#mask9_2853_11101)"><path d="M72.915 37.772l-.14 498.856c-.319 11.188 3.86 18.372 15.489 18.92l392.321-.32c10.306.068 15.779-4.94 16.482-14.959l-.066-502.397c-.47-8.198-4.292-13.366-12.333-14.723l-394.684-.177c-10.49-.002-16.47 4.635-17.07 14.8z" stroke="#000" stroke-width="1.333" stroke-miterlimit="10"/><path fill-rule="evenodd" clip-rule="evenodd" d="M518.831 414.414c6.257 0 11.339 5.082 11.339 11.339 0 6.259-5.082 11.339-11.339 11.339-6.259 0-11.339-5.08-11.339-11.339 0-6.257 5.08-11.339 11.339-11.339z" fill="#fff"/><mask id="mask10_2853_11101" style="mask-type:luminance" maskUnits="userSpaceOnUse" x="507" y="414" width="24" height="24"><path fill-rule="evenodd" clip-rule="evenodd" d="M518.831 414.414c6.257 0 11.339 5.082 11.339 11.339 0 6.259-5.082 11.339-11.339 11.339-6.259 0-11.339-5.08-11.339-11.339 0-6.257 5.08-11.339 11.339-11.339z" fill="#fff"/></mask><g mask="url(#mask10_2853_11101)"><path fill-rule="evenodd" clip-rule="evenodd" d="M518.667 416.305c5.216 0 9.449 4.233 9.449 9.448 0 5.214-4.233 9.449-9.449 9.449-5.215 0-9.448-4.235-9.448-9.449 0-5.215 4.233-9.448 9.448-9.448z" fill="#fff" stroke="#000" stroke-width=".667" stroke-miterlimit="10"/></g><path d="M518.831 414.414c6.257 0 11.339 5.082 11.339 11.339 0 6.259-5.082 11.339-11.339 11.339-6.259 0-11.339-5.08-11.339-11.339 0-6.257 5.08-11.339 11.339-11.339z" stroke="#000" stroke-width=".667" stroke-miterlimit="10"/><path fill-rule="evenodd" clip-rule="evenodd" d="M518.831 141.201c6.257 0 11.339 5.08 11.339 11.337 0 6.259-5.082 11.339-11.339 11.339-6.259 0-11.339-5.08-11.339-11.339 0-6.257 5.08-11.337 11.339-11.337z" fill="#fff"/><mask id="mask11_2853_11101" style="mask-type:luminance" maskUnits="userSpaceOnUse" x="507" y="141" width="24" height="23"><path fill-rule="evenodd" clip-rule="evenodd" d="M518.831 141.201c6.257 0 11.339 5.08 11.339 11.337 0 6.259-5.082 11.339-11.339 11.339-6.259 0-11.339-5.08-11.339-11.339 0-6.257 5.08-11.337 11.339-11.337z" fill="#fff"/></mask><g mask="url(#mask11_2853_11101)"><path fill-rule="evenodd" clip-rule="evenodd" d="M518.667 143.09c5.216 0 9.449 4.233 9.449 9.448 0 5.216-4.233 9.449-9.449 9.449-5.215 0-9.448-4.233-9.448-9.449 0-5.215 4.233-9.448 9.448-9.448z" fill="#fff" stroke="#000" stroke-width=".667" stroke-miterlimit="10"/></g><path d="M518.831 141.201c6.257 0 11.339 5.08 11.339 11.337 0 6.259-5.082 11.339-11.339 11.339-6.259 0-11.339-5.08-11.339-11.339 0-6.257 5.08-11.337 11.339-11.337z" stroke="#000" stroke-width=".667" stroke-miterlimit="10"/><path fill-rule="evenodd" clip-rule="evenodd" d="M51.189 141.201c6.259 0 11.339 5.08 11.339 11.337 0 6.259-5.08 11.339-11.34 11.339-6.256 0-11.336-5.08-11.336-11.339 0-6.257 5.08-11.337 11.337-11.337z" fill="#fff"/><mask id="mask12_2853_11101" style="mask-type:luminance" maskUnits="userSpaceOnUse" x="39" y="141" width="24" height="23"><path fill-rule="evenodd" clip-rule="evenodd" d="M51.189 141.201c6.259 0 11.339 5.08 11.339 11.337 0 6.259-5.08 11.339-11.34 11.339-6.256 0-11.336-5.08-11.336-11.339 0-6.257 5.08-11.337 11.337-11.337z" fill="#fff"/></mask><g mask="url(#mask12_2853_11101)"><path fill-rule="evenodd" clip-rule="evenodd" d="M51.026 143.09c5.215 0 9.45 4.233 9.45 9.448 0 5.216-4.235 9.449-9.45 9.449-5.215 0-9.448-4.233-9.448-9.449 0-5.215 4.233-9.448 9.448-9.448z" fill="#fff" stroke="#000" stroke-width=".667" stroke-miterlimit="10"/></g><path d="M51.189 141.201c6.259 0 11.339 5.08 11.339 11.337 0 6.259-5.08 11.339-11.34 11.339-6.256 0-11.336-5.08-11.336-11.339 0-6.257 5.08-11.337 11.337-11.337z" stroke="#000" stroke-width=".667" stroke-miterlimit="10"/><path fill-rule="evenodd" clip-rule="evenodd" d="M51.189 414.414c6.259 0 11.339 5.082 11.339 11.339 0 6.259-5.08 11.339-11.34 11.339-6.256 0-11.336-5.08-11.336-11.339 0-6.257 5.08-11.339 11.337-11.339z" fill="#fff"/><mask id="mask13_2853_11101" style="mask-type:luminance" maskUnits="userSpaceOnUse" x="39" y="414" width="24" height="24"><path fill-rule="evenodd" clip-rule="evenodd" d="M51.189 414.414c6.259 0 11.339 5.082 11.339 11.339 0 6.259-5.08 11.339-11.34 11.339-6.256 0-11.336-5.08-11.336-11.339 0-6.257 5.08-11.339 11.337-11.339z" fill="#fff"/></mask><g mask="url(#mask13_2853_11101)"><path fill-rule="evenodd" clip-rule="evenodd" d="M51.026 416.305c5.215 0 9.45 4.233 9.45 9.448 0 5.214-4.235 9.449-9.45 9.449-5.215 0-9.448-4.235-9.448-9.449 0-5.215 4.233-9.448 9.448-9.448z" fill="#fff" stroke="#000" stroke-width=".667" stroke-miterlimit="10"/></g><path d="M51.189 414.414c6.259 0 11.339 5.082 11.339 11.339 0 6.259-5.08 11.339-11.34 11.339-6.256 0-11.336-5.08-11.336-11.339 0-6.257 5.08-11.339 11.337-11.339z" stroke="#000" stroke-width=".667" stroke-miterlimit="10"/></g><path d="M36.907 127.192c-11.64 2.241-15.247 10.657-14.139 22.697L22.746 428.6c-.655 12.687 3.718 20.384 14.156 22.064 21.489 2.628 34.182 14.137 36.076 36.547l-.206 49.417c-.318 11.188 3.86 18.372 15.49 18.92l392.321-.32c10.305.068 15.779-4.94 16.481-14.959l-.106-53.929c2.684-21.363 14.7-33.396 36.242-35.904 11.627-.604 14.098-9.007 14.247-22.02l-.16-280.572c.669-11.873-4.127-18.637-14.535-20.159-21.114-2.469-34.38-13.158-35.71-36.338l-.043-53.475c-.471-8.198-4.292-13.366-12.333-14.723l-394.684-.177c-10.491-.002-16.471 4.635-17.07 14.8v53.413c-1.62 21.239-12.94 33.848-36.005 36.007z" stroke="#000" stroke-width="1.333" stroke-miterlimit="10"/></svg>