<svg width="470" height="470" fill="none" xmlns="http://www.w3.org/2000/svg"><g clip-path="url(#clip0_2692_9631)"><path d="M148.81 178.865c-4.064.762-5.292 3.725-4.911 7.874v96.904c-.211 4.403 1.313 7.07 4.911 7.663 7.451.931 11.896 4.91 12.531 12.7l-.084 17.188c-.127 3.895 1.354 6.393 5.376 6.562l136.403-.127c3.598.042 5.503-1.736 5.715-5.207l-.042-18.755c.931-7.408 5.122-11.599 12.615-12.488 4.064-.212 4.911-3.133 4.953-7.663l-.042-97.539c.254-4.149-1.439-6.477-5.038-7.028-7.324-.846-11.938-4.572-12.404-12.615v-18.585c-.169-2.837-1.482-4.657-4.276-5.123l-137.206-.042c-3.641 0-5.716 1.608-5.927 5.165v18.585c-.593 7.366-4.53 11.769-12.574 12.531zm184.749-27.222v166.842c0 11.345-5.038 16.806-14.944 16.552H151.731c-10.541-.042-15.282-5.926-15.325-16.552V151.559c0-10.626 4.657-16.426 14.86-16.553l167.645.042c10.118.085 14.902 5.715 14.648 16.595z" stroke="#000" stroke-miterlimit="10" stroke-linecap="round" stroke-linejoin="round"/><path d="M148.763 178.367l-.022.002-.023.004c-2.149.403-3.612 1.407-4.465 2.912-.836 1.476-1.045 3.364-.854 5.477v96.869c-.106 2.248.225 4.127 1.103 5.537.892 1.432 2.309 2.315 4.227 2.631l.01.002.009.001c3.654.456 6.512 1.653 8.533 3.639 2.014 1.978 3.247 4.79 3.56 8.584l-.084 17.153v.007c-.064 1.998.279 3.728 1.234 4.989.97 1.282 2.505 1.992 4.621 2.081l.011.001h.011l136.399-.127c1.877.021 3.392-.431 4.468-1.417 1.078-.988 1.638-2.442 1.749-4.26l.001-.016v-.015l-.042-18.723c.458-3.608 1.702-6.383 3.699-8.365 2-1.984 4.801-3.219 8.459-3.656 1.067-.057 1.957-.294 2.689-.714.739-.425 1.29-1.023 1.692-1.756.789-1.441 1.008-3.415 1.029-5.686v-.005l-.042-97.524c.128-2.134-.238-3.877-1.168-5.17-.94-1.306-2.4-2.077-4.294-2.367l-.009-.001-.009-.001c-3.596-.416-6.463-1.531-8.485-3.473-2.013-1.933-3.247-4.74-3.477-8.661v-18.585l-.001-.015c-.088-1.485-.479-2.76-1.263-3.734-.79-.981-1.936-1.603-3.429-1.852l-.041-.007h-.041l-137.207-.042h0c-1.886 0-3.449.416-4.573 1.367-1.133.96-1.742 2.397-1.853 4.268l-.001.015v18.579c-.293 3.595-1.395 6.407-3.351 8.414-1.959 2.009-4.83 3.267-8.77 3.64zm184.296-26.735h0v166.853c0 5.61-1.247 9.667-3.627 12.29-2.37 2.61-5.944 3.887-10.804 3.763v-.001H151.733c-5.178-.02-8.843-1.473-11.229-4.14-2.394-2.678-3.577-6.665-3.598-11.913V151.559c0-5.251 1.152-9.218 3.481-11.885 2.318-2.655 5.876-4.105 10.882-4.168l167.638.042h.002c4.968.042 8.534 1.442 10.839 4.079 2.314 2.646 3.437 6.629 3.311 12.005z" fill="#fff" stroke="#000"/><path d="M4.401 332.37l103.593 2.667V135.006L4.401 137.673c-2.201 0-3.98 1.82-3.98 4.022v186.696c0 2.159 1.779 3.979 3.98 3.979zm461.2 4.699l-103.593 2.667V139.662l103.593 2.667c2.201 0 3.979 1.821 3.979 4.022v186.696c0 2.201-1.778 4.022-3.979 4.022zM332.368 4.403l2.667 103.593H134.961l2.667-103.593c0-2.201 1.82-3.98 4.022-3.98h186.696c2.201 0 4.022 1.779 4.022 3.98zm-.589 461.194l2.667-103.593H134.414l2.667 103.593c0 2.201 1.821 3.979 4.022 3.979h186.696a3.975 3.975 0 003.98-3.979z" stroke="#000" stroke-miterlimit="10" stroke-linecap="round" stroke-linejoin="round"/><path d="M170.96 242v-12.96h3.376c.555 0 1.077.043 1.568.128.501.085.944.251 1.328.496.384.235.683.576.896 1.024.224.437.336 1.019.336 1.744 0 .523-.08.965-.24 1.328a2 2 0 01-.656.848 2.342 2.342 0 01-1.008.432c.501.064.923.229 1.264.496.341.256.597.603.768 1.04.181.437.272.965.272 1.584 0 .672-.091 1.253-.272 1.744-.171.48-.421.875-.752 1.184a3.086 3.086 0 01-1.232.688c-.48.149-1.035.224-1.664.224h-3.984zm2.864-2h.608c.629 0 1.061-.16 1.296-.48.245-.32.368-.789.368-1.408 0-.491-.053-.88-.16-1.168a1.105 1.105 0 00-.528-.624c-.245-.139-.576-.208-.992-.208h-.592V240zm0-5.776h.56c.437 0 .768-.064.992-.192.224-.139.373-.336.448-.592.085-.256.128-.565.128-.928 0-.341-.064-.624-.192-.848a1.135 1.135 0 00-.544-.528c-.235-.117-.533-.176-.896-.176h-.496v3.264zm6.59 7.776v-12.96h2.864v5.472h.64c.822 0 1.515.133 2.08.4a2.694 2.694 0 011.296 1.232c.299.544.448 1.248.448 2.112 0 .789-.106 1.429-.32 1.92-.202.491-.49.869-.864 1.136a3.275 3.275 0 01-1.296.544 8.334 8.334 0 01-1.6.144h-3.248zm2.864-1.872h.4c.363 0 .646-.069.848-.208.214-.139.363-.352.448-.64.096-.288.139-.651.128-1.088-.01-.48-.112-.88-.304-1.2-.192-.331-.576-.496-1.152-.496h-.368v3.632zM188.83 242v-12.96h2.864V242h-2.864zm4.881 0v-12.96h6.432v2.176h-3.568v3.296h.608c.821 0 1.515.133 2.08.4a2.777 2.777 0 011.312 1.232c.299.544.448 1.248.448 2.112 0 .789-.107 1.429-.32 1.92-.203.491-.491.869-.864 1.136a3.285 3.285 0 01-1.312.544 8.342 8.342 0 01-1.6.144h-3.216zm2.864-1.872h.368c.363 0 .651-.069.864-.208.213-.139.363-.352.448-.64.085-.288.123-.651.112-1.088-.011-.48-.112-.88-.304-1.2-.192-.331-.576-.496-1.152-.496h-.336v3.632zm5.948 1.872v-12.96h5.824v1.952h-2.96v3.216h2.256v1.984h-2.256v3.872h2.992V242h-5.856zm7.156 0v-12.96h4.352c.778 0 1.418.149 1.92.448.501.288.874.715 1.12 1.28.245.555.368 1.232.368 2.032 0 1.003-.166 1.771-.496 2.304a2.591 2.591 0 01-1.344 1.088c-.566.203-1.2.304-1.904.304h-1.152V242h-2.864zm2.864-7.504h.96c.352 0 .618-.064.8-.192.181-.128.298-.32.352-.576a4.12 4.12 0 00.096-.976c0-.331-.027-.619-.08-.864a.964.964 0 00-.336-.608c-.182-.149-.464-.224-.848-.224h-.944v3.44zm6.324 7.504v-12.96h2.256v7.424l3.312-7.424h1.856V242h-2.304v-7.552L220.611 242h-1.744zm10.558 0v-10.832h-1.952v-2.128h6.768v2.128h-1.936V242h-2.88zm5.957 0v-12.96h5.824v1.952h-2.96v3.216h2.256v1.984h-2.256v3.872h2.992V242h-5.856zm11.298 0v-12.96h2.864v5.136h.288l1.904-5.136h2.848l-2.368 6.08 2.448 6.88h-2.944l-1.888-5.648h-.288V242h-2.864zm12.82.192c-.971 0-1.739-.171-2.304-.512a2.861 2.861 0 01-1.216-1.472c-.245-.64-.368-1.403-.368-2.288v-4.816c0-.896.123-1.659.368-2.288a2.793 2.793 0 011.216-1.44c.565-.341 1.333-.512 2.304-.512.981 0 1.755.171 2.32.512.576.331.987.811 1.232 1.44.245.629.368 1.392.368 2.288v4.816c0 .885-.123 1.648-.368 2.288a2.839 2.839 0 01-1.232 1.472c-.565.341-1.339.512-2.32.512zm0-2.032c.299 0 .517-.075.656-.224.139-.149.229-.341.272-.576.043-.235.064-.475.064-.72v-6.24a3.82 3.82 0 00-.064-.72 1.116 1.116 0 00-.272-.576c-.139-.149-.357-.224-.656-.224-.277 0-.485.075-.624.224a1.116 1.116 0 00-.272.576 3.82 3.82 0 00-.064.72v6.24c0 .245.016.485.048.72.043.235.128.427.256.576.139.149.357.224.656.224zm5.663 1.84v-12.96h4.352c.779 0 1.419.149 1.92.448a2.64 2.64 0 011.12 1.28c.245.555.368 1.232.368 2.032 0 1.003-.165 1.771-.496 2.304a2.591 2.591 0 01-1.344 1.088c-.565.203-1.2.304-1.904.304h-1.152V242h-2.864zm2.864-7.504h.96c.352 0 .619-.064.8-.192.181-.128.299-.32.352-.576a4.12 4.12 0 00.096-.976c0-.331-.027-.619-.08-.864a.964.964 0 00-.336-.608c-.181-.149-.464-.224-.848-.224h-.944v3.44zm6.277 7.504v-12.96h7.76V242h-2.816v-10.912h-2.128V242h-2.816zm9.575 2.544v-1.888c.459.011.859-.011 1.2-.064.342-.053.619-.155.832-.304.214-.149.352-.352.416-.608.075-.267.064-.597-.032-.992l-2.912-11.648h2.656l1.12 5.328.528 3.472.384-3.488.944-5.312h2.688l-2.688 12.08a8.561 8.561 0 01-.448 1.488c-.17.405-.384.736-.64.992a2.36 2.36 0 01-.912.608c-.362.139-.805.229-1.328.272-.512.053-1.114.075-1.808.064zm12.684-2.352c-.982 0-1.76-.176-2.336-.528a2.936 2.936 0 01-1.2-1.504c-.235-.651-.352-1.413-.352-2.288V233.2c0-.896.117-1.664.352-2.304a2.85 2.85 0 011.2-1.504c.576-.352 1.354-.528 2.336-.528.96 0 1.706.16 2.24.48.544.309.928.747 1.152 1.312.224.565.336 1.216.336 1.952v1.12h-2.8v-1.296a5.45 5.45 0 00-.048-.736 1.002 1.002 0 00-.224-.576c-.128-.16-.347-.24-.656-.24-.299 0-.523.08-.672.24a1.22 1.22 0 00-.272.608 5.573 5.573 0 00-.048.752v6.096c0 .288.021.555.064.8.053.235.149.427.288.576.149.139.362.208.64.208.298 0 .512-.075.64-.224.128-.16.208-.363.24-.608s.048-.496.048-.752v-1.36h2.8v1.12c0 .736-.112 1.397-.336 1.984a2.702 2.702 0 01-1.136 1.376c-.534.331-1.286.496-2.256.496zm-87.657-114.066c-.803 0-1.428-.168-1.876-.504-.439-.336-.747-.789-.924-1.358a6.715 6.715 0 01-.252-1.904v-4.004c0-.765.084-1.433.252-2.002.177-.569.485-1.008.924-1.316.448-.317 1.073-.476 1.876-.476.709 0 1.269.131 1.68.392.42.261.718.635.896 1.12.186.485.28 1.069.28 1.75v.896h-1.498v-.798c0-.42-.024-.789-.07-1.106-.038-.327-.15-.579-.336-.756-.187-.177-.5-.266-.938-.266-.448 0-.775.098-.98.294-.206.187-.341.457-.406.812a7.704 7.704 0 00-.084 1.218v4.494c0 .569.046 1.022.14 1.358.093.327.247.56.462.7.214.14.504.21.868.21.429 0 .737-.093.924-.28.186-.196.303-.462.35-.798.046-.336.07-.728.07-1.176v-.84h1.498v.84c0 .691-.084 1.302-.252 1.834a2.377 2.377 0 01-.868 1.232c-.411.289-.99.434-1.736.434zm5.609-.126v-10.164h-1.918v-1.176h5.362v1.176h-1.862V128h-1.582zm7.435.126c-.765 0-1.377-.149-1.834-.448a2.455 2.455 0 01-.98-1.274c-.196-.56-.294-1.213-.294-1.96v-4.298c0-.747.098-1.386.294-1.918.205-.541.532-.952.98-1.232.457-.289 1.069-.434 1.834-.434.765 0 1.372.145 1.82.434.448.289.77.7.966 1.232.205.532.308 1.171.308 1.918v4.312c0 .737-.103 1.381-.308 1.932-.196.551-.518.98-.966 1.288-.448.299-1.055.448-1.82.448zm0-1.246c.42 0 .737-.084.952-.252.215-.177.359-.42.434-.728.075-.317.112-.686.112-1.106v-4.97c0-.42-.037-.779-.112-1.078-.075-.308-.219-.541-.434-.7-.215-.168-.532-.252-.952-.252-.42 0-.742.084-.966.252-.215.159-.359.392-.434.7a4.484 4.484 0 00-.112 1.078v4.97c0 .42.037.789.112 1.106.075.308.219.551.434.728.224.168.546.252.966.252zm4.649 1.12v-11.34h2.814c.681 0 1.222.126 1.624.378.41.243.709.597.896 1.064.186.467.28 1.031.28 1.694 0 .597-.108 1.115-.322 1.554a2.29 2.29 0 01-.924 1.022c-.411.233-.924.35-1.54.35h-1.246V128h-1.582zm1.582-6.412h.728c.457 0 .816-.051 1.078-.154a.984.984 0 00.56-.532c.112-.261.168-.625.168-1.092 0-.541-.042-.957-.126-1.246-.075-.289-.238-.49-.49-.602-.252-.112-.644-.168-1.176-.168h-.742v3.794zm8.042 6.538c-.765 0-1.376-.149-1.834-.448a2.455 2.455 0 01-.98-1.274c-.196-.56-.294-1.213-.294-1.96v-4.298c0-.747.098-1.386.294-1.918.206-.541.532-.952.98-1.232.458-.289 1.069-.434 1.834-.434.766 0 1.372.145 1.82.434.448.289.77.7.966 1.232.206.532.308 1.171.308 1.918v4.312c0 .737-.102 1.381-.308 1.932-.196.551-.518.98-.966 1.288-.448.299-1.054.448-1.82.448zm0-1.246c.42 0 .738-.084.952-.252.215-.177.36-.42.434-.728.075-.317.112-.686.112-1.106v-4.97c0-.42-.037-.779-.112-1.078-.074-.308-.219-.541-.434-.7-.214-.168-.532-.252-.952-.252-.42 0-.742.084-.966.252-.214.159-.359.392-.434.7a4.536 4.536 0 00-.112 1.078v4.97c0 .42.038.789.112 1.106.075.308.22.551.434.728.224.168.546.252.966.252zm4.649 1.12v-11.34h1.582v4.9h2.912v-4.9h1.582V128h-1.582v-5.306h-2.912V128h-1.582zm7.232 0l2.408-11.34h1.526L254.46 128h-1.498l-.518-2.856h-2.31l-.546 2.856h-1.484zm2.24-3.99h1.89l-.952-5.11-.938 5.11zm7.85 3.99l2.408-11.34h1.526L264.55 128h-1.498l-.518-2.856h-2.31l-.546 2.856h-1.484zm2.24-3.99h1.89l-.952-5.11-.938 5.11zM209.18 355.126c-.803 0-1.428-.168-1.876-.504-.439-.336-.747-.789-.924-1.358a6.715 6.715 0 01-.252-1.904v-4.004c0-.765.084-1.433.252-2.002.177-.569.485-1.008.924-1.316.448-.317 1.073-.476 1.876-.476.709 0 1.269.131 1.68.392.42.261.719.635.896 1.12.187.485.28 1.069.28 1.75v.896h-1.498v-.798c0-.42-.023-.789-.07-1.106-.037-.327-.149-.579-.336-.756-.187-.177-.499-.266-.938-.266-.448 0-.775.098-.98.294-.205.187-.341.457-.406.812a7.704 7.704 0 00-.084 1.218v4.494c0 .569.047 1.022.14 1.358.093.327.247.56.462.7.215.14.504.21.868.21.429 0 .737-.093.924-.28.187-.196.303-.462.35-.798.047-.336.07-.728.07-1.176v-.84h1.498v.84c0 .691-.084 1.302-.252 1.834-.168.523-.457.933-.868 1.232-.411.289-.989.434-1.736.434zm5.609-.126v-10.164h-1.918v-1.176h5.362v1.176h-1.862V355h-1.582zm7.435.126c-.765 0-1.376-.149-1.834-.448a2.455 2.455 0 01-.98-1.274c-.196-.56-.294-1.213-.294-1.96v-4.298c0-.747.098-1.386.294-1.918.206-.541.532-.952.98-1.232.458-.289 1.069-.434 1.834-.434.766 0 1.372.145 1.82.434.448.289.77.7.966 1.232.206.532.308 1.171.308 1.918v4.312c0 .737-.102 1.381-.308 1.932-.196.551-.518.98-.966 1.288-.448.299-1.054.448-1.82.448zm0-1.246c.42 0 .738-.084.952-.252.215-.177.36-.42.434-.728.075-.317.112-.686.112-1.106v-4.97c0-.42-.037-.779-.112-1.078-.074-.308-.219-.541-.434-.7-.214-.168-.532-.252-.952-.252-.42 0-.742.084-.966.252-.214.159-.359.392-.434.7a4.536 4.536 0 00-.112 1.078v4.97c0 .42.038.789.112 1.106.075.308.22.551.434.728.224.168.546.252.966.252zm4.649 1.12v-11.34h2.814c.682 0 1.223.126 1.624.378.411.243.71.597.896 1.064.187.467.28 1.031.28 1.694 0 .597-.107 1.115-.322 1.554a2.28 2.28 0 01-.924 1.022c-.41.233-.924.35-1.54.35h-1.246V355h-1.582zm1.582-6.412h.728c.458 0 .817-.051 1.078-.154a.98.98 0 00.56-.532c.112-.261.168-.625.168-1.092 0-.541-.042-.957-.126-1.246-.074-.289-.238-.49-.49-.602-.252-.112-.644-.168-1.176-.168h-.742v3.794zm8.043 6.538c-.766 0-1.377-.149-1.834-.448-.458-.299-.784-.723-.98-1.274-.196-.56-.294-1.213-.294-1.96v-4.298c0-.747.098-1.386.294-1.918.205-.541.532-.952.98-1.232.457-.289 1.068-.434 1.834-.434.765 0 1.372.145 1.82.434.448.289.77.7.966 1.232.205.532.308 1.171.308 1.918v4.312c0 .737-.103 1.381-.308 1.932-.196.551-.518.98-.966 1.288-.448.299-1.055.448-1.82.448zm0-1.246c.42 0 .737-.084.952-.252.214-.177.359-.42.434-.728a4.9 4.9 0 00.112-1.106v-4.97c0-.42-.038-.779-.112-1.078-.075-.308-.22-.541-.434-.7-.215-.168-.532-.252-.952-.252-.42 0-.742.084-.966.252-.215.159-.36.392-.434.7a4.484 4.484 0 00-.112 1.078v4.97c0 .42.037.789.112 1.106.074.308.219.551.434.728.224.168.546.252.966.252zm4.649 1.12v-11.34h1.582v4.9h2.912v-4.9h1.582V355h-1.582v-5.306h-2.912V355h-1.582zm7.231 0l2.408-11.34h1.526l2.422 11.34h-1.498l-.518-2.856h-2.31l-.546 2.856h-1.484zm2.24-3.99h1.89l-.952-5.11-.938 5.11zm8.466 3.99v-11.34h2.604c.513 0 .957.056 1.33.168.383.112.7.285.952.518.252.233.439.532.56.896.121.355.182.775.182 1.26 0 .467-.061.873-.182 1.218a1.676 1.676 0 01-.532.798c-.233.196-.537.322-.91.378.457.103.826.28 1.106.532.28.243.485.56.616.952.14.383.21.845.21 1.386 0 .485-.056.929-.168 1.33a2.602 2.602 0 01-.532 1.022c-.233.28-.537.499-.91.658-.364.149-.798.224-1.302.224h-3.024zm1.582-1.134h1.064c.709 0 1.181-.163 1.414-.49.243-.336.364-.873.364-1.61 0-.476-.065-.873-.196-1.19a1.338 1.338 0 00-.602-.728c-.271-.168-.639-.252-1.106-.252h-.938v4.27zm0-5.474h.938c.448 0 .798-.061 1.05-.182a1.09 1.09 0 00.532-.616c.103-.28.154-.644.154-1.092 0-.523-.079-.901-.238-1.134-.159-.233-.406-.378-.742-.434-.336-.065-.775-.098-1.316-.098h-.378v3.556zm-132.54-87.14c0 .802-.168 1.428-.504 1.876-.336.438-.789.746-1.358.924a6.715 6.715 0 01-1.904.252h-4.004c-.765 0-1.433-.084-2.002-.252-.569-.178-1.008-.486-1.316-.924-.317-.448-.476-1.074-.476-1.876 0-.71.131-1.27.392-1.68.261-.42.635-.719 1.12-.896.485-.187 1.069-.28 1.75-.28h.896v1.498h-.798c-.42 0-.789.023-1.106.07-.327.037-.579.149-.756.336-.177.186-.266.499-.266.938 0 .448.098.774.294.98.187.205.457.34.812.406.345.056.751.084 1.218.084h4.494c.569 0 1.022-.047 1.358-.14.327-.094.56-.248.7-.462.14-.215.21-.504.21-.868 0-.43-.093-.738-.28-.924-.196-.187-.462-.304-.798-.35a8.604 8.604 0 00-1.176-.07h-.84v-1.498h.84c.691 0 1.302.084 1.834.252.523.168.933.457 1.232.868.289.41.434.989.434 1.736zm-.126-5.609h-10.164v1.918h-1.176v-5.362h1.176v1.862H128v1.582zm.126-7.436c0 .766-.149 1.377-.448 1.834-.299.458-.723.784-1.274.98-.56.196-1.213.294-1.96.294h-4.298c-.747 0-1.386-.098-1.918-.294-.541-.205-.952-.532-1.232-.98-.289-.457-.434-1.068-.434-1.834 0-.765.145-1.372.434-1.82.289-.448.7-.77 1.232-.966.532-.205 1.171-.308 1.918-.308h4.312c.737 0 1.381.103 1.932.308.551.196.98.518 1.288.966.299.448.448 1.055.448 1.82zm-1.246 0c0-.42-.084-.737-.252-.952a1.317 1.317 0 00-.728-.434 4.9 4.9 0 00-1.106-.112h-4.97c-.42 0-.779.038-1.078.112-.308.075-.541.22-.7.434-.168.215-.252.532-.252.952 0 .42.084.742.252.966.159.215.392.36.7.434.299.075.658.112 1.078.112h4.97c.42 0 .789-.037 1.106-.112.308-.074.551-.219.728-.434.168-.224.252-.546.252-.966zm1.12-4.649h-11.34v-2.814c0-.681.126-1.222.378-1.624.243-.41.597-.709 1.064-.896.467-.186 1.031-.28 1.694-.28.597 0 1.115.108 1.554.322a2.29 2.29 0 011.022.924c.233.411.35.924.35 1.54v1.246H128v1.582zm-6.412-1.582v-.728c0-.457-.051-.816-.154-1.078a.984.984 0 00-.532-.56c-.261-.112-.625-.168-1.092-.168-.541 0-.957.042-1.246.126-.289.075-.49.238-.602.49-.112.252-.168.644-.168 1.176v.742h3.794zm6.538-8.042c0 .765-.149 1.377-.448 1.834a2.455 2.455 0 01-1.274.98c-.56.196-1.213.294-1.96.294h-4.298c-.747 0-1.386-.098-1.918-.294-.541-.205-.952-.532-1.232-.98-.289-.457-.434-1.069-.434-1.834 0-.765.145-1.372.434-1.82.289-.448.7-.77 1.232-.966.532-.205 1.171-.308 1.918-.308h4.312c.737 0 1.381.103 1.932.308.551.196.98.518 1.288.966.299.448.448 1.055.448 1.82zm-1.246 0c0-.42-.084-.737-.252-.952a1.312 1.312 0 00-.728-.434 4.843 4.843 0 00-1.106-.112h-4.97c-.42 0-.779.037-1.078.112-.308.075-.541.219-.7.434-.168.215-.252.532-.252.952 0 .42.084.742.252.966.159.215.392.359.7.434.299.075.658.112 1.078.112h4.97c.42 0 .789-.037 1.106-.112.308-.075.551-.219.728-.434.168-.224.252-.546.252-.966zm1.12-4.649h-11.34v-1.582h4.9v-2.912h-4.9v-1.582H128v1.582h-5.306v2.912H128v1.582zm0-7.232l-11.34-2.408v-1.526l11.34-2.422v1.498l-2.856.518v2.31l2.856.546v1.484zm-3.99-2.24v-1.89l-5.11.952 5.11.938zm4.116-11.308c0 .803-.168 1.428-.504 1.876-.336.439-.789.747-1.358.924a6.715 6.715 0 01-1.904.252h-4.004c-.765 0-1.433-.084-2.002-.252-.569-.177-1.008-.485-1.316-.924-.317-.448-.476-1.073-.476-1.876 0-.709.131-1.269.392-1.68.261-.42.635-.718 1.12-.896.485-.186 1.069-.28 1.75-.28h.896v1.498h-.798c-.42 0-.789.024-1.106.07-.327.038-.579.15-.756.336-.177.187-.266.5-.266.938 0 .448.098.775.294.98.187.206.457.341.812.406.345.056.751.084 1.218.084h4.494c.569 0 1.022-.046 1.358-.14.327-.093.56-.247.7-.462.14-.214.21-.504.21-.868 0-.429-.093-.737-.28-.924-.196-.186-.462-.303-.798-.35a8.767 8.767 0 00-1.176-.07h-.84v-1.498h.84c.691 0 1.302.084 1.834.252.523.168.933.458 1.232.868.289.411.434.99.434 1.736zm226 52.335c0 .803-.168 1.428-.504 1.876-.336.439-.789.747-1.358.924a6.715 6.715 0 01-1.904.252h-4.004c-.765 0-1.433-.084-2.002-.252-.569-.177-1.008-.485-1.316-.924-.317-.448-.476-1.073-.476-1.876 0-.709.131-1.269.392-1.68.261-.42.635-.718 1.12-.896.485-.186 1.069-.28 1.75-.28h.896v1.498h-.798c-.42 0-.789.024-1.106.07-.327.038-.579.15-.756.336-.177.187-.266.5-.266.938 0 .448.098.775.294.98.187.206.457.341.812.406.345.056.751.084 1.218.084h4.494c.569 0 1.022-.046 1.358-.14.327-.093.56-.247.7-.462.14-.214.21-.504.21-.868 0-.429-.093-.737-.28-.924-.196-.186-.462-.303-.798-.35a8.767 8.767 0 00-1.176-.07h-.84v-1.498h.84c.691 0 1.302.084 1.834.252.523.168.933.458 1.232.868.289.411.434.99.434 1.736zm-.126-5.609h-10.164v1.918h-1.176v-5.362h1.176v1.862H354v1.582zm.126-7.435c0 .766-.149 1.377-.448 1.834-.299.458-.723.784-1.274.98-.56.196-1.213.294-1.96.294h-4.298c-.747 0-1.386-.098-1.918-.294-.541-.205-.952-.532-1.232-.98-.289-.457-.434-1.068-.434-1.834 0-.765.145-1.372.434-1.82.289-.448.7-.77 1.232-.966.532-.205 1.171-.308 1.918-.308h4.312c.737 0 1.381.103 1.932.308.551.196.98.518 1.288.966.299.448.448 1.055.448 1.82zm-1.246 0c0-.42-.084-.737-.252-.952a1.317 1.317 0 00-.728-.434 4.9 4.9 0 00-1.106-.112h-4.97c-.42 0-.779.038-1.078.112-.308.075-.541.22-.7.434-.168.215-.252.532-.252.952 0 .42.084.742.252.966.159.215.392.36.7.434.299.075.658.112 1.078.112h4.97c.42 0 .789-.037 1.106-.112.308-.074.551-.219.728-.434.168-.224.252-.546.252-.966zm1.12-4.649h-11.34v-2.814c0-.681.126-1.222.378-1.624.243-.41.597-.709 1.064-.896.467-.186 1.031-.28 1.694-.28.597 0 1.115.108 1.554.322a2.29 2.29 0 011.022.924c.233.411.35.924.35 1.54v1.246H354v1.582zm-6.412-1.582v-.728c0-.457-.051-.816-.154-1.078a.984.984 0 00-.532-.56c-.261-.112-.625-.168-1.092-.168-.541 0-.957.042-1.246.126-.289.075-.49.238-.602.49-.112.252-.168.644-.168 1.176v.742h3.794zm6.538-8.042c0 .765-.149 1.376-.448 1.834a2.455 2.455 0 01-1.274.98c-.56.196-1.213.294-1.96.294h-4.298c-.747 0-1.386-.098-1.918-.294-.541-.206-.952-.532-1.232-.98-.289-.458-.434-1.069-.434-1.834 0-.766.145-1.372.434-1.82.289-.448.7-.77 1.232-.966.532-.206 1.171-.308 1.918-.308h4.312c.737 0 1.381.102 1.932.308.551.196.98.518 1.288.966.299.448.448 1.054.448 1.82zm-1.246 0c0-.42-.084-.738-.252-.952a1.306 1.306 0 00-.728-.434 4.843 4.843 0 00-1.106-.112h-4.97c-.42 0-.779.037-1.078.112-.308.074-.541.219-.7.434-.168.214-.252.532-.252.952 0 .42.084.742.252.966.159.214.392.359.7.434.299.074.658.112 1.078.112h4.97a4.9 4.9 0 001.106-.112c.308-.075.551-.22.728-.434.168-.224.252-.546.252-.966zm1.12-4.649h-11.34v-1.582h4.9v-2.912h-4.9v-1.582H354v1.582h-5.306v2.912H354v1.582zm0-7.232l-11.34-2.408v-1.526l11.34-2.422v1.498l-2.856.518v2.31l2.856.546v1.484zm-3.99-2.24v-1.89l-5.11.952 5.11.938zm3.99-8.466h-11.34v-2.464c0-.84.131-1.502.392-1.988a2.149 2.149 0 011.148-1.05c.513-.214 1.153-.322 1.918-.322h4.172c.803 0 1.479.108 2.03.322.551.206.971.546 1.26 1.022.28.467.42 1.097.42 1.89v2.59zm-1.134-1.582v-.896c0-.578-.112-.989-.336-1.232-.224-.242-.551-.387-.98-.434a12.246 12.246 0 00-1.554-.084h-3.682c-.588 0-1.064.038-1.428.112-.364.075-.63.238-.798.49-.168.252-.252.649-.252 1.19v.854h9.03z" fill="#1A232F"/></g><defs><clipPath id="clip0_2692_9631"><path fill="#fff" d="M0 0h470v470H0z"/></clipPath></defs></svg>