<svg width="101" height="189" fill="none" xmlns="http://www.w3.org/2000/svg"><g clip-path="url(#clip0_2692_19441)"><path d="M100.513 94.357V10.193c0-1.092-.079-2.21-.291-3.303-.238-1.225-.714-2.264-2.512-2.077-1.085.106-2.196 0-3.307.026-.688.027-1.164-.16-1.455-.852-.37-.905-.872-1.731-1.27-2.637C91.309.525 90.7.1 89.802.125c-2.725.053-5.476.133-8.2.16-.873 0-1.323.56-1.56 1.225-.556 1.678-1.746 1.838-3.28 1.838-22.695-.027-45.417 0-68.112.027-2.327 0-4.681.053-7.009.08C.026 3.48 0 3.507 0 5.238c0 6.445.026 12.864.026 19.31v3.196c0 .746-.079 1.465.662 2.024.264.187.264.8.264 1.225.027 19.363.027 38.7.053 58.063 0 22.772.027 45.544.027 68.316 0 .72.185 1.519-.767 1.918-.186.08-.265.639-.265.959 0 7.777 0 15.528.026 23.305 0 1.678.106 1.678 1.693 1.678 9.575 0 19.124.026 28.7.026 11.241.027 22.483.027 33.724.054 4.63 0 9.258.026 13.887 0 .794 0 1.402.186 1.614 1.038.476 1.785 1.692 2.184 3.412 2.078 2.142-.16 4.311-.053 6.48 0 1.058.027 1.746-.373 2.196-1.358.37-.799.846-1.572 1.216-2.344.318-.639.768-.906 1.482-.906 1.137.027 2.3.027 3.438.027 1.323-.027 2.143-.693 2.354-2.024.159-1.012.238-2.025.238-3.037v-84.43h.053zM91.229 3.002c-.026-.133-.053-.24-.08-.373.027.16.054.266.08.373.159.106.45.16.53.32.687 1.091 1.375 2.13 1.295 3.542-.08 1.81 0 3.648 0 5.46v153.812c0 5.274-.026 10.574-.026 15.847 0 1.598-.714 2.85-1.958 4.075.053-.852.106-1.464.106-2.077V26.706c.027-7.884.053-15.794.053-23.704zm-11.559.106c.212-.026.423-.026.608-.053.053.56.16 1.145.16 1.705-.08 7.75-.292 15.527-.292 23.278-.026 31.215 0 62.404.053 93.619.026 15.208.159 30.443.212 45.651.026 5.513.026 11 .026 16.513 0 .586-.106 1.172-.159 1.731-.132 0-.29 0-.423.027-.106-.506-.29-1.039-.29-1.545-.027-3.409 0-6.845 0-10.254 0-2.264-.054-4.528 0-6.792.026-.958-.371-1.278-1.244-1.225-.793.027-1.587 0-2.38 0-22.669 0-45.31.027-67.98.053H4.18c-.053-.958-.106-1.757-.106-2.53.027-7.058.08-14.116.08-21.174.026-38.833.026-77.665.026-116.524 0-2.478-.158-2.318 2.301-2.318h73.164c.026-6.845.026-13.503.026-20.162zM3.412 166.296h1.455c24.123 0 48.22-.027 72.343-.027 1.508 0 1.534 0 1.534 1.545v15.448c0 .426-.08.852-.106 1.225h-8.2c-16.875 0-33.777 0-50.653-.027-5.21 0-10.395 0-15.606-.026-2.248 0-2.327-.133-2.354-2.317-.026-4.715-.08-9.402-.08-14.117.027-8.043.107-16.06.107-24.103 0-45.864-.027-91.702-.053-137.566 0-1.811.264-2.104 2.063-2.104 4.55-.027 9.072-.053 13.622-.053 20.156 0 40.285.026 60.44.053.238 0 .503.053.767.08v18.297H3.44c-.027 47.969-.027 95.75-.027 143.692zm80.887 21.44V1.004h5.951c.027.426.08.773.08 1.119.026 4.128.026 8.256.026 12.385 0 51.537.027 103.074.027 154.611 0 5.726 0 11.453-.027 17.179 0 1.465-.026 1.465-1.507 1.465-1.455-.027-2.963-.027-4.55-.027zm9.416-4.714V6.997c0-1.305.027-1.332 1.35-1.332h2.645c1.48.027 1.693.16 1.798 1.651.133 2.291.212 4.608.212 6.925.026 50.898.026 101.796.026 152.694 0 4.182 0 8.337-.026 12.518 0 .746-.053 1.518-.159 2.237-.132.826-.582 1.359-1.508 1.332-1.401-.026-2.777 0-4.337 0zM83.506.977V2.63c0 8.123.027 16.247.027 24.37 0 46.237 0 92.474-.026 138.738v20.641c0 1.252-.08 1.252-1.217 1.358-1.111.107-1.085-.612-1.111-1.331v-.533c0-10.574.026-21.121.026-31.695V3.721c0-.586.027-1.145.027-1.731 0-.64.29-.986.978-.986.37-.027.741-.027 1.296-.027zM1.323 184.567c-.08-.027-.16-.027-.265-.053.08-.347.132-.693.212-1.039.053 0 .132.027.185.027-.053.372-.08.719-.132 1.065zm.132-160.578c-.027 0-.053-.026-.053-.026v-.986h.053v1.012zM1.19 4.44c0-.079 0-.132-.026-.212.026.026.053.08.053.106.026.027 0 .054-.027.107z" fill="#000"/></g><defs><clipPath id="clip0_2692_19441"><path fill="#fff" transform="matrix(0 1 1 0 0 .125)" d="M0 0h188.33v100.513H0z"/></clipPath></defs></svg>