<svg width="190" height="101" fill="none" xmlns="http://www.w3.org/2000/svg"><g clip-path="url(#clip0_2692_19439)"><path d="M95.069 100.513H10.905c-1.092 0-2.21-.079-3.303-.291-1.225-.238-2.264-.714-2.077-2.512.106-1.085 0-2.196.026-3.307.027-.688-.16-1.164-.852-1.455-.905-.37-1.731-.872-2.637-1.27-.825-.37-1.252-.978-1.225-1.877.053-2.725.133-5.476.16-8.2 0-.873.56-1.323 1.225-1.56 1.678-.556 1.838-1.746 1.838-3.28-.027-22.695 0-45.417.026-68.112 0-2.327.054-4.681.08-7.009C4.193.026 4.22 0 5.951 0c6.445 0 12.864.026 19.31.026h3.196c.745 0 1.465-.079 2.024.662.186.264.799.264 1.225.264 19.363.027 38.7.027 58.063.053 22.772 0 45.544.027 68.316.027.719 0 1.519.185 1.918-.767.08-.186.639-.265.959-.265 7.777 0 15.528 0 23.305.026 1.678 0 1.678.106 1.678 1.693 0 9.575.026 19.124.026 28.7.027 11.241.027 22.483.054 33.724 0 4.63.026 9.258 0 13.887 0 .794.186 1.402 1.038 1.614 1.785.476 2.184 1.692 2.078 3.412-.16 2.142-.053 4.311 0 6.48.026 1.058-.373 1.746-1.359 2.196-.799.37-1.571.846-2.343 1.216-.64.318-.906.768-.906 1.482.027 1.137.027 2.3.027 3.438-.027 1.323-.693 2.143-2.024 2.354a19.554 19.554 0 01-3.037.238h-84.43v.053zM3.714 91.229c-.134-.026-.24-.053-.373-.08.16.027.266.054.373.08.106.159.16.45.32.53 1.091.687 2.13 1.375 3.542 1.295 1.81-.08 3.648 0 5.46 0h153.812c5.274 0 10.574-.026 15.847-.026 1.598 0 2.85-.714 4.075-1.958-.852.053-1.465.106-2.077.106H27.418c-7.884.027-15.794.053-23.704.053zM3.82 79.67c-.026.212-.026.423-.053.608.56.053 1.145.16 1.704.16 7.751-.08 15.528-.292 23.279-.292 31.215-.026 62.404 0 93.619.053 15.208.027 30.443.159 45.651.212 5.513.026 11 .026 16.513.026.586 0 1.172-.106 1.731-.159 0-.132 0-.29.027-.423-.506-.106-1.039-.29-1.545-.29-3.409-.027-6.845 0-10.254 0-2.264 0-4.528-.054-6.792 0-.959.026-1.278-.371-1.225-1.244.027-.793 0-1.587 0-2.38 0-22.669.027-45.31.053-67.98V4.18c-.958-.053-1.757-.106-2.53-.106-7.058.027-14.116.08-21.174.08-38.833.026-77.665.026-116.525.026-2.477 0-2.317-.158-2.317 2.301v73.164c-6.845.026-13.503.026-20.162.026zM167.008 3.412v1.455c0 24.123-.027 48.22-.027 72.343 0 1.508 0 1.534 1.545 1.534h15.448c.426 0 .852-.08 1.225-.106v-8.2c0-16.875 0-33.777-.027-50.653 0-5.21 0-10.395-.026-15.606 0-2.248-.133-2.327-2.317-2.354-4.715-.026-9.402-.08-14.117-.08-8.043.027-16.06.107-24.104.107-45.864 0-91.701-.027-137.565-.053-1.811 0-2.104.264-2.104 2.063-.027 4.55-.053 9.072-.053 13.622 0 20.156.026 40.285.053 60.44 0 .238.053.503.08.767h18.297V3.44c47.968-.027 95.75-.027 143.692-.027zm21.44 80.887H1.716v5.951c.426.027.772.08 1.119.08 4.128.026 8.256.026 12.385.026 51.537 0 103.074.027 154.611.027 5.726 0 11.453 0 17.179-.027 1.465 0 1.465-.026 1.465-1.507-.027-1.455-.027-2.963-.027-4.55zm-4.714 9.416H7.709c-1.305 0-1.332.027-1.332 1.35v2.645c.027 1.48.16 1.693 1.651 1.798 2.29.133 4.608.212 6.925.212 50.898.026 101.796.026 152.694.026 4.182 0 8.337 0 12.518-.026.746 0 1.518-.053 2.237-.159.826-.132 1.359-.582 1.332-1.508-.027-1.401 0-2.777 0-4.337zM1.689 83.506h1.652c8.123 0 16.247.027 24.37.027 46.237 0 92.474 0 138.738-.026h20.641c1.252 0 1.252-.08 1.358-1.217.107-1.111-.612-1.085-1.331-1.111h-.533c-10.574 0-21.121.026-31.695.026H4.433c-.586 0-1.146.027-1.731.027-.64 0-.986.29-.986.978-.027.37-.027.741-.027 1.296zM185.28 1.323c-.027-.08-.027-.16-.053-.265-.347.08-.693.132-1.039.212 0 .053.027.132.027.185.372-.053.719-.08 1.065-.132zm-160.578.132c0-.027-.026-.053-.026-.053h-.986v.053h1.012zM5.151 1.19c-.079 0-.132 0-.212-.026.026.026.08.053.106.053.027.026.054 0 .107-.027z" fill="#000"/></g><defs><clipPath id="clip0_2692_19439"><path fill="#fff" transform="translate(.836)" d="M0 0h188.33v100.513H0z"/></clipPath></defs></svg>