<svg width="470" height="470" fill="none" xmlns="http://www.w3.org/2000/svg"><g clip-path="url(#clip0_2692_14825)"><path d="M161.308 147.551l-.043 173.461c-.127 3.895 1.355 6.393 5.377 6.562l136.415-.127c3.599.042 5.504-1.736 5.716-5.208l-.043-174.688c-.169-2.837-1.481-4.658-4.276-5.123H167.235c-3.641 0-5.716 1.609-5.927 5.123z" stroke="#000" stroke-miterlimit="10" stroke-linecap="round" stroke-linejoin="round"/><path d="M320.277 282.511a3.937 3.937 0 10-7.874-.118 3.937 3.937 0 007.874.118z" fill="#fff"/><path d="M316.31 285.743a3.302 3.302 0 10.001-6.605 3.302 3.302 0 00-.001 6.605z" fill="#fff"/><path d="M316.31 285.743a3.302 3.302 0 10.001-6.605 3.302 3.302 0 00-.001 6.605z" stroke="#000" stroke-miterlimit="10" stroke-linecap="round" stroke-linejoin="round"/><path d="M320.277 282.511a3.937 3.937 0 10-7.874-.118 3.937 3.937 0 007.874.118z" stroke="#000" stroke-miterlimit="10" stroke-linecap="round" stroke-linejoin="round"/><path d="M320.301 187.52a3.938 3.938 0 10-7.875-.12 3.938 3.938 0 007.875.12z" fill="#fff"/><path d="M316.31 190.777a3.303 3.303 0 100-6.607 3.303 3.303 0 000 6.607z" fill="#fff"/><path d="M316.31 190.777a3.303 3.303 0 100-6.607 3.303 3.303 0 000 6.607z" stroke="#000" stroke-miterlimit="10" stroke-linecap="round" stroke-linejoin="round"/><path d="M320.301 187.52a3.938 3.938 0 10-7.875-.12 3.938 3.938 0 007.875.12z" stroke="#000" stroke-miterlimit="10" stroke-linecap="round" stroke-linejoin="round"/><path d="M157.715 187.514a3.938 3.938 0 10-7.875-.12 3.938 3.938 0 007.875.12z" fill="#fff"/><path fill-rule="evenodd" clip-rule="evenodd" d="M153.685 184.172a3.307 3.307 0 013.303 3.302 3.307 3.307 0 01-3.303 3.303 3.307 3.307 0 01-3.302-3.303c.042-1.82 1.524-3.302 3.302-3.302z" fill="#fff"/><path d="M153.685 184.172a3.307 3.307 0 013.303 3.302 3.307 3.307 0 01-3.303 3.303 3.307 3.307 0 01-3.302-3.303c.042-1.82 1.524-3.302 3.302-3.302z" stroke="#000" stroke-miterlimit="10" stroke-linecap="round" stroke-linejoin="round"/><path d="M157.715 187.514a3.938 3.938 0 10-7.875-.12 3.938 3.938 0 007.875.12z" stroke="#000" stroke-miterlimit="10" stroke-linecap="round" stroke-linejoin="round"/><path d="M157.691 282.504a3.937 3.937 0 10-7.874-.12 3.937 3.937 0 007.874.12z" fill="#fff"/><path fill-rule="evenodd" clip-rule="evenodd" d="M153.685 279.18a3.307 3.307 0 013.303 3.302 3.306 3.306 0 01-3.303 3.302 3.306 3.306 0 01-3.302-3.302c0-1.82 1.524-3.302 3.302-3.302z" fill="#fff"/><path d="M153.685 279.18a3.307 3.307 0 013.303 3.302 3.306 3.306 0 01-3.303 3.302 3.306 3.306 0 01-3.302-3.302c0-1.82 1.524-3.302 3.302-3.302z" stroke="#000" stroke-miterlimit="10" stroke-linecap="round" stroke-linejoin="round"/><path d="M157.691 282.504a3.937 3.937 0 10-7.874-.12 3.937 3.937 0 007.874.12z" stroke="#000" stroke-miterlimit="10" stroke-linecap="round" stroke-linejoin="round"/><path d="M324.861 211.988H145.219v45.98h179.642v-45.98z" fill="#fff"/><mask id="mask0_2692_14825" style="mask-type:luminance" maskUnits="userSpaceOnUse" x="143" y="142" width="184" height="186"><path d="M148.774 178.67c-4.065.762-5.292 3.725-4.911 7.874v96.913c-.212 4.404 1.312 7.071 4.911 7.664 7.494.931 11.897 4.911 12.532 12.701l-.085 17.19c-.127 3.895 1.355 6.393 5.377 6.562l136.415-.127c3.599.042 5.504-1.736 5.716-5.208l-.042-18.756c.931-7.409 5.123-11.6 12.616-12.489 4.065-.212 4.912-3.133 4.954-7.664l-.042-97.548c.211-4.149-1.44-6.477-5.039-7.028-7.324-.847-11.939-4.572-12.405-12.617v-18.586c-.169-2.837-1.482-4.658-4.276-5.123H167.234c-3.642 0-5.716 1.609-5.928 5.165v18.587c-.55 7.324-4.488 11.727-12.532 12.49z" fill="#fff"/></mask><g mask="url(#mask0_2692_14825)"><mask id="mask1_2692_14825" style="mask-type:luminance" maskUnits="userSpaceOnUse" x="145" y="211" width="180" height="47"><path d="M324.861 211.99H145.219v45.98h179.642v-45.98z" fill="#fff"/></mask><g mask="url(#mask1_2692_14825)"><path d="M325.073 214.107H145.219v41.831h179.854v-41.831z" fill="#fff"/></g><mask id="mask2_2692_14825" style="mask-type:luminance" maskUnits="userSpaceOnUse" x="145" y="211" width="180" height="47"><path d="M324.861 211.99H145.219v45.98h179.642v-45.98z" fill="#fff"/></mask><g mask="url(#mask2_2692_14825)"><path d="M325.073 214.107H145.219v41.831h179.854v-41.831z" stroke="#000" stroke-miterlimit="10" stroke-linejoin="round"/></g><mask id="mask3_2692_14825" style="mask-type:luminance" maskUnits="userSpaceOnUse" x="145" y="211" width="180" height="47"><path d="M324.861 211.99H145.219v45.98h179.642v-45.98z" fill="#fff"/></mask><g mask="url(#mask3_2692_14825)"><path d="M154.193 242.009a7.24 7.24 0 100-14.48 7.24 7.24 0 000 14.48z" fill="#fff"/></g></g><mask id="mask4_2692_14825" style="mask-type:luminance" maskUnits="userSpaceOnUse" x="143" y="142" width="184" height="186"><path d="M148.774 178.67c-4.065.762-5.292 3.725-4.911 7.874v96.913c-.212 4.404 1.312 7.071 4.911 7.664 7.494.931 11.897 4.911 12.532 12.701l-.085 17.19c-.127 3.895 1.355 6.393 5.377 6.562l136.415-.127c3.599.042 5.504-1.736 5.716-5.208l-.042-18.756c.931-7.409 5.123-11.6 12.616-12.489 4.065-.212 4.912-3.133 4.954-7.664l-.042-97.548c.211-4.149-1.44-6.477-5.039-7.028-7.324-.847-11.939-4.572-12.405-12.617v-18.586c-.169-2.837-1.482-4.658-4.276-5.123H167.234c-3.642 0-5.716 1.609-5.928 5.165v18.587c-.55 7.324-4.488 11.727-12.532 12.49z" fill="#fff"/></mask><g mask="url(#mask4_2692_14825)"><mask id="mask5_2692_14825" style="mask-type:luminance" maskUnits="userSpaceOnUse" x="146" y="227" width="16" height="16"><path d="M154.193 242.007a7.24 7.24 0 100-14.48 7.24 7.24 0 000 14.48z" fill="#fff"/></mask><g mask="url(#mask5_2692_14825)"><mask id="mask6_2692_14825" style="mask-type:luminance" maskUnits="userSpaceOnUse" x="145" y="211" width="180" height="47"><path d="M324.861 211.988H145.219v45.98h179.642v-45.98z" fill="#fff"/></mask><g mask="url(#mask6_2692_14825)"><path fill-rule="evenodd" clip-rule="evenodd" d="M154.193 228.84c3.26 0 5.927 2.667 5.927 5.927s-2.667 5.928-5.927 5.928-5.927-2.668-5.927-5.928a5.917 5.917 0 015.927-5.927z" fill="#fff"/></g><mask id="mask7_2692_14825" style="mask-type:luminance" maskUnits="userSpaceOnUse" x="145" y="211" width="180" height="47"><path d="M324.861 211.988H145.219v45.98h179.642v-45.98z" fill="#fff"/></mask><g mask="url(#mask7_2692_14825)"><path d="M154.193 228.84c3.26 0 5.927 2.667 5.927 5.927s-2.667 5.928-5.927 5.928-5.927-2.668-5.927-5.928a5.917 5.917 0 015.927-5.927z" stroke="#000" stroke-miterlimit="10" stroke-linecap="round" stroke-linejoin="round"/></g><mask id="mask8_2692_14825" style="mask-type:luminance" maskUnits="userSpaceOnUse" x="145" y="211" width="180" height="47"><path d="M324.861 211.988H145.219v45.98h179.642v-45.98z" fill="#fff"/></mask><g mask="url(#mask8_2692_14825)"><path opacity=".358" fill-rule="evenodd" clip-rule="evenodd" d="M150.891 234.766l1.651-2.879h3.26l1.651 2.879-1.651 2.836h-3.26l-1.651-2.836z" fill="#fff"/><path d="M150.891 234.766l1.651-2.879h3.26l1.651 2.879-1.651 2.836h-3.26l-1.651-2.836z" stroke="#000" stroke-miterlimit="10" stroke-linejoin="round"/></g></g></g><mask id="mask9_2692_14825" style="mask-type:luminance" maskUnits="userSpaceOnUse" x="143" y="142" width="184" height="186"><path d="M148.774 178.67c-4.065.762-5.292 3.725-4.911 7.874v96.913c-.212 4.404 1.312 7.071 4.911 7.664 7.494.931 11.897 4.911 12.532 12.701l-.085 17.19c-.127 3.895 1.355 6.393 5.377 6.562l136.415-.127c3.599.042 5.504-1.736 5.716-5.208l-.042-18.756c.931-7.409 5.123-11.6 12.616-12.489 4.065-.212 4.912-3.133 4.954-7.664l-.042-97.548c.211-4.149-1.44-6.477-5.039-7.028-7.324-.847-11.939-4.572-12.405-12.617v-18.586c-.169-2.837-1.482-4.658-4.276-5.123H167.234c-3.642 0-5.716 1.609-5.928 5.165v18.587c-.55 7.324-4.488 11.727-12.532 12.49z" fill="#fff"/></mask><g mask="url(#mask9_2692_14825)"><mask id="mask10_2692_14825" style="mask-type:luminance" maskUnits="userSpaceOnUse" x="145" y="211" width="180" height="47"><path d="M324.861 211.99H145.219v45.98h179.642v-45.98z" fill="#fff"/></mask><g mask="url(#mask10_2692_14825)"><path d="M154.193 242.009a7.24 7.24 0 100-14.48 7.24 7.24 0 000 14.48z" stroke="#000" stroke-miterlimit="10" stroke-linecap="round" stroke-linejoin="round"/></g><mask id="mask11_2692_14825" style="mask-type:luminance" maskUnits="userSpaceOnUse" x="229" y="217" width="112" height="185"><path d="M297.96 217.739l-68.749 165.972 42.481 17.596 68.749-165.971-42.481-17.597z" fill="#fff"/></mask><g mask="url(#mask11_2692_14825)"><path d="M322.43 237.774a7.24 7.24 0 00-3.918-9.459 7.241 7.241 0 103.918 9.459z" fill="#fff"/></g></g><mask id="mask12_2692_14825" style="mask-type:luminance" maskUnits="userSpaceOnUse" x="143" y="142" width="184" height="186"><path d="M148.774 178.67c-4.065.762-5.292 3.725-4.911 7.874v96.913c-.212 4.404 1.312 7.071 4.911 7.664 7.494.931 11.897 4.911 12.532 12.701l-.085 17.19c-.127 3.895 1.355 6.393 5.377 6.562l136.415-.127c3.599.042 5.504-1.736 5.716-5.208l-.042-18.756c.931-7.409 5.123-11.6 12.616-12.489 4.065-.212 4.912-3.133 4.954-7.664l-.042-97.548c.211-4.149-1.44-6.477-5.039-7.028-7.324-.847-11.939-4.572-12.405-12.617v-18.586c-.169-2.837-1.482-4.658-4.276-5.123H167.234c-3.642 0-5.716 1.609-5.928 5.165v18.587c-.55 7.324-4.488 11.727-12.532 12.49z" fill="#fff"/></mask><g mask="url(#mask12_2692_14825)"><mask id="mask13_2692_14825" style="mask-type:luminance" maskUnits="userSpaceOnUse" x="308" y="227" width="15" height="16"><path d="M322.429 237.772a7.24 7.24 0 10-9.459 3.919 7.24 7.24 0 009.459-3.919z" fill="#fff"/></mask><g mask="url(#mask13_2692_14825)"><mask id="mask14_2692_14825" style="mask-type:luminance" maskUnits="userSpaceOnUse" x="145" y="211" width="180" height="47"><path d="M324.861 211.99H145.219v45.98h179.642v-45.98z" fill="#fff"/></mask><g mask="url(#mask14_2692_14825)"><path fill-rule="evenodd" clip-rule="evenodd" d="M315.716 229.053c3.261 0 5.928 2.667 5.928 5.927s-2.667 5.928-5.928 5.928c-3.26 0-5.927-2.668-5.927-5.928s2.667-5.927 5.927-5.927z" fill="#fff"/></g><mask id="mask15_2692_14825" style="mask-type:luminance" maskUnits="userSpaceOnUse" x="145" y="211" width="180" height="47"><path d="M324.861 211.99H145.219v45.98h179.642v-45.98z" fill="#fff"/></mask><g mask="url(#mask15_2692_14825)"><path d="M315.716 229.053c3.261 0 5.928 2.667 5.928 5.927s-2.667 5.928-5.928 5.928c-3.26 0-5.927-2.668-5.927-5.928s2.667-5.927 5.927-5.927z" stroke="#000" stroke-miterlimit="10" stroke-linecap="round" stroke-linejoin="round"/></g><mask id="mask16_2692_14825" style="mask-type:luminance" maskUnits="userSpaceOnUse" x="145" y="211" width="180" height="47"><path d="M324.861 211.99H145.219v45.98h179.642v-45.98z" fill="#fff"/></mask><g mask="url(#mask16_2692_14825)"><path opacity=".358" fill-rule="evenodd" clip-rule="evenodd" d="M312.414 234.979l1.651-2.836h3.303l1.609 2.836-1.609 2.837h-3.303l-1.651-2.837z" fill="#fff"/><path d="M312.414 234.979l1.651-2.836h3.303l1.609 2.836-1.609 2.837h-3.303l-1.651-2.837z" stroke="#000" stroke-miterlimit="10" stroke-linejoin="round"/></g></g></g><mask id="mask17_2692_14825" style="mask-type:luminance" maskUnits="userSpaceOnUse" x="143" y="142" width="184" height="186"><path d="M148.774 178.67c-4.065.762-5.292 3.725-4.911 7.874v96.913c-.212 4.404 1.312 7.071 4.911 7.664 7.494.931 11.897 4.911 12.532 12.701l-.085 17.19c-.127 3.895 1.355 6.393 5.377 6.562l136.415-.127c3.599.042 5.504-1.736 5.716-5.208l-.042-18.756c.931-7.409 5.123-11.6 12.616-12.489 4.065-.212 4.912-3.133 4.954-7.664l-.042-97.548c.211-4.149-1.44-6.477-5.039-7.028-7.324-.847-11.939-4.572-12.405-12.617v-18.586c-.169-2.837-1.482-4.658-4.276-5.123H167.234c-3.642 0-5.716 1.609-5.928 5.165v18.587c-.55 7.324-4.488 11.727-12.532 12.49z" fill="#fff"/></mask><g mask="url(#mask17_2692_14825)"><mask id="mask18_2692_14825" style="mask-type:luminance" maskUnits="userSpaceOnUse" x="229" y="217" width="112" height="185"><path d="M297.96 217.737l-68.749 165.972 42.481 17.596 68.749-165.971-42.481-17.597z" fill="#fff"/></mask><g mask="url(#mask18_2692_14825)"><path d="M322.43 237.772a7.24 7.24 0 10-13.378-5.54 7.24 7.24 0 0013.378 5.54z" stroke="#000" stroke-miterlimit="10" stroke-linecap="round" stroke-linejoin="round"/></g></g><path d="M324.861 211.988H145.219v45.98h179.642v-45.98z" stroke="#000" stroke-miterlimit="10" stroke-linejoin="round"/><path d="M148.774 178.67c-4.065.762-5.292 3.725-4.911 7.874v96.913c-.212 4.404 1.312 7.071 4.911 7.664 7.494.931 11.897 4.911 12.532 12.701l-.085 17.19c-.127 3.895 1.355 6.393 5.377 6.562l136.415-.127c3.599.042 5.504-1.736 5.716-5.208l-.042-18.756c.931-7.409 5.123-11.6 12.616-12.489 4.065-.212 4.912-3.133 4.954-7.664l-.042-97.548c.211-4.149-1.44-6.477-5.039-7.028-7.324-.847-11.939-4.572-12.405-12.617v-18.586c-.169-2.837-1.482-4.658-4.276-5.123H167.234c-3.642 0-5.716 1.609-5.928 5.165v18.587c-.55 7.324-4.488 11.727-12.532 12.49z" stroke="#000" stroke-miterlimit="10" stroke-linecap="round" stroke-linejoin="round"/><path d="M148.819 178.837c-4.064.762-5.292 3.726-4.911 7.875v96.913c-.212 4.403 1.312 7.071 4.911 7.663 7.452.932 11.897 4.912 12.532 12.702l-.084 17.189c-.127 3.896 1.355 6.394 5.377 6.563l136.415-.127c3.598.042 5.504-1.736 5.715-5.208l-.042-18.756c.931-7.409 5.123-11.6 12.617-12.49 4.064-.211 4.911-3.133 4.953-7.663l-.042-97.548c.254-4.149-1.439-6.478-5.038-7.028-7.325-.847-11.94-4.573-12.405-12.617v-18.586c-.17-2.837-1.482-4.658-4.277-5.123l-137.219-.043c-3.641 0-5.716 1.609-5.927 5.166v18.586c-.635 7.409-4.573 11.77-12.575 12.532zm184.766-27.223V318.47c0 11.347-5.039 16.808-14.946 16.554H151.741c-10.543-.042-15.285-5.927-15.327-16.554V151.529c0-10.627 4.657-16.427 14.861-16.554l167.66.042c10.119.085 14.904 5.716 14.65 16.597z" stroke="#000" stroke-miterlimit="10" stroke-linecap="round" stroke-linejoin="round"/><path fill-rule="evenodd" clip-rule="evenodd" d="M148.819 178.837c-4.064.762-5.292 3.726-4.911 7.875v96.913c-.212 4.403 1.312 7.071 4.911 7.663 7.452.932 11.897 4.912 12.532 12.702l-.084 17.189c-.127 3.896 1.355 6.394 5.377 6.563l136.415-.127c3.598.042 5.504-1.736 5.715-5.208l-.042-18.756c.931-7.409 5.123-11.6 12.617-12.49 4.064-.211 4.911-3.133 4.953-7.663l-.042-97.548c.254-4.149-1.439-6.478-5.038-7.028-7.325-.847-11.94-4.573-12.405-12.617v-18.586c-.17-2.837-1.482-4.658-4.277-5.123l-137.219-.043c-3.641 0-5.716 1.609-5.927 5.166v18.586c-.635 7.409-4.573 11.77-12.575 12.532zm184.766-27.223V318.47c0 11.347-5.039 16.808-14.946 16.554H151.741c-10.543-.042-15.285-5.927-15.327-16.554V151.529c0-10.627 4.657-16.427 14.861-16.554l167.66.042c10.119.085 14.904 5.716 14.65 16.597z" fill="#fff"/><path d="M148.865 175.155c-6.054.339-9.018 4.403-8.637 12.405v95.219c-.339 8.045 2.667 12.024 8.595 12.363 5.546.678 8.383 3.599 8.594 8.722l-.084 18.629c.381 5.631 3.175 8.722 8.721 8.849l137.812-.127c5.547-.17 8.383-3.218 8.891-8.764v-18.756c.17-4.742 2.795-7.833 8.637-8.722 5.504-.381 8.468-3.43 8.638-9.569l-.043-101.4c-.635-5.42-3.472-8.426-8.595-8.892-5.673-.677-8.256-3.81-8.594-8.764l.042-18.713c-.635-5.123-3.091-8.172-7.706-8.722l-136.711-.042c-7.409-.085-10.838 3.302-10.965 9.611v17.485c-.085 5.462-2.964 8.468-8.595 9.188z" stroke="#000" stroke-miterlimit="10" stroke-linecap="round" stroke-linejoin="round"/><path d="M150.004 175.831c-5.97.339-8.891 4.319-8.51 12.278v94.161c-.339 7.96 2.625 11.897 8.468 12.236 5.461.677 8.256 3.556 8.467 8.637l-.084 18.417c.381 5.547 3.133 8.637 8.594 8.764l135.907-.127c5.462-.169 8.298-3.175 8.764-8.679v-18.544c.17-4.7 2.752-7.748 8.51-8.637 5.42-.381 8.383-3.387 8.51-9.484l-.042-100.258c-.635-5.335-3.43-8.298-8.468-8.806-5.588-.678-8.171-3.768-8.51-8.68l.042-18.502c-.635-5.038-3.006-8.086-7.578-8.594l-134.806-.043c-7.325-.084-10.712 3.26-10.796 9.526v17.275c-.043 5.334-2.922 8.298-8.468 9.06z" stroke="#000" stroke-miterlimit="10" stroke-linecap="round" stroke-linejoin="round"/><path fill-rule="evenodd" clip-rule="evenodd" d="M148.823 159.066a7.391 7.391 0 017.41 7.41 7.391 7.391 0 01-7.41 7.409 7.39 7.39 0 01-7.409-7.409c0-4.065 3.345-7.41 7.409-7.41z" fill="#fff"/><path fill-rule="evenodd" clip-rule="evenodd" d="M148.822 162.453a4.065 4.065 0 11-4.064 4.065 4.065 4.065 0 014.064-4.065z" fill="#fff"/><path d="M148.822 162.453a4.065 4.065 0 11-4.064 4.065 4.065 4.065 0 014.064-4.065z" stroke="#000" stroke-miterlimit="10" stroke-linecap="round" stroke-linejoin="round"/><path d="M148.823 159.066a7.391 7.391 0 017.41 7.41 7.391 7.391 0 01-7.41 7.409 7.39 7.39 0 01-7.409-7.409c0-4.065 3.345-7.41 7.409-7.41z" stroke="#000" stroke-miterlimit="10" stroke-linecap="round" stroke-linejoin="round"/><path fill-rule="evenodd" clip-rule="evenodd" d="M321.308 159.066a7.39 7.39 0 017.409 7.41 7.39 7.39 0 01-7.409 7.409 7.391 7.391 0 01-7.41-7.409c0-4.065 3.345-7.41 7.41-7.41z" fill="#fff"/><path fill-rule="evenodd" clip-rule="evenodd" d="M321.307 162.453a4.065 4.065 0 010 8.129 4.065 4.065 0 010-8.129z" fill="#fff"/><path d="M321.307 162.453a4.065 4.065 0 010 8.129 4.065 4.065 0 010-8.129z" stroke="#000" stroke-miterlimit="10" stroke-linecap="round" stroke-linejoin="round"/><path d="M321.308 159.066a7.39 7.39 0 017.409 7.41 7.39 7.39 0 01-7.409 7.409 7.391 7.391 0 01-7.41-7.409c0-4.065 3.345-7.41 7.41-7.41z" stroke="#000" stroke-miterlimit="10" stroke-linecap="round" stroke-linejoin="round"/><path fill-rule="evenodd" clip-rule="evenodd" d="M148.823 296.412a7.391 7.391 0 017.41 7.409 7.391 7.391 0 01-7.41 7.41 7.39 7.39 0 01-7.409-7.41c0-4.106 3.345-7.409 7.409-7.409z" fill="#fff"/><path fill-rule="evenodd" clip-rule="evenodd" d="M148.822 299.799a4.065 4.065 0 010 8.129 4.065 4.065 0 010-8.129z" fill="#fff"/><path d="M148.822 299.799a4.065 4.065 0 010 8.129 4.065 4.065 0 010-8.129z" stroke="#000" stroke-miterlimit="10" stroke-linecap="round" stroke-linejoin="round"/><path d="M148.823 296.412a7.391 7.391 0 017.41 7.409 7.391 7.391 0 01-7.41 7.41 7.39 7.39 0 01-7.409-7.41c0-4.106 3.345-7.409 7.409-7.409z" stroke="#000" stroke-miterlimit="10" stroke-linecap="round" stroke-linejoin="round"/><path d="M321.308 311.231a7.41 7.41 0 10-.001-14.82 7.41 7.41 0 00.001 14.82z" fill="#fff"/><path d="M321.307 307.928a4.065 4.065 0 10-.002-8.13 4.065 4.065 0 00.002 8.13z" fill="#fff"/><path d="M321.307 307.928a4.065 4.065 0 10-.002-8.13 4.065 4.065 0 00.002 8.13z" stroke="#000" stroke-miterlimit="10" stroke-linecap="round" stroke-linejoin="round"/><path d="M321.308 311.231a7.41 7.41 0 10-.001-14.82 7.41 7.41 0 00.001 14.82z" stroke="#000" stroke-miterlimit="10" stroke-linecap="round" stroke-linejoin="round"/><path fill-rule="evenodd" clip-rule="evenodd" d="M148.82 318.641c2.16 0 3.938 1.778 3.938 3.937s-1.778 3.938-3.938 3.938c-2.159 0-3.937-1.779-3.937-3.938 0-2.159 1.778-3.937 3.937-3.937z" fill="#fff"/><path d="M148.779 325.88a3.302 3.302 0 100-6.605 3.302 3.302 0 000 6.605z" fill="#fff"/><path d="M148.779 325.88a3.302 3.302 0 100-6.605 3.302 3.302 0 000 6.605z" stroke="#000" stroke-miterlimit="10" stroke-linecap="round" stroke-linejoin="round"/><path d="M148.82 318.641c2.16 0 3.938 1.778 3.938 3.937s-1.778 3.938-3.938 3.938c-2.159 0-3.937-1.779-3.937-3.938 0-2.159 1.778-3.937 3.937-3.937z" stroke="#000" stroke-miterlimit="10" stroke-linecap="round" stroke-linejoin="round"/><path fill-rule="evenodd" clip-rule="evenodd" d="M148.82 143.74c2.16 0 3.938 1.778 3.938 3.938 0 2.159-1.778 3.937-3.938 3.937-2.159 0-3.937-1.778-3.937-3.937 0-2.16 1.778-3.938 3.937-3.938z" fill="#fff"/><path fill-rule="evenodd" clip-rule="evenodd" d="M148.779 144.416a3.306 3.306 0 013.302 3.302 3.306 3.306 0 01-3.302 3.303 3.306 3.306 0 01-3.302-3.303 3.306 3.306 0 013.302-3.302z" fill="#fff"/><path d="M148.779 144.416a3.306 3.306 0 013.302 3.302 3.306 3.306 0 01-3.302 3.303 3.306 3.306 0 01-3.302-3.303 3.306 3.306 0 013.302-3.302z" stroke="#000" stroke-miterlimit="10" stroke-linecap="round" stroke-linejoin="round"/><path d="M148.82 143.74c2.16 0 3.938 1.778 3.938 3.938 0 2.159-1.778 3.937-3.938 3.937-2.159 0-3.937-1.778-3.937-3.937 0-2.16 1.778-3.938 3.937-3.938z" stroke="#000" stroke-miterlimit="10" stroke-linecap="round" stroke-linejoin="round"/><path fill-rule="evenodd" clip-rule="evenodd" d="M321.305 143.74c2.159 0 3.937 1.778 3.937 3.938 0 2.159-1.778 3.937-3.937 3.937-2.16 0-3.938-1.778-3.938-3.937 0-2.16 1.778-3.938 3.938-3.938z" fill="#fff"/><path fill-rule="evenodd" clip-rule="evenodd" d="M321.263 144.416a3.307 3.307 0 013.303 3.302 3.307 3.307 0 01-3.303 3.303 3.307 3.307 0 01-3.302-3.303 3.307 3.307 0 013.302-3.302z" fill="#fff"/><path d="M321.263 144.416a3.307 3.307 0 013.303 3.302 3.307 3.307 0 01-3.303 3.303 3.307 3.307 0 01-3.302-3.303 3.307 3.307 0 013.302-3.302z" stroke="#000" stroke-miterlimit="10" stroke-linecap="round" stroke-linejoin="round"/><path d="M321.305 143.74c2.159 0 3.937 1.778 3.937 3.938 0 2.159-1.778 3.937-3.937 3.937-2.16 0-3.938-1.778-3.938-3.937 0-2.16 1.778-3.938 3.938-3.938z" stroke="#000" stroke-miterlimit="10" stroke-linecap="round" stroke-linejoin="round"/><path d="M325.246 322.662a3.938 3.938 0 10-7.875-.119 3.938 3.938 0 007.875.119z" fill="#fff"/><path d="M321.263 325.88a3.302 3.302 0 10.001-6.605 3.302 3.302 0 00-.001 6.605z" fill="#fff"/><path d="M321.263 325.88a3.302 3.302 0 10.001-6.605 3.302 3.302 0 00-.001 6.605z" stroke="#000" stroke-miterlimit="10" stroke-linecap="round" stroke-linejoin="round"/><path d="M325.246 322.662a3.938 3.938 0 10-7.875-.119 3.938 3.938 0 007.875.119zM108.007 150.979H.383M4 138v194m104.007-13.359H.383" stroke="#000" stroke-miterlimit="10" stroke-linecap="round" stroke-linejoin="round"/><path d="M103.517 183.623H26.461v102.121h77.056V183.623z" stroke="gray" stroke-miterlimit="10" stroke-linecap="round" stroke-linejoin="round"/><path d="M4.402 332.357l103.603 2.667V134.975L4.402 137.642c-2.201 0-3.98 1.821-3.98 4.022v186.713c-.042 2.202 1.779 3.98 3.98 3.98zM362.039 155.68h107.582M466 143v194m-103.961-13.66h107.582" stroke="#000" stroke-miterlimit="10" stroke-linecap="round" stroke-linejoin="round"/><path d="M444.642 183.918h-77.056v102.12h77.056v-102.12z" stroke="gray" stroke-miterlimit="10" stroke-linecap="round" stroke-linejoin="round"/><path d="M465.595 337.058l-103.603 2.667V139.676l103.603 2.667c2.201 0 3.979 1.821 3.979 4.022v186.713c.043 2.202-1.778 3.98-3.979 3.98zM150.977 108.005V.381M138 4h194m-13.359 104.005V.381" stroke="#000" stroke-miterlimit="10" stroke-linecap="round" stroke-linejoin="round"/><path d="M308.096 25.615H160.758v77.056h147.338V25.615z" stroke="gray" stroke-miterlimit="10" stroke-linecap="round" stroke-linejoin="round"/><path d="M332.359 4.402l2.667 103.603H134.977l2.667-103.603c0-2.201 1.82-3.98 4.022-3.98h186.713c2.202-.042 3.98 1.779 3.98 3.98zM150.43 362.037v107.582M137 466h194m-12.914-103.963v107.582" stroke="#000" stroke-miterlimit="10" stroke-linecap="round" stroke-linejoin="round"/><path d="M307.549 367.328H160.211v77.056h147.338v-77.056z" stroke="gray" stroke-miterlimit="10" stroke-linecap="round" stroke-linejoin="round"/><path d="M331.804 465.597l2.667-103.603H134.422l2.667 103.603c0 2.201 1.821 3.979 4.022 3.979h186.713c2.16.043 3.98-1.778 3.98-3.979z" stroke="#000" stroke-miterlimit="10" stroke-linecap="round" stroke-linejoin="round"/><path d="M208.906 128.126c-.803 0-1.428-.168-1.876-.504-.439-.336-.747-.789-.924-1.358a6.715 6.715 0 01-.252-1.904v-4.004c0-.765.084-1.433.252-2.002.177-.569.485-1.008.924-1.316.448-.317 1.073-.476 1.876-.476.709 0 1.269.131 1.68.392.42.261.718.635.896 1.12.186.485.28 1.069.28 1.75v.896h-1.498v-.798c0-.42-.024-.789-.07-1.106-.038-.327-.15-.579-.336-.756-.187-.177-.5-.266-.938-.266-.448 0-.775.098-.98.294-.206.187-.341.457-.406.812a7.704 7.704 0 00-.084 1.218v4.494c0 .569.046 1.022.14 1.358.093.327.247.56.462.7.214.14.504.21.868.21.429 0 .737-.093.924-.28.186-.196.303-.462.35-.798.046-.336.07-.728.07-1.176v-.84h1.498v.84c0 .691-.084 1.302-.252 1.834a2.377 2.377 0 01-.868 1.232c-.411.289-.99.434-1.736.434zm5.609-.126v-10.164h-1.918v-1.176h5.362v1.176h-1.862V128h-1.582zm7.435.126c-.765 0-1.377-.149-1.834-.448a2.455 2.455 0 01-.98-1.274c-.196-.56-.294-1.213-.294-1.96v-4.298c0-.747.098-1.386.294-1.918.205-.541.532-.952.98-1.232.457-.289 1.069-.434 1.834-.434.765 0 1.372.145 1.82.434.448.289.77.7.966 1.232.205.532.308 1.171.308 1.918v4.312c0 .737-.103 1.381-.308 1.932-.196.551-.518.98-.966 1.288-.448.299-1.055.448-1.82.448zm0-1.246c.42 0 .737-.084.952-.252.215-.177.359-.42.434-.728.075-.317.112-.686.112-1.106v-4.97c0-.42-.037-.779-.112-1.078-.075-.308-.219-.541-.434-.7-.215-.168-.532-.252-.952-.252-.42 0-.742.084-.966.252-.215.159-.359.392-.434.7a4.484 4.484 0 00-.112 1.078v4.97c0 .42.037.789.112 1.106.075.308.219.551.434.728.224.168.546.252.966.252zm4.649 1.12v-11.34h2.814c.681 0 1.222.126 1.624.378.41.243.709.597.896 1.064.186.467.28 1.031.28 1.694 0 .597-.108 1.115-.322 1.554a2.29 2.29 0 01-.924 1.022c-.411.233-.924.35-1.54.35h-1.246V128h-1.582zm1.582-6.412h.728c.457 0 .816-.051 1.078-.154a.984.984 0 00.56-.532c.112-.261.168-.625.168-1.092 0-.541-.042-.957-.126-1.246-.075-.289-.238-.49-.49-.602-.252-.112-.644-.168-1.176-.168h-.742v3.794zm8.042 6.538c-.765 0-1.376-.149-1.834-.448a2.455 2.455 0 01-.98-1.274c-.196-.56-.294-1.213-.294-1.96v-4.298c0-.747.098-1.386.294-1.918.206-.541.532-.952.98-1.232.458-.289 1.069-.434 1.834-.434.766 0 1.372.145 1.82.434.448.289.77.7.966 1.232.206.532.308 1.171.308 1.918v4.312c0 .737-.102 1.381-.308 1.932-.196.551-.518.98-.966 1.288-.448.299-1.054.448-1.82.448zm0-1.246c.42 0 .738-.084.952-.252.215-.177.36-.42.434-.728.075-.317.112-.686.112-1.106v-4.97c0-.42-.037-.779-.112-1.078-.074-.308-.219-.541-.434-.7-.214-.168-.532-.252-.952-.252-.42 0-.742.084-.966.252-.214.159-.359.392-.434.7a4.536 4.536 0 00-.112 1.078v4.97c0 .42.038.789.112 1.106.075.308.22.551.434.728.224.168.546.252.966.252zm4.649 1.12v-11.34h1.582v4.9h2.912v-4.9h1.582V128h-1.582v-5.306h-2.912V128h-1.582zm7.232 0l2.408-11.34h1.526L254.46 128h-1.498l-.518-2.856h-2.31l-.546 2.856h-1.484zm2.24-3.99h1.89l-.952-5.11-.938 5.11zm7.85 3.99l2.408-11.34h1.526L264.55 128h-1.498l-.518-2.856h-2.31l-.546 2.856h-1.484zm2.24-3.99h1.89l-.952-5.11-.938 5.11zM209.18 355.126c-.803 0-1.428-.168-1.876-.504-.439-.336-.747-.789-.924-1.358a6.715 6.715 0 01-.252-1.904v-4.004c0-.765.084-1.433.252-2.002.177-.569.485-1.008.924-1.316.448-.317 1.073-.476 1.876-.476.709 0 1.269.131 1.68.392.42.261.719.635.896 1.12.187.485.28 1.069.28 1.75v.896h-1.498v-.798c0-.42-.023-.789-.07-1.106-.037-.327-.149-.579-.336-.756-.187-.177-.499-.266-.938-.266-.448 0-.775.098-.98.294-.205.187-.341.457-.406.812a7.704 7.704 0 00-.084 1.218v4.494c0 .569.047 1.022.14 1.358.093.327.247.56.462.7.215.14.504.21.868.21.429 0 .737-.093.924-.28.187-.196.303-.462.35-.798.047-.336.07-.728.07-1.176v-.84h1.498v.84c0 .691-.084 1.302-.252 1.834-.168.523-.457.933-.868 1.232-.411.289-.989.434-1.736.434zm5.609-.126v-10.164h-1.918v-1.176h5.362v1.176h-1.862V355h-1.582zm7.435.126c-.765 0-1.376-.149-1.834-.448a2.455 2.455 0 01-.98-1.274c-.196-.56-.294-1.213-.294-1.96v-4.298c0-.747.098-1.386.294-1.918.206-.541.532-.952.98-1.232.458-.289 1.069-.434 1.834-.434.766 0 1.372.145 1.82.434.448.289.77.7.966 1.232.206.532.308 1.171.308 1.918v4.312c0 .737-.102 1.381-.308 1.932-.196.551-.518.98-.966 1.288-.448.299-1.054.448-1.82.448zm0-1.246c.42 0 .738-.084.952-.252.215-.177.36-.42.434-.728.075-.317.112-.686.112-1.106v-4.97c0-.42-.037-.779-.112-1.078-.074-.308-.219-.541-.434-.7-.214-.168-.532-.252-.952-.252-.42 0-.742.084-.966.252-.214.159-.359.392-.434.7a4.536 4.536 0 00-.112 1.078v4.97c0 .42.038.789.112 1.106.075.308.22.551.434.728.224.168.546.252.966.252zm4.649 1.12v-11.34h2.814c.682 0 1.223.126 1.624.378.411.243.71.597.896 1.064.187.467.28 1.031.28 1.694 0 .597-.107 1.115-.322 1.554a2.28 2.28 0 01-.924 1.022c-.41.233-.924.35-1.54.35h-1.246V355h-1.582zm1.582-6.412h.728c.458 0 .817-.051 1.078-.154a.98.98 0 00.56-.532c.112-.261.168-.625.168-1.092 0-.541-.042-.957-.126-1.246-.074-.289-.238-.49-.49-.602-.252-.112-.644-.168-1.176-.168h-.742v3.794zm8.043 6.538c-.766 0-1.377-.149-1.834-.448-.458-.299-.784-.723-.98-1.274-.196-.56-.294-1.213-.294-1.96v-4.298c0-.747.098-1.386.294-1.918.205-.541.532-.952.98-1.232.457-.289 1.068-.434 1.834-.434.765 0 1.372.145 1.82.434.448.289.77.7.966 1.232.205.532.308 1.171.308 1.918v4.312c0 .737-.103 1.381-.308 1.932-.196.551-.518.98-.966 1.288-.448.299-1.055.448-1.82.448zm0-1.246c.42 0 .737-.084.952-.252.214-.177.359-.42.434-.728a4.9 4.9 0 00.112-1.106v-4.97c0-.42-.038-.779-.112-1.078-.075-.308-.22-.541-.434-.7-.215-.168-.532-.252-.952-.252-.42 0-.742.084-.966.252-.215.159-.36.392-.434.7a4.484 4.484 0 00-.112 1.078v4.97c0 .42.037.789.112 1.106.074.308.219.551.434.728.224.168.546.252.966.252zm4.649 1.12v-11.34h1.582v4.9h2.912v-4.9h1.582V355h-1.582v-5.306h-2.912V355h-1.582zm7.231 0l2.408-11.34h1.526l2.422 11.34h-1.498l-.518-2.856h-2.31l-.546 2.856h-1.484zm2.24-3.99h1.89l-.952-5.11-.938 5.11zm8.466 3.99v-11.34h2.604c.513 0 .957.056 1.33.168.383.112.7.285.952.518.252.233.439.532.56.896.121.355.182.775.182 1.26 0 .467-.061.873-.182 1.218a1.676 1.676 0 01-.532.798c-.233.196-.537.322-.91.378.457.103.826.28 1.106.532.28.243.485.56.616.952.14.383.21.845.21 1.386 0 .485-.056.929-.168 1.33a2.602 2.602 0 01-.532 1.022c-.233.28-.537.499-.91.658-.364.149-.798.224-1.302.224h-3.024zm1.582-1.134h1.064c.709 0 1.181-.163 1.414-.49.243-.336.364-.873.364-1.61 0-.476-.065-.873-.196-1.19a1.338 1.338 0 00-.602-.728c-.271-.168-.639-.252-1.106-.252h-.938v4.27zm0-5.474h.938c.448 0 .798-.061 1.05-.182a1.09 1.09 0 00.532-.616c.103-.28.154-.644.154-1.092 0-.523-.079-.901-.238-1.134-.159-.233-.406-.378-.742-.434-.336-.065-.775-.098-1.316-.098h-.378v3.556zm-132.54-87.14c0 .802-.168 1.428-.504 1.876-.336.438-.789.746-1.358.924a6.715 6.715 0 01-1.904.252h-4.004c-.765 0-1.433-.084-2.002-.252-.569-.178-1.008-.486-1.316-.924-.317-.448-.476-1.074-.476-1.876 0-.71.131-1.27.392-1.68.261-.42.635-.719 1.12-.896.485-.187 1.069-.28 1.75-.28h.896v1.498h-.798c-.42 0-.789.023-1.106.07-.327.037-.579.149-.756.336-.177.186-.266.499-.266.938 0 .448.098.774.294.98.187.205.457.34.812.406.345.056.751.084 1.218.084h4.494c.569 0 1.022-.047 1.358-.14.327-.094.56-.248.7-.462.14-.215.21-.504.21-.868 0-.43-.093-.738-.28-.924-.196-.187-.462-.304-.798-.35a8.604 8.604 0 00-1.176-.07h-.84v-1.498h.84c.691 0 1.302.084 1.834.252.523.168.933.457 1.232.868.289.41.434.989.434 1.736zm-.126-5.609h-10.164v1.918h-1.176v-5.362h1.176v1.862H128v1.582zm.126-7.436c0 .766-.149 1.377-.448 1.834-.299.458-.723.784-1.274.98-.56.196-1.213.294-1.96.294h-4.298c-.747 0-1.386-.098-1.918-.294-.541-.205-.952-.532-1.232-.98-.289-.457-.434-1.068-.434-1.834 0-.765.145-1.372.434-1.82.289-.448.7-.77 1.232-.966.532-.205 1.171-.308 1.918-.308h4.312c.737 0 1.381.103 1.932.308.551.196.98.518 1.288.966.299.448.448 1.055.448 1.82zm-1.246 0c0-.42-.084-.737-.252-.952a1.317 1.317 0 00-.728-.434 4.9 4.9 0 00-1.106-.112h-4.97c-.42 0-.779.038-1.078.112-.308.075-.541.22-.7.434-.168.215-.252.532-.252.952 0 .42.084.742.252.966.159.215.392.36.7.434.299.075.658.112 1.078.112h4.97c.42 0 .789-.037 1.106-.112.308-.074.551-.219.728-.434.168-.224.252-.546.252-.966zm1.12-4.649h-11.34v-2.814c0-.681.126-1.222.378-1.624.243-.41.597-.709 1.064-.896.467-.186 1.031-.28 1.694-.28.597 0 1.115.108 1.554.322a2.29 2.29 0 011.022.924c.233.411.35.924.35 1.54v1.246H128v1.582zm-6.412-1.582v-.728c0-.457-.051-.816-.154-1.078a.984.984 0 00-.532-.56c-.261-.112-.625-.168-1.092-.168-.541 0-.957.042-1.246.126-.289.075-.49.238-.602.49-.112.252-.168.644-.168 1.176v.742h3.794zm6.538-8.042c0 .765-.149 1.377-.448 1.834a2.455 2.455 0 01-1.274.98c-.56.196-1.213.294-1.96.294h-4.298c-.747 0-1.386-.098-1.918-.294-.541-.205-.952-.532-1.232-.98-.289-.457-.434-1.069-.434-1.834 0-.765.145-1.372.434-1.82.289-.448.7-.77 1.232-.966.532-.205 1.171-.308 1.918-.308h4.312c.737 0 1.381.103 1.932.308.551.196.98.518 1.288.966.299.448.448 1.055.448 1.82zm-1.246 0c0-.42-.084-.737-.252-.952a1.312 1.312 0 00-.728-.434 4.843 4.843 0 00-1.106-.112h-4.97c-.42 0-.779.037-1.078.112-.308.075-.541.219-.7.434-.168.215-.252.532-.252.952 0 .42.084.742.252.966.159.215.392.359.7.434.299.075.658.112 1.078.112h4.97c.42 0 .789-.037 1.106-.112.308-.075.551-.219.728-.434.168-.224.252-.546.252-.966zm1.12-4.649h-11.34v-1.582h4.9v-2.912h-4.9v-1.582H128v1.582h-5.306v2.912H128v1.582zm0-7.232l-11.34-2.408v-1.526l11.34-2.422v1.498l-2.856.518v2.31l2.856.546v1.484zm-3.99-2.24v-1.89l-5.11.952 5.11.938zm4.116-11.308c0 .803-.168 1.428-.504 1.876-.336.439-.789.747-1.358.924a6.715 6.715 0 01-1.904.252h-4.004c-.765 0-1.433-.084-2.002-.252-.569-.177-1.008-.485-1.316-.924-.317-.448-.476-1.073-.476-1.876 0-.709.131-1.269.392-1.68.261-.42.635-.718 1.12-.896.485-.186 1.069-.28 1.75-.28h.896v1.498h-.798c-.42 0-.789.024-1.106.07-.327.038-.579.15-.756.336-.177.187-.266.5-.266.938 0 .448.098.775.294.98.187.206.457.341.812.406.345.056.751.084 1.218.084h4.494c.569 0 1.022-.046 1.358-.14.327-.093.56-.247.7-.462.14-.214.21-.504.21-.868 0-.429-.093-.737-.28-.924-.196-.186-.462-.303-.798-.35a8.767 8.767 0 00-1.176-.07h-.84v-1.498h.84c.691 0 1.302.084 1.834.252.523.168.933.458 1.232.868.289.411.434.99.434 1.736zm226 52.335c0 .803-.168 1.428-.504 1.876-.336.439-.789.747-1.358.924a6.715 6.715 0 01-1.904.252h-4.004c-.765 0-1.433-.084-2.002-.252-.569-.177-1.008-.485-1.316-.924-.317-.448-.476-1.073-.476-1.876 0-.709.131-1.269.392-1.68.261-.42.635-.718 1.12-.896.485-.186 1.069-.28 1.75-.28h.896v1.498h-.798c-.42 0-.789.024-1.106.07-.327.038-.579.15-.756.336-.177.187-.266.5-.266.938 0 .448.098.775.294.98.187.206.457.341.812.406.345.056.751.084 1.218.084h4.494c.569 0 1.022-.046 1.358-.14.327-.093.56-.247.7-.462.14-.214.21-.504.21-.868 0-.429-.093-.737-.28-.924-.196-.186-.462-.303-.798-.35a8.767 8.767 0 00-1.176-.07h-.84v-1.498h.84c.691 0 1.302.084 1.834.252.523.168.933.458 1.232.868.289.411.434.99.434 1.736zm-.126-5.609h-10.164v1.918h-1.176v-5.362h1.176v1.862H354v1.582zm.126-7.435c0 .766-.149 1.377-.448 1.834-.299.458-.723.784-1.274.98-.56.196-1.213.294-1.96.294h-4.298c-.747 0-1.386-.098-1.918-.294-.541-.205-.952-.532-1.232-.98-.289-.457-.434-1.068-.434-1.834 0-.765.145-1.372.434-1.82.289-.448.7-.77 1.232-.966.532-.205 1.171-.308 1.918-.308h4.312c.737 0 1.381.103 1.932.308.551.196.98.518 1.288.966.299.448.448 1.055.448 1.82zm-1.246 0c0-.42-.084-.737-.252-.952a1.317 1.317 0 00-.728-.434 4.9 4.9 0 00-1.106-.112h-4.97c-.42 0-.779.038-1.078.112-.308.075-.541.22-.7.434-.168.215-.252.532-.252.952 0 .42.084.742.252.966.159.215.392.36.7.434.299.075.658.112 1.078.112h4.97c.42 0 .789-.037 1.106-.112.308-.074.551-.219.728-.434.168-.224.252-.546.252-.966zm1.12-4.649h-11.34v-2.814c0-.681.126-1.222.378-1.624.243-.41.597-.709 1.064-.896.467-.186 1.031-.28 1.694-.28.597 0 1.115.108 1.554.322a2.29 2.29 0 011.022.924c.233.411.35.924.35 1.54v1.246H354v1.582zm-6.412-1.582v-.728c0-.457-.051-.816-.154-1.078a.984.984 0 00-.532-.56c-.261-.112-.625-.168-1.092-.168-.541 0-.957.042-1.246.126-.289.075-.49.238-.602.49-.112.252-.168.644-.168 1.176v.742h3.794zm6.538-8.042c0 .765-.149 1.376-.448 1.834a2.455 2.455 0 01-1.274.98c-.56.196-1.213.294-1.96.294h-4.298c-.747 0-1.386-.098-1.918-.294-.541-.206-.952-.532-1.232-.98-.289-.458-.434-1.069-.434-1.834 0-.766.145-1.372.434-1.82.289-.448.7-.77 1.232-.966.532-.206 1.171-.308 1.918-.308h4.312c.737 0 1.381.102 1.932.308.551.196.98.518 1.288.966.299.448.448 1.054.448 1.82zm-1.246 0c0-.42-.084-.738-.252-.952a1.306 1.306 0 00-.728-.434 4.843 4.843 0 00-1.106-.112h-4.97c-.42 0-.779.037-1.078.112-.308.074-.541.219-.7.434-.168.214-.252.532-.252.952 0 .42.084.742.252.966.159.214.392.359.7.434.299.074.658.112 1.078.112h4.97a4.9 4.9 0 001.106-.112c.308-.075.551-.22.728-.434.168-.224.252-.546.252-.966zm1.12-4.649h-11.34v-1.582h4.9v-2.912h-4.9v-1.582H354v1.582h-5.306v2.912H354v1.582zm0-7.232l-11.34-2.408v-1.526l11.34-2.422v1.498l-2.856.518v2.31l2.856.546v1.484zm-3.99-2.24v-1.89l-5.11.952 5.11.938zm3.99-8.466h-11.34v-2.464c0-.84.131-1.502.392-1.988a2.149 2.149 0 011.148-1.05c.513-.214 1.153-.322 1.918-.322h4.172c.803 0 1.479.108 2.03.322.551.206.971.546 1.26 1.022.28.467.42 1.097.42 1.89v2.59zm-1.134-1.582v-.896c0-.578-.112-.989-.336-1.232-.224-.242-.551-.387-.98-.434a12.246 12.246 0 00-1.554-.084h-3.682c-.588 0-1.064.038-1.428.112-.364.075-.63.238-.798.49-.168.252-.252.649-.252 1.19v.854h9.03z" fill="#1A232F"/></g><defs><clipPath id="clip0_2692_14825"><path fill="#fff" d="M0 0h470v470H0z"/></clipPath></defs></svg>