<svg width="456" height="456" fill="none" xmlns="http://www.w3.org/2000/svg"><mask id="mask0_2853_10971" style="mask-type:luminance" maskUnits="userSpaceOnUse" x="1" y="1" width="454" height="454"><path fill-rule="evenodd" clip-rule="evenodd" d="M454.627 23.677v408.106c0 12.516-10.162 22.677-22.678 22.677H23.676C11.161 454.46 1 444.299 1 431.783V23.677C1 11.161 11.161 1 23.676 1h408.273c12.516 0 22.678 10.161 22.678 22.677zm-437.6 398.908c-4.426 4.424-4.426 11.61 0 16.035 4.425 4.425 11.61 4.425 16.034 0 .006-.004 15.234-15.232 15.238-15.237 4.412-4.426 4.406-11.602-.014-16.022-4.416-4.416-11.58-4.425-16.008-.028l-15.25 15.252zm319.826 8.652l16.955-16.966c2.255-1.354 3.699-4.307 4.2-9.116l-.035-24.194c1.251-13.941 8.742-21.894 23.403-22.965l23.351.109c3.973-.162 7.365-1.618 10.205-4.305l17.381-17.205c2.432-3.024 3.602-6.498 3.959-10.259l.016-198.781c-.173-2.979-1.423-5.73-3.568-8.292l-18.752-18.707c-2.029-1.659-4.739-2.767-8.425-3.081l-21.544-.055c-17.374-.93-25.72-10.052-26.132-26.377l.258-20.479c-.053-3.063-1.193-5.845-3.205-8.403l-18.997-18.884c-1.778-1.728-4.327-2.964-8.386-3.24l-201.064.011c-2.844.028-5.124 1.483-7.164 3.539l-18.366 18.366c-1.904 2.039-3.152 4.679-3.458 8.182l.126 24.302c-1.266 14.327-9.584 21.594-23.69 23.068l-23.59-.074c-3.026-.186-6.104 1.009-9.232 3.528L23.123 118.76c-2.295 3.091-3.704 6.415-3.858 10.069l-.022 194.444c-.183 6.1 1.27 10.654 4.444 13.582l17.604 17.626c3.25 2.414 6.634 3.418 10.112 3.452l22.713.171c14.74 1.063 22.668 8.445 23.385 22.52l-.104 24.321c.387 3.622 1.672 6.351 3.544 8.498l18.715 18.833c3.516 2.309 7.481 3.537 12.131 3.128l195.001.032c4.053-.229 7.341-1.744 10.065-4.199zM33.061 17.637c-4.424-4.425-11.609-4.425-16.034 0-4.426 4.424-4.426 11.61 0 16.035l15.237 15.237c4.425 4.411 11.601 4.407 16.021-.013 4.416-4.416 4.426-11.581.027-16.008-.008-.01-15.241-15.243-15.25-15.25zm389.726 389.724c-4.426-4.425-11.611-4.425-16.036 0-4.426 4.426-4.426 11.61 0 16.035l15.237 15.237c4.427 4.412 11.601 4.407 16.021-.013 4.416-4.416 4.426-11.58.028-16.008-.009-.009-15.242-15.241-15.25-15.251zM406.751 32.86c-4.426 4.425-4.426 11.61 0 16.036 4.425 4.424 11.61 4.424 16.036 0l15.236-15.237c4.412-4.427 4.408-11.602-.014-16.022-4.416-4.416-11.58-4.425-16.008-.028-.008.01-15.241 15.242-15.25 15.251z" fill="#fff"/></mask><g mask="url(#mask0_2853_10971)"><path d="M341.838 437.12l18.324-18.976c3.428-3.524 5.294-8.231 5.816-13.959l-.2-23.364c.372-9.665 5.862-14.92 16.369-15.852l23.18.164c5.232.315 10.236-1.873 15.039-6.261l17.324-17.348c3.925-3.399 6.002-8.367 6.289-14.852l-.065-199.521c-.59-4.898-2.731-9.223-6.086-13.102l-18.612-18.58c-3.366-3.667-8.033-5.774-14.31-5.947l-23.978.486c-9.04-1.203-14.053-6.213-15.01-15.057l-.047-24.895c.196-4.214-1.484-8.704-5.364-13.513L341.682 17.57c-4.619-3.649-9.326-5.077-14.088-5.097l-200.366-.09c-5.244.005-9.864 1.717-13.78 5.35l-18.349 19.22c-2.908 3.476-4.487 8.016-5.032 13.382l.013 24.616c-.705 9.533-6.072 14.004-14.626 15.013l-26.224.019c-4.563.486-8.974 2.507-13.232 6.041l-17.62 17.617c-4.726 4.939-7.303 10.216-6.588 16.01l.164 197.174c.216 6.042 2.19 10.888 6.081 14.431l17.89 17.925c4.51 3.796 9.642 5.866 15.474 5.992l22.465-.228c10.107 1.598 15.475 6.847 16.14 15.723l.051 24.356c.832 6.376 3.01 10.705 6.06 13.701l16.911 17.691c4.306 3.849 9.392 6.201 15.46 6.665l199.494.266c4.178.088 8.78-1.904 13.858-6.227z" stroke="#000" stroke-width="1.333" stroke-miterlimit="10" stroke-linecap="round" stroke-linejoin="round"/><path d="M341.1 435.733l18.189-18.85c3.404-3.5 5.257-8.176 5.775-13.867l-.199-23.211c.369-9.601 5.82-14.821 16.251-15.748l23.01.163c5.195.313 10.163-1.861 14.93-6.22l17.198-17.233c3.898-3.378 5.959-8.312 6.244-14.755l-.065-198.209c-.585-4.866-2.711-9.164-6.041-13.016l-18.476-18.459c-3.343-3.643-7.976-5.736-14.208-5.908l-23.802.483c-8.974-1.195-13.952-6.172-14.902-14.958l-.047-24.73c.195-4.188-1.473-8.647-5.324-13.426L340.944 18.94c-4.584-3.624-9.256-5.043-13.984-5.061l-198.908-.09c-5.206.004-9.792 1.704-13.68 5.314L96.157 38.197c-2.888 3.452-4.455 7.963-4.996 13.294l.012 24.454c-.699 9.47-6.027 13.912-14.519 14.915l-26.033.017c-4.53.484-8.908 2.491-13.136 6.003l-17.492 17.501c-4.69 4.907-7.25 10.148-6.54 15.904l.163 195.88c.214 6 2.173 10.815 6.037 14.335l17.761 17.808c4.476 3.771 9.57 5.827 15.36 5.952l22.302-.227c10.034 1.588 15.362 6.803 16.02 15.62l.053 24.195c.827 6.335 2.987 10.636 6.016 13.612l16.788 17.575c4.275 3.824 9.323 6.161 15.347 6.622l198.044.263c4.146.088 8.714-1.892 13.756-6.187z" stroke="#000" stroke-width="1.333" stroke-miterlimit="10" stroke-linecap="round" stroke-linejoin="round"/><path d="M345.335 449.303l104.332-104.458c2.273-2.112 3.102-4.861 3.274-7.906l-.228-218.922c-.128-2.981-.826-5.48-3.269-7.912L345.429 6.195c-1.978-2.151-4.234-3.183-7.877-3.323l-219.187-.01c-2.981.223-5.641 1.323-7.924 3.28L6.189 110.018c-2.182 2.248-3.106 4.92-3.276 7.908L2.61 336.481c.052 2.619.962 5.467 3.15 7.89L110 449.163c2.105 1.942 4.685 3.029 7.924 3.303l219.408.096c3.118-.227 5.846-1.205 8.004-3.259z" stroke="#000" stroke-width="1.333" stroke-miterlimit="10" stroke-linecap="round" stroke-linejoin="round"/><mask id="mask1_2853_10971" style="mask-type:luminance" maskUnits="userSpaceOnUse" x="371" y="65" width="20" height="20"><path fill-rule="evenodd" clip-rule="evenodd" d="M380.927 65.563c5.181 0 9.388 4.206 9.388 9.388 0 5.181-4.207 9.388-9.388 9.388s-9.388-4.207-9.388-9.388 4.207-9.388 9.388-9.388z" fill="#fff"/></mask><g mask="url(#mask1_2853_10971)"><path d="M381.013 68.072a6.797 6.797 0 016.795 6.794 6.797 6.797 0 01-6.795 6.795 6.798 6.798 0 01-6.794-6.794 6.798 6.798 0 016.794-6.795z" stroke="#000" stroke-width="1.333" stroke-miterlimit="2" stroke-linecap="round"/></g><path d="M380.927 65.563c5.181 0 9.388 4.206 9.388 9.388 0 5.181-4.207 9.388-9.388 9.388s-9.388-4.207-9.388-9.388 4.207-9.388 9.388-9.388z" stroke="#000" stroke-width="1.333" stroke-miterlimit="2" stroke-linecap="round"/><mask id="mask2_2853_10971" style="mask-type:luminance" maskUnits="userSpaceOnUse" x="371" y="370" width="20" height="19"><path fill-rule="evenodd" clip-rule="evenodd" d="M380.927 370.109c5.181 0 9.388 4.206 9.388 9.388 0 5.181-4.207 9.388-9.388 9.388s-9.388-4.207-9.388-9.388c0-5.182 4.207-9.388 9.388-9.388z" fill="#fff"/></mask><g mask="url(#mask2_2853_10971)"><path d="M381.013 372.618a6.797 6.797 0 016.795 6.794 6.798 6.798 0 01-6.795 6.795 6.798 6.798 0 01-6.794-6.795 6.797 6.797 0 016.794-6.794z" stroke="#000" stroke-width="1.333" stroke-miterlimit="2" stroke-linecap="round"/></g><path d="M380.927 370.109c5.181 0 9.388 4.206 9.388 9.388 0 5.181-4.207 9.388-9.388 9.388s-9.388-4.207-9.388-9.388c0-5.182 4.207-9.388 9.388-9.388z" stroke="#000" stroke-width="1.333" stroke-miterlimit="2" stroke-linecap="round"/><mask id="mask3_2853_10971" style="mask-type:luminance" maskUnits="userSpaceOnUse" x="65" y="65" width="19" height="20"><path fill-rule="evenodd" clip-rule="evenodd" d="M74.436 65.814c5.181 0 9.388 4.206 9.388 9.389 0 5.181-4.206 9.388-9.388 9.388-5.183 0-9.39-4.207-9.39-9.388 0-5.183 4.207-9.39 9.39-9.39z" fill="#fff"/></mask><g mask="url(#mask3_2853_10971)"><path d="M74.521 68.322a6.799 6.799 0 016.795 6.795 6.8 6.8 0 01-6.795 6.796 6.798 6.798 0 01-6.794-6.796 6.798 6.798 0 016.794-6.795z" stroke="#000" stroke-width="1.333" stroke-miterlimit="2" stroke-linecap="round"/></g><path d="M74.436 65.814c5.181 0 9.388 4.206 9.388 9.389 0 5.181-4.206 9.388-9.388 9.388-5.183 0-9.39-4.207-9.39-9.388 0-5.183 4.207-9.39 9.39-9.39z" stroke="#000" stroke-width="1.333" stroke-miterlimit="2" stroke-linecap="round"/><mask id="mask4_2853_10971" style="mask-type:luminance" maskUnits="userSpaceOnUse" x="65" y="370" width="19" height="20"><path fill-rule="evenodd" clip-rule="evenodd" d="M74.436 370.36c5.181 0 9.388 4.206 9.388 9.388 0 5.181-4.206 9.388-9.388 9.388-5.183 0-9.39-4.207-9.39-9.388 0-5.182 4.207-9.388 9.39-9.388z" fill="#fff"/></mask><g mask="url(#mask4_2853_10971)"><path d="M74.521 372.869a6.798 6.798 0 016.795 6.794 6.798 6.798 0 01-6.795 6.795 6.797 6.797 0 01-6.794-6.795 6.797 6.797 0 016.794-6.794z" stroke="#000" stroke-width="1.333" stroke-miterlimit="2" stroke-linecap="round"/></g><path d="M74.436 370.36c5.181 0 9.388 4.206 9.388 9.388 0 5.181-4.206 9.388-9.388 9.388-5.183 0-9.39-4.207-9.39-9.388 0-5.182 4.207-9.388 9.39-9.388z" stroke="#000" stroke-width="1.333" stroke-miterlimit="2" stroke-linecap="round"/></g><path d="M454.627 23.677v408.106c0 12.516-10.162 22.677-22.678 22.677H23.676C11.161 454.46 1 444.299 1 431.783V23.677C1 11.161 11.161 1 23.676 1h408.273c12.516 0 22.678 10.161 22.678 22.677zm-437.6 398.908c-4.426 4.424-4.426 11.61 0 16.035 4.425 4.425 11.61 4.425 16.034 0 .006-.004 15.234-15.232 15.238-15.237 4.412-4.426 4.406-11.602-.014-16.022-4.416-4.416-11.58-4.425-16.008-.028l-15.25 15.252zm319.826 8.652l16.955-16.966c2.255-1.354 3.699-4.307 4.2-9.116l-.035-24.194c1.251-13.941 8.742-21.894 23.403-22.965l23.351.109c3.973-.162 7.365-1.618 10.205-4.305l17.381-17.205c2.432-3.024 3.602-6.498 3.959-10.259l.016-198.781c-.173-2.979-1.423-5.73-3.568-8.292l-18.752-18.707c-2.029-1.659-4.739-2.767-8.425-3.081l-21.544-.055c-17.374-.93-25.72-10.052-26.132-26.377l.258-20.479c-.053-3.063-1.193-5.845-3.205-8.403l-18.997-18.884c-1.778-1.728-4.327-2.964-8.386-3.24l-201.064.011c-2.844.028-5.124 1.483-7.164 3.539l-18.366 18.366c-1.904 2.039-3.152 4.679-3.458 8.182l.126 24.302c-1.266 14.327-9.584 21.594-23.69 23.068l-23.59-.074c-3.026-.186-6.104 1.009-9.232 3.528L23.123 118.76c-2.295 3.091-3.704 6.415-3.858 10.069l-.022 194.444c-.183 6.1 1.27 10.654 4.444 13.582l17.604 17.626c3.25 2.414 6.634 3.418 10.112 3.452l22.713.171c14.74 1.063 22.668 8.445 23.385 22.52l-.104 24.321c.387 3.622 1.672 6.351 3.544 8.498l18.715 18.833c3.516 2.309 7.481 3.537 12.131 3.128l195.001.032c4.053-.229 7.341-1.744 10.065-4.199zM33.061 17.637c-4.424-4.425-11.609-4.425-16.034 0-4.426 4.424-4.426 11.61 0 16.035l15.237 15.237c4.425 4.411 11.601 4.407 16.021-.013 4.416-4.416 4.426-11.581.027-16.008-.008-.01-15.241-15.243-15.25-15.25zm389.726 389.724c-4.426-4.425-11.611-4.425-16.036 0-4.426 4.426-4.426 11.61 0 16.035l15.237 15.237c4.427 4.412 11.601 4.407 16.021-.013 4.416-4.416 4.426-11.58.028-16.008-.009-.009-15.242-15.241-15.25-15.251zM406.751 32.86c-4.426 4.425-4.426 11.61 0 16.036 4.425 4.424 11.61 4.424 16.036 0l15.236-15.237c4.412-4.427 4.408-11.602-.014-16.022-4.416-4.416-11.58-4.425-16.008-.028-.008.01-15.241 15.242-15.25 15.251z" stroke="#000" stroke-width="2" stroke-miterlimit="10" stroke-linecap="round" stroke-linejoin="round"/><mask id="mask5_2853_10971" style="mask-type:luminance" maskUnits="userSpaceOnUse" x="19" y="20" width="418" height="416"><path fill-rule="evenodd" clip-rule="evenodd" d="M336.852 431.237l16.955-16.967c2.255-1.353 3.699-4.306 4.2-9.116l-.035-24.193c1.251-13.941 8.742-21.895 23.403-22.965l23.351.109c3.973-.163 7.365-1.619 10.205-4.305l17.381-17.206c2.432-3.024 3.602-6.497 3.959-10.258l.016-198.782c-.173-2.978-1.423-5.729-3.568-8.292l-18.752-18.706c-2.029-1.66-4.739-2.767-8.425-3.082l-21.544-.054c-17.374-.93-25.72-10.052-26.132-26.378l.258-20.478c-.053-3.063-1.193-5.846-3.205-8.403l-18.997-18.884c-1.778-1.728-4.327-2.964-8.386-3.24l-201.064.01c-2.844.029-5.124 1.483-7.164 3.54l-18.366 18.366c-1.904 2.039-3.152 4.679-3.457 8.181l.125 24.303c-1.266 14.327-9.584 21.593-23.69 23.068l-23.59-.075c-3.026-.185-6.104 1.01-9.232 3.528L23.122 118.76c-2.295 3.09-3.704 6.414-3.857 10.069l-.023 194.444c-.183 6.1 1.27 10.653 4.444 13.581l17.604 17.627c3.25 2.413 6.635 3.417 10.112 3.452l22.713.171c14.74 1.062 22.668 8.445 23.386 22.52l-.105 24.321c.387 3.621 1.672 6.351 3.544 8.497l18.715 18.834c3.516 2.309 7.481 3.537 12.131 3.128l195.001.032c4.053-.23 7.341-1.744 10.065-4.199z" fill="#fff"/></mask><g mask="url(#mask5_2853_10971)"><mask id="mask6_2853_10971" style="mask-type:luminance" maskUnits="userSpaceOnUse" x="387" y="216" width="27" height="24"><path fill-rule="evenodd" clip-rule="evenodd" d="M413.378 227.729l-6.508 11.273h-13.018l-6.508-11.273 6.508-11.274h13.018l6.508 11.274z" fill="#fff"/></mask><g mask="url(#mask6_2853_10971)" stroke="#000" stroke-width="1.333" stroke-miterlimit="2" stroke-linecap="round"><path d="M406.523 227.762a6.158 6.158 0 01-6.156 6.156 6.16 6.16 0 01-6.156-6.156 6.16 6.16 0 016.156-6.157 6.158 6.158 0 016.156 6.157z"/><path d="M408.574 227.762a8.214 8.214 0 01-8.21 8.21c-4.53 0-8.208-3.679-8.208-8.21a8.212 8.212 0 018.208-8.208c4.531 0 8.21 3.678 8.21 8.208z"/></g><path d="M413.378 227.729l-6.508 11.273h-13.018l-6.508-11.273 6.508-11.274h13.018l6.508 11.274z" stroke="#000" stroke-width="1.333" stroke-miterlimit="2" stroke-linecap="round"/><mask id="mask7_2853_10971" style="mask-type:luminance" maskUnits="userSpaceOnUse" x="40" y="216" width="27" height="24"><path fill-rule="evenodd" clip-rule="evenodd" d="M66.177 227.762l-6.51 11.273H46.65l-6.51-11.273 6.51-11.274h13.017l6.51 11.274z" fill="#fff"/></mask><g mask="url(#mask7_2853_10971)" stroke="#000" stroke-width="1.333" stroke-miterlimit="2" stroke-linecap="round"><path d="M59.321 227.795a6.159 6.159 0 01-6.156 6.156 6.16 6.16 0 01-6.157-6.156 6.16 6.16 0 016.157-6.157 6.16 6.16 0 016.156 6.157z"/><path d="M61.37 227.796c0 4.53-3.677 8.209-8.207 8.209-4.531 0-8.21-3.679-8.21-8.209 0-4.531 3.679-8.208 8.21-8.208a8.211 8.211 0 018.208 8.208z"/></g><path d="M66.177 227.762l-6.51 11.273H46.65l-6.51-11.273 6.51-11.274h13.017l6.51 11.274zM358.042 65.627c-1.319 22.907 8.908 33.77 31.612 31.615l-23.594 23.752c-3.681 3.724-10.674 6.56-15.912 6.56-12.838 0-22.336-9.439-22.336-22.278 0-5.249 2.842-12.265 6.554-15.977l23.676-23.672zm.13 4.548c.326 18.23 8.636 27.896 26.758 27.041l-21.388 21.3a18.779 18.779 0 01-13.394 5.596c-10.395 0-18.836-8.44-18.836-18.836 0-5.249 2.153-10 5.622-13.417l21.238-21.684zM97.792 389.191c1.317-22.908-8.908-33.77-31.612-31.616l23.592-23.752c3.682-3.724 10.676-6.558 15.913-6.558 12.837 0 22.336 9.438 22.336 22.276 0 5.25-2.841 12.266-6.553 15.978l-23.676 23.672zm-.132-4.548c-.326-18.23-8.636-27.897-26.758-27.041l21.39-21.301a18.779 18.779 0 0113.393-5.596c10.395 0 18.836 8.44 18.836 18.836 0 5.25-2.153 10.001-5.623 13.418L97.66 384.643z" stroke="#000" stroke-width="1.333" stroke-miterlimit="2" stroke-linecap="round"/><mask id="mask8_2853_10971" style="mask-type:luminance" maskUnits="userSpaceOnUse" x="337" y="93" width="26" height="26"><path fill-rule="evenodd" clip-rule="evenodd" d="M359.091 96.622l3.373 12.59-9.217 9.218-12.592-3.374-3.374-12.592 9.218-9.217 12.592 3.375z" fill="#fff"/></mask><g mask="url(#mask8_2853_10971)" stroke="#000" stroke-width="1.333" stroke-miterlimit="2" stroke-linecap="round"><path d="M354.258 101.503a6.169 6.169 0 010 8.718 6.168 6.168 0 01-8.719 0 6.167 6.167 0 010-8.718 6.167 6.167 0 018.719 0z"/><path d="M355.711 100.05a8.224 8.224 0 010 11.625 8.224 8.224 0 01-11.625 0 8.224 8.224 0 010-11.625 8.223 8.223 0 0111.625 0z"/></g><path d="M359.091 96.622l3.373 12.59-9.217 9.218-12.592-3.374-3.374-12.592 9.218-9.217 12.592 3.375z" stroke="#000" stroke-width="1.333" stroke-miterlimit="2" stroke-linecap="round"/><mask id="mask9_2853_10971" style="mask-type:luminance" maskUnits="userSpaceOnUse" x="93" y="337" width="26" height="26"><path fill-rule="evenodd" clip-rule="evenodd" d="M115.246 340.465l3.374 12.592-9.218 9.217-12.591-3.374-3.374-12.591 9.218-9.217 12.591 3.373z" fill="#fff"/></mask><g mask="url(#mask9_2853_10971)" stroke="#000" stroke-width="1.333" stroke-miterlimit="2" stroke-linecap="round"><path d="M110.413 345.346a6.165 6.165 0 11-8.718 0 6.169 6.169 0 018.718 0z"/><path d="M111.866 343.895a8.223 8.223 0 010 11.624 8.224 8.224 0 01-11.625 0 8.225 8.225 0 010-11.624 8.224 8.224 0 0111.625 0z"/></g><path d="M115.245 340.465l3.375 12.592-9.218 9.217-12.591-3.374-3.374-12.591 9.218-9.217 12.59 3.373zm320.9-131.758l-35.98-.064c-10.636 0-19.271 8.635-19.271 19.272 0 10.636 8.635 19.271 19.271 19.271l35.98.094v7.704c-.032-2.818-1.188-4.373-3.747-4.348h-32.099c-12.286 0-22.721-10.434-22.721-22.721 0-12.563 10.16-22.723 22.721-22.723h31.931c2.655.048 3.908-1.305 3.915-3.905v7.42zm-416.918 0l35.978-.064c10.636 0 19.272 8.635 19.272 19.272 0 10.636-8.636 19.271-19.272 19.271l-35.978.094v7.704c.032-2.818 1.188-4.373 3.745-4.348H55.07c12.286 0 22.722-10.434 22.722-22.721 0-12.563-10.16-22.723-22.722-22.723H23.14c-2.656.048-3.908-1.305-3.914-3.905v7.42z" stroke="#000" stroke-width="1.333" stroke-miterlimit="2" stroke-linecap="round"/></g><path d="M336.852 431.237l16.955-16.967c2.255-1.353 3.699-4.306 4.2-9.116l-.035-24.193c1.251-13.941 8.742-21.895 23.403-22.965l23.351.109c3.973-.163 7.365-1.619 10.205-4.305l17.381-17.206c2.432-3.024 3.602-6.497 3.959-10.258l.016-198.782c-.173-2.978-1.423-5.729-3.568-8.292l-18.752-18.706c-2.029-1.66-4.739-2.767-8.425-3.082l-21.544-.054c-17.374-.93-25.72-10.052-26.132-26.378l.258-20.478c-.053-3.063-1.193-5.846-3.205-8.403l-18.997-18.884c-1.778-1.728-4.327-2.964-8.386-3.24l-201.064.01c-2.844.029-5.124 1.483-7.164 3.54l-18.366 18.366c-1.904 2.039-3.152 4.679-3.457 8.181l.125 24.303c-1.266 14.327-9.584 21.593-23.69 23.068l-23.59-.075c-3.026-.185-6.104 1.01-9.232 3.528L23.122 118.76c-2.295 3.09-3.704 6.414-3.857 10.069l-.023 194.444c-.183 6.1 1.27 10.653 4.444 13.581l17.604 17.627c3.25 2.413 6.635 3.417 10.112 3.452l22.713.171c14.74 1.062 22.668 8.445 23.386 22.52l-.105 24.321c.387 3.621 1.672 6.351 3.544 8.497l18.715 18.834c3.516 2.309 7.481 3.537 12.131 3.128l195.001.032c4.053-.23 7.341-1.744 10.065-4.199z" stroke="#000" stroke-width="1.333" stroke-miterlimit="10" stroke-linecap="round" stroke-linejoin="round"/></svg>