<svg width="62" height="19" fill="none" xmlns="http://www.w3.org/2000/svg"><path d="M61.139 5.393H1.164v8.716H61.14V5.393z" fill="#fff"/><path d="M61.139 5.393H1.164v8.716H61.14V5.393z" stroke="#000" stroke-width=".75" stroke-miterlimit="10" stroke-linejoin="round"/><path d="M13.524 2.52H6.008v14.51h7.516V2.52z" fill="#fff"/><mask id="mask0_2778_13553" style="mask-type:luminance" maskUnits="userSpaceOnUse" x="6" y="2" width="8" height="16"><path d="M13.524 2.52H6.008v14.51h7.516V2.52z" fill="#fff"/></mask><g mask="url(#mask0_2778_13553)"><path d="M13.524 2.52H6.008v7.256h7.516V2.52z" fill="#fff"/></g><mask id="mask1_2778_13553" style="mask-type:luminance" maskUnits="userSpaceOnUse" x="6" y="2" width="8" height="16"><path d="M13.524 2.52H6.008v14.51h7.516V2.52z" fill="#fff"/></mask><g mask="url(#mask1_2778_13553)"><path d="M13.524 2.52H6.008v7.256h7.516V2.52z" stroke="#000" stroke-width=".75" stroke-miterlimit="10" stroke-linejoin="round"/></g><path d="M13.524 2.52H6.008v14.51h7.516V2.52z" stroke="#000" stroke-width=".75" stroke-miterlimit="10" stroke-linejoin="round"/><path d="M26.54 2.52h-7.517v14.51h7.516V2.52z" fill="#fff"/><mask id="mask2_2778_13553" style="mask-type:luminance" maskUnits="userSpaceOnUse" x="19" y="2" width="8" height="16"><path d="M26.54 2.52h-7.517v14.51h7.516V2.52z" fill="#fff"/></mask><g mask="url(#mask2_2778_13553)"><path d="M26.54 2.52h-7.517v7.256h7.516V2.52z" fill="#fff"/></g><mask id="mask3_2778_13553" style="mask-type:luminance" maskUnits="userSpaceOnUse" x="19" y="2" width="8" height="16"><path d="M26.54 2.52h-7.517v14.51h7.516V2.52z" fill="#fff"/></mask><g mask="url(#mask3_2778_13553)"><path d="M26.54 2.52h-7.517v7.256h7.516V2.52z" stroke="#000" stroke-width=".75" stroke-miterlimit="10" stroke-linejoin="round"/></g><path d="M26.54 2.52h-7.517v14.51h7.516V2.52z" stroke="#000" stroke-width=".75" stroke-miterlimit="10" stroke-linejoin="round"/><path d="M56.5 2.52h-7.516v14.51H56.5V2.52z" fill="#fff"/><mask id="mask4_2778_13553" style="mask-type:luminance" maskUnits="userSpaceOnUse" x="48" y="2" width="9" height="16"><path d="M56.5 2.52h-7.516v14.51H56.5V2.52z" fill="#fff"/></mask><g mask="url(#mask4_2778_13553)"><path d="M56.5 2.52h-7.516v7.256H56.5V2.52z" fill="#fff"/></g><mask id="mask5_2778_13553" style="mask-type:luminance" maskUnits="userSpaceOnUse" x="48" y="2" width="9" height="16"><path d="M56.5 2.52h-7.516v14.51H56.5V2.52z" fill="#fff"/></mask><g mask="url(#mask5_2778_13553)"><path d="M56.5 2.52h-7.516v7.256H56.5V2.52z" stroke="#000" stroke-width=".75" stroke-miterlimit="10" stroke-linejoin="round"/></g><path d="M56.5 2.52h-7.516v14.51H56.5V2.52z" stroke="#000" stroke-width=".75" stroke-miterlimit="10" stroke-linejoin="round"/><path d="M45.102 2.52h-7.516v14.51h7.516V2.52z" fill="#fff"/><mask id="mask6_2778_13553" style="mask-type:luminance" maskUnits="userSpaceOnUse" x="37" y="2" width="9" height="16"><path d="M45.102 2.52h-7.516v14.51h7.516V2.52z" fill="#fff"/></mask><g mask="url(#mask6_2778_13553)"><path d="M45.102 2.52h-7.516v7.256h7.516V2.52z" fill="#fff"/></g><mask id="mask7_2778_13553" style="mask-type:luminance" maskUnits="userSpaceOnUse" x="37" y="2" width="9" height="16"><path d="M45.102 2.52h-7.516v14.51h7.516V2.52z" fill="#fff"/></mask><g mask="url(#mask7_2778_13553)"><path d="M45.102 2.52h-7.516v7.256h7.516V2.52z" stroke="#000" stroke-width=".75" stroke-miterlimit="10" stroke-linejoin="round"/></g><path d="M45.102 2.52h-7.516v14.51h7.516V2.52z" stroke="#000" stroke-width=".75" stroke-miterlimit="10" stroke-linejoin="round"/><path fill-rule="evenodd" clip-rule="evenodd" d="M31.127.808v17.634H29.21l-.706-4.333-.05-8.717.756-4.584h1.916z" fill="#fff"/><mask id="mask8_2778_13553" style="mask-type:luminance" maskUnits="userSpaceOnUse" x="28" y="0" width="4" height="19"><path d="M31.127.808v17.634H29.21l-.706-4.333-.05-8.717.756-4.584h1.916z" fill="#fff"/></mask><g mask="url(#mask8_2778_13553)"><path d="M31.128.808H29.21v17.634h1.917V.808z" fill="#fff"/></g><mask id="mask9_2778_13553" style="mask-type:luminance" maskUnits="userSpaceOnUse" x="28" y="0" width="4" height="19"><path d="M31.127.808v17.634H29.21l-.706-4.333-.05-8.717.756-4.584h1.916z" fill="#fff"/></mask><g mask="url(#mask9_2778_13553)"><path d="M31.128.808H29.21v17.634h1.917V.808z" stroke="#000" stroke-width=".75" stroke-miterlimit="10" stroke-linejoin="round"/></g><path d="M31.127.808v17.634H29.21l-.706-4.333-.05-8.717.756-4.584h1.916z" stroke="#000" stroke-width=".75" stroke-miterlimit="10" stroke-linejoin="round"/><path fill-rule="evenodd" clip-rule="evenodd" d="M18.16 2.42v14.258h-1.664l-.605-3.527V6.098l.605-3.678h1.665z" fill="#fff"/><mask id="mask10_2778_13553" style="mask-type:luminance" maskUnits="userSpaceOnUse" x="15" y="2" width="4" height="15"><path d="M18.16 2.42v14.258h-1.664l-.605-3.527V6.098l.605-3.678h1.665z" fill="#fff"/></mask><g mask="url(#mask10_2778_13553)"><path d="M18.106 2.42h-1.614v14.258h1.614V2.42z" fill="#fff"/></g><mask id="mask11_2778_13553" style="mask-type:luminance" maskUnits="userSpaceOnUse" x="15" y="2" width="4" height="15"><path d="M18.16 2.42v14.258h-1.664l-.605-3.527V6.098l.605-3.678h1.665z" fill="#fff"/></mask><g mask="url(#mask11_2778_13553)"><path d="M18.106 2.42h-1.614v14.258h1.614V2.42z" stroke="#000" stroke-width=".75" stroke-miterlimit="10" stroke-linejoin="round"/></g><path d="M18.16 2.42v14.258h-1.664l-.605-3.527V6.098l.605-3.678h1.665z" stroke="#000" stroke-width=".75" stroke-miterlimit="10" stroke-linejoin="round"/><path fill-rule="evenodd" clip-rule="evenodd" d="M45.656 2.52v14.26h1.665l.605-3.527V6.198l-.605-3.677h-1.665z" fill="#fff"/><mask id="mask12_2778_13553" style="mask-type:luminance" maskUnits="userSpaceOnUse" x="45" y="2" width="3" height="15"><path d="M45.656 2.52v14.26h1.665l.605-3.527V6.198l-.605-3.677h-1.665z" fill="#fff"/></mask><g mask="url(#mask12_2778_13553)"><path d="M47.27 2.52h-1.614v14.26h1.614V2.52z" fill="#fff"/></g><mask id="mask13_2778_13553" style="mask-type:luminance" maskUnits="userSpaceOnUse" x="45" y="2" width="3" height="15"><path d="M45.656 2.52v14.26h1.665l.605-3.527V6.198l-.605-3.677h-1.665z" fill="#fff"/></mask><g mask="url(#mask13_2778_13553)"><path d="M47.27 2.52h-1.614v14.26h1.614V2.52z" stroke="#000" stroke-width=".75" stroke-miterlimit="10" stroke-linejoin="round"/></g></svg>