<svg width="24" height="24" fill="none" xmlns="http://www.w3.org/2000/svg"><g clip-path="url(#clip0_2692_21020)"><g clip-path="url(#clip1_2692_21020)" fill="#fff"><path d="M7 10.699c.112-.454.206-.862.314-1.264a.27.27 0 01.15-.155c1.066-.407 2.124-.86 3.257-1.062 1.109-.196 2.209-.173 3.248.332 1.109.539 1.69 1.69 1.638 2.916-.066 1.638-.637 3.15-1.04 4.708-.261 1.025-.547 2.046-.79 3.075-.122.506-.192 1.03-.084 1.554.121.6.407.861 1.01.964.806.14 1.564-.028 2.317-.285.07-.024.14-.052.248-.09-.107.45-.21.871-.318 1.293-.014.046-.08.093-.131.117-.884.327-1.75.716-2.658.954-1.306.347-2.63.38-3.885-.238-1.095-.539-1.666-1.451-1.68-2.677-.01-1.072.243-2.097.529-3.122.45-1.605.884-3.21 1.306-4.82.14-.544.187-1.105.084-1.671-.09-.483-.36-.777-.843-.88-.66-.14-1.3-.08-1.937.117-.23.065-.454.145-.735.234zm7.627-5.101c-1.292-.052-2.26-.595-2.794-1.75-.609-1.325.028-2.856 1.404-3.534a3.115 3.115 0 013.706.749c1.25 1.441.623 3.655-1.226 4.333a3.459 3.459 0 01-.496.136c-.206.033-.416.047-.594.066z"/></g></g><defs><clipPath id="clip0_2692_21020"><path fill="#fff" d="M0 0h24v23.989H0z"/></clipPath><clipPath id="clip1_2692_21020"><path fill="#fff" transform="translate(7)" d="M0 0h10.591v24H0z"/></clipPath></defs></svg>