<svg width="51" height="57" fill="none" xmlns="http://www.w3.org/2000/svg"><g clip-path="url(#clip0_2848_6239)" fill="#000"><path d="M23.249 56.888l-.046-.085a.232.232 0 00-.211-.138h-.015l-.204.007.023-.108c-.023-.023-.053-.038-.076-.054-1.328-.833-2.657-1.658-3.993-2.491-.302-.185-.604-.37-.906-.563-.34-.208-.687-.424-1.027-.633l-.038-.023c-2.167-1.357-4.416-2.753-6.62-4.134a969.512 969.512 0 01-3.67-2.306c-.875-.548-1.751-1.103-2.627-1.651a51.21 51.21 0 00-1.29-.787 1.398 1.398 0 01-.476-.47c-.46-.702-.793-1.481-1.118-2.23a7.968 7.968 0 00-.166-.37.754.754 0 01-.045-.285v-8.485l-.023-5.314L.7 22.556c-.008-1.758 0-3.51 0-5.206v-.347l.03-.047c.007-.015.023-.023.023-.038.075-.139.135-.278.188-.432l.03.008.182-.37c.15-.31.287-.595.445-.888.25-.455.468-.825.695-1.164.128-.185.31-.355.505-.486.846-.533 1.714-1.065 2.552-1.582a345.98 345.98 0 003.533-2.198 89.928 89.928 0 001.888-1.234c.498-.332 1.019-.679 1.532-1.01.34-.216.695-.417 1.034-.61.22-.123.453-.254.672-.385l.332-.201a288.61 288.61 0 003.435-2.075 481.571 481.571 0 003.533-2.19c.453-.286.914-.564 1.367-.849.045-.03.09-.062.143-.1l.083-.062.03-.008c.265-.038.446-.115.604-.239l.038-.03h.053c.242-.008.498-.008.763-.008.211 0 .392 0 .573.007.778.031 1.57.093 2.333.155.211.015.43.038.642.054a.948.948 0 01.415.139c.997.601 1.985 1.21 2.974 1.812.635.386 1.276.78 1.91 1.165.83.509 1.669 1.01 2.5 1.52 1.275.77 2.589 1.573 3.88 2.36.385.231.77.478 1.14.717.362.231.732.47 1.11.694.709.432 1.434.872 2.136 1.296.581.355 1.17.702 1.751 1.057.446.27.899.555 1.337.825.309.193.611.378.92.57.34.21.544.533.74.842.03.046.053.092.083.13.25.386.484.795.71 1.18.076.14.159.27.242.41l.015.023.007.03c.046.31.129.556.264.749l.03.038v.047c.008 1.064.023 1.928.038 2.73.03 1.998.046 4.019.06 5.986l.023 2.915c0 .108.008.209.016.324l.007.124-.015.03a.288.288 0 00.008.224l.113.224h-.113v.316l.136 9.441c0 .162.007.332.007.494.008.24.008.494.015.733 0 .123-.023.247-.06.355-.4 1.04-.83 1.943-1.314 2.753-.219.363-.513.587-.808.772a548.12 548.12 0 00-3.08 1.959c-.445.285-.89.57-1.336.848l-.808.517c-1.578 1.003-3.148 2.006-4.726 3.008-.611.394-1.23.78-1.842 1.165-.717.455-1.442.91-2.159 1.365-1.532.98-3.223 2.06-5.3 3.394-.279.178-.626.363-1.049.378-.34.008-.687.054-1.019.085-.106.015-.211.023-.325.038-.06.008-.128.024-.204.039l-.105.023H23.25v.023zm2.129-.57a.267.267 0 00.083.015c.045 0 .09-.008.12-.03l.083-.063.083.062c.03.023.053.03.121.03h.114c.166-.007.34-.022.505-.03.242-.015.491-.03.74-.038.581-.016 1.117-.201 1.684-.571a236.872 236.872 0 013.337-2.121c.52-.332 1.041-.656 1.562-.988.181-.116.37-.231.551-.355-2.657 1.065-5.54 1.636-8.606 1.697l-.008.062-.18-.054c-.023-.008-.054-.008-.076-.008-.03 0-.06.008-.09.016l-.031.008s-.559-.031-.687-.04c-.189-.007-.378-.014-.559-.03a17.35 17.35 0 01-1.253-.085c-1.932-.208-3.691-.594-5.352-1.195.068.038.128.077.196.115.15.093.294.185.445.278a1081.07 1081.07 0 014.945 3.108c.189.116.348.17.521.178.393.008.785.015 1.193.03l.423.016.022-.038.114.03zm-.982-52.011c-.06 0-.12 0-.181.007a23.408 23.408 0 00-4.771.74c-1.02.27-2.348.656-3.594 1.273a34.48 34.48 0 00-5.148 3.147c-1.525 1.119-2.914 2.577-4.522 4.713-.642.857-1.231 1.805-1.858 3.008-.807 1.543-1.404 2.986-1.819 4.397a24.552 24.552 0 00-1.02 6.41c-.037 1.782.054 3.355.288 4.813a24.027 24.027 0 001.29 4.829 25.87 25.87 0 001.609 3.455c.943 1.682 2.129 3.278 3.616 4.867 1.057 1.126 2.008 1.967 2.997 2.63a72.381 72.381 0 002.37 1.52l.25.154c1.502.941 3.163 1.666 5.08 2.198 1.412.394 2.816.656 4.16.78.785.069 1.57.108 2.34.108 1.805 0 3.571-.201 5.262-.602 2.288-.54 4.303-1.327 6.168-2.407 1.533-.887 2.74-1.72 3.805-2.638 1.14-.98 1.963-1.79 2.672-2.622a26.072 26.072 0 002.333-3.186 24.721 24.721 0 002.152-4.412 25.75 25.75 0 001.54-7.428l.007-.092c.015-.293.03-.594 0-.88l-.007-.038.015-.039c.023-.046.015-.115-.015-.185l-.09-.216h.097v-.231a9.251 9.251 0 00-.007-.795 25.77 25.77 0 00-.778-5.021c-.589-2.252-1.434-4.335-2.529-6.194a25.753 25.753 0 00-4.688-5.847 24.008 24.008 0 00-4.228-3.093 23.983 23.983 0 00-5.201-2.236 21.826 21.826 0 00-2.892-.625c-1.245-.193-2.212-.278-3.133-.278-.083 0-.166.016-.249.023a1.834 1.834 0 01-.294.031c-.174 0-.34-.008-.506-.023-.174 0-.347-.015-.52-.015zm25.358 27.945c-.12.833-.286 1.643-.46 2.422a23.94 23.94 0 01-1.668 4.898c-.96 2.028-2.039 3.756-3.3 5.276-.687.825-1.426 1.681-2.257 2.46l2.288-1.458.543-.347 3.035-1.943c.257-.162.476-.317.627-.556.4-.648.755-1.342 1.08-2.129a2.62 2.62 0 00.203-1.164c-.015-.293-.015-.587-.015-.872v-.37l-.023-1.967a848.23 848.23 0 01-.053-4.25zM1.295 33.825c.008.926.023 1.883.03 2.823v1.59c0 .67 0 1.357.008 2.036 0 .27.045.509.128.686.302.671.627 1.335.974 1.983.09.17.25.339.438.462a134.9 134.9 0 002.484 1.59l.196.123c.951.601 1.895 1.195 2.854 1.79a25.698 25.698 0 01-3.7-4.66c-.875-1.403-1.638-2.977-2.272-4.674a24.014 24.014 0 01-1.14-4.25 5.55 5.55 0 000 .501zM41.48 9.822c.174.146.34.3.506.455 2.197 2.051 4.009 4.504 5.383 7.289a24.237 24.237 0 011.563 4.065c.317 1.134.543 2.105.694 3.023-.015-2.506-.038-5.098-.068-7.644 0-.223-.068-.486-.189-.794-.279-.679-.672-1.296-1.117-1.967a2.256 2.256 0 00-.725-.725c-.536-.324-1.072-.656-1.608-.987l-1.532-.941a976.667 976.667 0 01-2.907-1.774zm-33.194 1.04c-.174.109-.347.21-.521.317-.687.424-1.374.849-2.061 1.28-.763.471-1.525.95-2.288 1.42-.347.216-.687.463-.898.848-.083.155-.166.309-.25.47-.233.433-.475.88-.686 1.327-.159.332-.325.733-.317 1.18.007 1.929 0 3.888 0 5.778v1.041c.038-.239.083-.478.128-.71.49-2.637 1.457-5.19 2.952-7.805a23.756 23.756 0 013.94-5.145zm17.763-7.119h.227c.974.016 1.985.108 3.095.286.332.054.665.131.99.2.21.047.43.1.64.14 1.14.223 2.198.6 3.096.948l-.219-.131c-.392-.232-.793-.47-1.193-.71-1.366-.833-2.71-1.65-4.039-2.483-.468-.294-.913-.44-1.404-.471a32.973 32.973 0 00-2.114-.077c-.528 0-1.019.015-1.48.054a1.658 1.658 0 00-.49.131c-.128.062-.257.147-.385.231l-.181.116-1.238.764c-1.042.64-2.076 1.288-3.118 1.936-.144.092-.287.177-.43.27 1.087-.394 2.317-.694 3.827-.941a20.79 20.79 0 013.216-.278c.098 0 .189-.015.302-.03.015 0 .03-.009.045-.009v-.092l.212.085a.237.237 0 00.188.007l.174-.054.015.108h.264z"/><path d="M16.444 5.695h-.023l-.03-.27.136-.038.037.146.09.124c-.014.007-.044.038-.097.038h-.113zm23.985 42.878l-.023-.285.151-.023.038.308h-.166z"/><path d="M40.564 48.581l-.106-.008-.03-.108c-.008-.03-.023-.108.068-.177l.173.255a.131.131 0 01-.098.038h-.007zm-4.869 2.785l.046-.085.415-.154-.181.386-.046.038-.234-.185zM9.437 47.871l-.023-.038.25-.17.03.039.022.038-.257.162-.022-.03zm15.936 1.682c-1.238 0-2.499-.124-3.76-.378a19.868 19.868 0 01-7.368-3.093 20.401 20.401 0 01-5.14-5.076 20.54 20.54 0 01-2.454-4.581c-.642-1.674-1.042-3.27-1.23-4.875-.046-.417-.076-.849-.107-1.258-.015-.23-.037-.47-.052-.701-.008-.1-.023-.201-.038-.309-.008-.07-.023-.146-.03-.216-.008-.085-.023-.17-.008-.262.008-.108.023-.216.038-.324.023-.178.038-.34.045-.51.106-2.46.657-4.928 1.654-7.335.777-1.89 1.857-3.64 3.299-5.376 1.147-1.373 2.521-2.6 4.197-3.74a19.638 19.638 0 015.103-2.461 19.889 19.889 0 015.383-.91c.09 0 .174-.008.264-.016h.03l.03.008a.267.267 0 00.084.015.205.205 0 00.098-.023l.113-.054.076.1a.265.265 0 00.075.062l.09.039v.424c0 .216 0 .432.008.656 0 .108.008.216.015.339 0 .015 0 .038.008.054 5.088.162 9.43 2.052 12.902 5.607 3.45 3.54 5.3 8.022 5.488 13.337v.03l-.007.032-.008.023a.277.277 0 00.03.185l.121.223h-.136c-.211 5.23-2.06 9.658-5.496 13.16-3.533 3.602-7.927 5.484-13.068 5.584h-.03l-.03-.008a.217.217 0 00-.06-.015.237.237 0 00-.106.023l-.038.015-.159-.015-.226-.023-.65-.046c-.452-.031-.928-.062-1.388-.124a18.388 18.388 0 01-6.878-2.437 18.73 18.73 0 01-6.726-6.973 19.536 19.536 0 01-1.88-4.651c-.4-1.55-.604-3.217-.589-4.96.015-2.206.347-4.22 1.012-6.14.8-2.306 1.97-4.373 3.465-6.163a19.002 19.002 0 014.597-3.972 17.799 17.799 0 015.225-2.175c1.14-.27 2.227-.425 3.314-.47.045 0 .083 0 .128-.009.204-.007.408-.015.604-.069.015-.355.03-.717-.023-1.103-5.586.224-10.335 2.407-14.124 6.495-3.85 4.157-5.39 9.857-5.21 13.475h.068l-.045.193c-.007.023-.007.038-.007.046a.24.24 0 00.037.123l.129.216-.22.016c.038 7.243 4.01 13.915 10.389 17.432 2.868 1.581 6.084 2.422 9.308 2.422 4.364 0 8.682-1.535 12.17-4.327 3.11-2.484 5.322-5.716 6.59-9.603.62-1.898.936-3.896.959-5.932h-.25l.265-.262a.221.221 0 00.068-.147l.015-.177.166.038c.053.016.09.024.129.039l.09.03.015.093c0 .016.008.031.008.047a.697.697 0 01.015.13c-.045 1.62-.174 2.916-.415 4.089a20.582 20.582 0 01-1.322 4.165 21.718 21.718 0 01-2.325 4.042 20.745 20.745 0 01-4.53 4.497c-1.2.864-2.536 1.604-4.099 2.26a17.96 17.96 0 01-3.487 1.08 28.08 28.08 0 01-2.326.339c-.641.085-1.26.116-1.872.116zm-.015-39.215c-.143 0-.287 0-.43.008a17.429 17.429 0 00-5.708 1.118 17.855 17.855 0 00-6.658 4.42 18.411 18.411 0 00-4.047 6.54c-.498 1.374-.83 2.816-1.011 4.42-.174 1.474-.144 2.993.075 4.644a18.037 18.037 0 001.14 4.343 18.802 18.802 0 002.552 4.473 18.171 18.171 0 005.005 4.482 18.173 18.173 0 003.314 1.581c.914.332 1.842.54 2.643.694a16.62 16.62 0 003.306.309c.25 0 .498-.008.755-.016 1.072-.038 2.099-.223 2.96-.4 1.6-.325 3.193-.919 4.718-1.76a18.226 18.226 0 005.103-4.134c.778-.902 1.352-1.689 1.812-2.468a19.168 19.168 0 002.182-5.384 20.18 20.18 0 00.528-4.01.348.348 0 00-.015-.063l-.007-.038-.015-.054.022-.046a.306.306 0 00.008-.232l-.015-.03v-.04c0-.045.007-.092.007-.138.008-.123.023-.247.008-.355l-.038-.386c-.068-.663-.136-1.35-.234-2.02-.28-1.89-.898-3.78-1.842-5.623-.687-1.335-1.57-2.6-2.71-3.88-1.948-2.183-4.349-3.826-7.142-4.883a16.71 16.71 0 00-2.19-.64 19.393 19.393 0 00-2.249-.355 24.956 24.956 0 00-1.827-.077z"/></g><defs><clipPath id="clip0_2848_6239"><path fill="#fff" transform="translate(.695 .813)" d="M0 0h49.728v56.076H0z"/></clipPath></defs></svg>