<svg width="116" height="82" fill="none" xmlns="http://www.w3.org/2000/svg"><g clip-path="url(#clip0_2864_11783)"><path fill-rule="evenodd" clip-rule="evenodd" d="M96.727 27.325v17.254h17.254v7.03h-5.751v7.669h7.03v19.457l-2.571 2.27h.015H4.064h.014l-2.57-2.27V59.278h6.39v-7.67H4.064V44.58h17.255V27.324H7.899V15.822h13.42V4.958l2.556-3.835h69.657l3.195 3.835v10.864h13.419v11.503h-13.42z" fill="#fff" fill-opacity=".358"/><mask id="mask0_2864_11783" style="mask-type:luminance" maskUnits="userSpaceOnUse" x="1" y="1" width="115" height="81"><path fill-rule="evenodd" clip-rule="evenodd" d="M96.727 27.325v17.254h17.254v7.03h-5.751v7.669h7.03v19.457l-2.571 2.27h.015H4.064h.014l-2.57-2.27V59.278h6.39v-7.67H4.064V44.58h17.255V27.324H7.899V15.822h13.42V4.958l2.556-3.835h69.657l3.195 3.835v10.864h13.419v11.503h-13.42z" fill="#fff"/></mask><g mask="url(#mask0_2864_11783)" clip-rule="evenodd" stroke="#000" stroke-miterlimit="10" stroke-linejoin="round"><path fill-rule="evenodd" d="M23.875 44.58h69.657V1.122H23.875V44.58z" fill="#fff"/><path d="M21.32 44.58h75.408V4.957H21.32v39.621z"/><path fill-rule="evenodd" d="M1.508 78.735V59.278H115.26v19.457l-2.571 2.27H4.079l-2.571-2.27z" fill="#fff"/><path fill-rule="evenodd" d="M82.703 59.277v17.894c-16.113 5.09-32.315 5.053-48.601 0V59.277h48.6zM1.508 78.735V59.278H26.43V77.17c-7.436 2.35-14.878 3.659-22.352 3.835l-2.57-2.27zm88.828-19.457V77.17c7.437 2.35 14.88 3.659 22.353 3.835l2.571-2.27V59.277H90.336zM26.43 77.17h7.668V59.279H26.43V77.17z" fill="#fff"/><path fill-rule="evenodd" d="M82.703 77.17h7.668V59.279h-7.668V77.17zM4.063 51.608H113.98V44.58H4.062v7.03zM86.89 27.324h23.255V15.822H86.891v11.502zm-78.992 0h22.99V15.822H7.898v11.502z" fill="#fff"/><path d="M26.984 27.324h64.008V15.822H26.984v11.502z"/></g><path d="M96.727 27.325v17.254h17.254v7.03h-5.751v7.669h7.03v19.457l-2.571 2.27h.015H4.064h.014l-2.57-2.27V59.278h6.39v-7.67H4.064V44.58h17.255V27.324H7.899V15.822h13.42V4.958l2.556-3.835h69.657l3.195 3.835v10.864h13.419v11.503h-13.42z" stroke="#000" stroke-miterlimit="10" stroke-linejoin="round"/><mask id="mask1_2864_11783" style="mask-type:luminance" maskUnits="userSpaceOnUse" x="2" y="-258" width="115" height="390"><path d="M2.469 131.218h113.824V-257.18H2.469v388.398z" fill="#fff"/></mask><mask id="mask2_2864_11783" style="mask-type:luminance" maskUnits="userSpaceOnUse" x="2" y="-258" width="115" height="390"><path d="M2.469 131.218h113.824V-257.18H2.469v388.398z" fill="#fff"/></mask></g><defs><clipPath id="clip0_2864_11783"><path fill="#fff" d="M0 0h116v82H0z"/></clipPath></defs></svg>