<svg width="83" height="153" fill="none" xmlns="http://www.w3.org/2000/svg"><g clip-path="url(#clip0_2864_11784)"><path fill-rule="evenodd" clip-rule="evenodd" d="M27.055 29.66h17.254V10.488h7.03l-.006 1.917h11.503V1.541h15.337l3.835 1.918-.32 146.576-3.223 1.684h-15.63v-10.864H51.34v1.917h-7.03v-18.433H27.055v19.712H15.552v-19.712H4.688l-3.835-2.556V32.216l3.835-2.556h10.864V9.85h11.503v19.81z" fill="#fff" fill-opacity=".358"/><path d="M27.055 29.66h17.254V10.488h7.03l-.006 1.917h11.503V1.541h15.337l3.835 1.918-.32 146.576-3.223 1.684h-15.63v-10.864H51.34v1.917h-7.03v-18.433H27.055v19.712H15.552v-19.712H4.688l-3.835-2.556V32.216l3.835-2.556h10.864V9.85h11.503v19.81z" stroke="#000" stroke-miterlimit="10" stroke-linejoin="round"/><mask id="mask0_2864_11784" style="mask-type:luminance" maskUnits="userSpaceOnUse" x="0" y="1" width="83" height="151"><path fill-rule="evenodd" clip-rule="evenodd" d="M27.055 29.66h17.254V10.488h7.03l-.006 1.917h11.503V1.541h15.337l3.835 1.918-.32 146.576-3.223 1.684h-15.63v-10.864H51.34v1.917h-7.03v-18.433H27.055v19.712H15.552v-19.712H4.688l-3.835-2.556V32.216l3.835-2.556h10.864V9.85h11.503v19.81z" fill="#fff"/></mask><g mask="url(#mask0_2864_11784)" clip-rule="evenodd" stroke="#000" stroke-miterlimit="10" stroke-linejoin="round"><path fill-rule="evenodd" d="M44.305 121.328V32.32H.849v89.008h43.456z" fill="#fff"/><path d="M44.305 124.336V29.6H4.683v94.736h39.622z"/><path fill-rule="evenodd" d="M78.164 151.719H62.808V1.687L78.164 1.6l3.492 1.608v146.836l-3.492 1.675z" fill="#fff"/><path fill-rule="evenodd" d="M62.809 44.329h15.356c4.421 21.504 4.39 43.124 0 64.859l-15.356-.001V44.329zm15.355 107.39H62.808v-32.494h15.356c2.35 7.438 3.316 23.198 3.492 30.671l-3.492 1.823zM62.808 34.29h15.356c2.35-7.437 3.316-23.552 3.492-31.025l-3.492-1.667H62.808V34.29zm15.356 10.038V34.291H62.81v10.037h15.355z" fill="#fff"/><path fill-rule="evenodd" d="M78.164 119.227v-10.038H62.81v10.038h15.355zm-26.828 23.546V10.584h-7.03v132.189h7.03zM27.055 37.594V9.847H15.552v27.747h11.503zm0 106.336v-27.36H15.552v27.36h11.503z" fill="#fff"/><path d="M27.055 121.414V32.406H15.552v89.008h11.503z"/></g></g><defs><clipPath id="clip0_2864_11784"><path fill="#fff" transform="rotate(-90 76.5 76.5)" d="M0 0h153v83H0z"/></clipPath></defs></svg>