<svg width="153" height="83" fill="none" xmlns="http://www.w3.org/2000/svg"><path fill-rule="evenodd" clip-rule="evenodd" d="M123.34 27.052v17.255h19.172v7.03l-1.917-.006v11.503h10.864V78.17l-1.918 3.835-146.576-.32-1.684-3.223v-15.63h10.864V51.338h-1.917v-7.03H28.66V27.052H8.95V15.55h19.712V4.686L31.217.85h89.567l2.556 3.835V15.55h19.811v11.502H123.34z" fill="#fff" fill-opacity=".358"/><path d="M123.34 27.052v17.255h19.172v7.03l-1.917-.006v11.503h10.864V78.17l-1.918 3.835-146.576-.32-1.684-3.223v-15.63h10.864V51.338h-1.917v-7.03H28.66V27.052H8.95V15.55h19.712V4.686L31.217.85h89.567l2.556 3.835V15.55h19.811v11.502H123.34z" stroke="#000" stroke-miterlimit="10" stroke-linejoin="round"/><mask id="mask0_2864_11784" style="mask-type:luminance" maskUnits="userSpaceOnUse" x="1" y="0" width="151" height="83"><path fill-rule="evenodd" clip-rule="evenodd" d="M123.34 27.052v17.255h19.172v7.03l-1.917-.006v11.503h10.864V78.17l-1.918 3.835-146.576-.32-1.684-3.223v-15.63h10.864V51.338h-1.917v-7.03H28.66V27.052H8.95V15.55h19.712V4.686L31.217.85h89.567l2.556 3.835V15.55h19.811v11.502H123.34z" fill="#fff"/></mask><g mask="url(#mask0_2864_11784)" clip-rule="evenodd" stroke="#000" stroke-miterlimit="10" stroke-linejoin="round"><path fill-rule="evenodd" d="M31.672 44.308h89.008V.852H31.672v43.456z" fill="#fff"/><path d="M28.664 44.308H123.4V4.686H28.664v39.622z"/><path fill-rule="evenodd" d="M1.281 78.162V62.806h150.032l.087 15.356-1.608 3.492H2.956L1.28 78.162z" fill="#fff"/><path fill-rule="evenodd" d="M108.671 62.807v15.356c-21.504 4.421-43.124 4.39-64.859 0V62.807h64.859zM1.281 78.162V62.806h32.494v15.356c-7.438 2.35-23.198 3.316-30.671 3.492L1.28 78.162zm117.43-15.356v15.356c7.436 2.35 23.551 3.316 31.024 3.492l1.667-3.492V62.806h-32.691zm-10.039 15.356h10.037V62.807h-10.037v15.355z" fill="#fff"/><path fill-rule="evenodd" d="M33.773 78.162h10.038V62.807H33.773v15.355zM10.227 51.337h132.189v-7.03H10.226v7.03zm105.179-24.284h27.747V15.55h-27.747v11.503zm-106.336 0h27.36V15.55H9.07v11.503z" fill="#fff"/><path d="M31.586 27.053h89.008V15.55H31.586v11.503z"/></g></svg>