<svg width="181" height="48" fill="none" xmlns="http://www.w3.org/2000/svg"><g clip-path="url(#clip0_2741_18550)"><path d="M180.447 1.014H.805v45.98h179.642V1.013z" fill="#fff"/><mask id="mask0_2741_18550" style="mask-type:luminance" maskUnits="userSpaceOnUse" x="0" y="1" width="181" height="46"><path d="M180.447 1.016H.805v45.98h179.642V1.015z" fill="#fff"/></mask><g mask="url(#mask0_2741_18550)"><path d="M180.659 3.133H.805v41.83h179.854V3.133z" fill="#fff"/></g><mask id="mask1_2741_18550" style="mask-type:luminance" maskUnits="userSpaceOnUse" x="0" y="1" width="181" height="46"><path d="M180.447 1.016H.805v45.98h179.642V1.015z" fill="#fff"/></mask><g mask="url(#mask1_2741_18550)"><path d="M180.659 3.133H.805v41.83h179.854V3.133z" stroke="#000" stroke-miterlimit="10" stroke-linejoin="round"/></g><mask id="mask2_2741_18550" style="mask-type:luminance" maskUnits="userSpaceOnUse" x="0" y="1" width="181" height="46"><path d="M180.447 1.016H.805v45.98h179.642V1.015z" fill="#fff"/></mask><g mask="url(#mask2_2741_18550)"><path d="M9.779 31.034a7.24 7.24 0 100-14.48 7.24 7.24 0 000 14.48z" fill="#fff"/></g><mask id="mask3_2741_18550" style="mask-type:luminance" maskUnits="userSpaceOnUse" x="2" y="16" width="16" height="16"><path d="M9.779 31.032a7.24 7.24 0 100-14.48 7.24 7.24 0 000 14.48z" fill="#fff"/></mask><g mask="url(#mask3_2741_18550)"><mask id="mask4_2741_18550" style="mask-type:luminance" maskUnits="userSpaceOnUse" x="0" y="1" width="181" height="46"><path d="M180.447 1.014H.805v45.98h179.642V1.013z" fill="#fff"/></mask><g mask="url(#mask4_2741_18550)"><path fill-rule="evenodd" clip-rule="evenodd" d="M9.779 17.865c3.26 0 5.927 2.668 5.927 5.928S13.04 29.72 9.78 29.72s-5.927-2.667-5.927-5.927a5.918 5.918 0 015.927-5.928z" fill="#fff"/></g><mask id="mask5_2741_18550" style="mask-type:luminance" maskUnits="userSpaceOnUse" x="0" y="1" width="181" height="46"><path d="M180.447 1.014H.805v45.98h179.642V1.013z" fill="#fff"/></mask><g mask="url(#mask5_2741_18550)"><path d="M9.779 17.865c3.26 0 5.927 2.668 5.927 5.928S13.04 29.72 9.78 29.72s-5.927-2.667-5.927-5.927a5.918 5.918 0 015.927-5.928z" stroke="#000" stroke-miterlimit="10" stroke-linecap="round" stroke-linejoin="round"/></g><mask id="mask6_2741_18550" style="mask-type:luminance" maskUnits="userSpaceOnUse" x="0" y="1" width="181" height="46"><path d="M180.447 1.014H.805v45.98h179.642V1.013z" fill="#fff"/></mask><g mask="url(#mask6_2741_18550)"><path opacity=".358" fill-rule="evenodd" clip-rule="evenodd" d="M6.477 23.791l1.65-2.879h3.26l1.652 2.88-1.651 2.836h-3.26L6.477 23.79z" fill="#fff"/><path d="M6.477 23.791l1.65-2.879h3.26l1.652 2.88-1.651 2.836h-3.26L6.477 23.79z" stroke="#000" stroke-miterlimit="10" stroke-linejoin="round"/></g></g><mask id="mask7_2741_18550" style="mask-type:luminance" maskUnits="userSpaceOnUse" x="0" y="1" width="181" height="46"><path d="M180.447 1.016H.805v45.98h179.642V1.015z" fill="#fff"/></mask><g mask="url(#mask7_2741_18550)"><path d="M9.779 31.034a7.24 7.24 0 100-14.48 7.24 7.24 0 000 14.48z" stroke="#000" stroke-miterlimit="10" stroke-linecap="round" stroke-linejoin="round"/></g><mask id="mask8_2741_18550" style="mask-type:luminance" maskUnits="userSpaceOnUse" x="84" y="6" width="113" height="185"><path d="M153.559 6.77L84.797 172.736l42.482 17.593 68.762-165.966L153.559 6.77z" fill="#fff"/></mask><g mask="url(#mask8_2741_18550)"><path d="M178.016 26.8a7.24 7.24 0 10-13.378-5.542 7.24 7.24 0 0013.378 5.542z" fill="#fff"/></g><mask id="mask9_2741_18550" style="mask-type:luminance" maskUnits="userSpaceOnUse" x="164" y="16" width="15" height="16"><path d="M178.015 26.798a7.24 7.24 0 00-3.918-9.46 7.24 7.24 0 103.918 9.46z" fill="#fff"/></mask><g mask="url(#mask9_2741_18550)"><mask id="mask10_2741_18550" style="mask-type:luminance" maskUnits="userSpaceOnUse" x="0" y="1" width="181" height="46"><path d="M180.447 1.016H.805v45.98h179.642V1.015z" fill="#fff"/></mask><g mask="url(#mask10_2741_18550)"><path fill-rule="evenodd" clip-rule="evenodd" d="M171.302 18.078c3.26 0 5.928 2.668 5.928 5.928s-2.668 5.927-5.928 5.927-5.927-2.667-5.927-5.927 2.667-5.928 5.927-5.928z" fill="#fff"/></g><mask id="mask11_2741_18550" style="mask-type:luminance" maskUnits="userSpaceOnUse" x="0" y="1" width="181" height="46"><path d="M180.447 1.016H.805v45.98h179.642V1.015z" fill="#fff"/></mask><g mask="url(#mask11_2741_18550)"><path d="M171.302 18.078c3.26 0 5.928 2.668 5.928 5.928s-2.668 5.927-5.928 5.927-5.927-2.667-5.927-5.927 2.667-5.928 5.927-5.928z" stroke="#000" stroke-miterlimit="10" stroke-linecap="round" stroke-linejoin="round"/></g><mask id="mask12_2741_18550" style="mask-type:luminance" maskUnits="userSpaceOnUse" x="0" y="1" width="181" height="46"><path d="M180.447 1.016H.805v45.98h179.642V1.015z" fill="#fff"/></mask><g mask="url(#mask12_2741_18550)"><path opacity=".358" fill-rule="evenodd" clip-rule="evenodd" d="M168 24.005l1.651-2.837h3.303l1.608 2.837-1.608 2.836h-3.303L168 24.005z" fill="#fff"/><path d="M168 24.005l1.651-2.837h3.303l1.608 2.837-1.608 2.836h-3.303L168 24.005z" stroke="#000" stroke-miterlimit="10" stroke-linejoin="round"/></g></g><mask id="mask13_2741_18550" style="mask-type:luminance" maskUnits="userSpaceOnUse" x="84" y="6" width="113" height="185"><path d="M153.559 6.768L84.797 172.734l42.482 17.593 68.762-165.966-42.482-17.593z" fill="#fff"/></mask><g mask="url(#mask13_2741_18550)"><path d="M178.016 26.798a7.24 7.24 0 10-13.379-5.542 7.24 7.24 0 0013.379 5.542z" stroke="#000" stroke-miterlimit="10" stroke-linecap="round" stroke-linejoin="round"/></g><path d="M180.447 1.014H.805v45.98h179.642V1.013z" stroke="#000" stroke-miterlimit="10" stroke-linejoin="round"/></g><defs><clipPath id="clip0_2741_18550"><path fill="#fff" d="M0 0h181v48H0z"/></clipPath></defs></svg>