<svg width="24" height="24" fill="none" xmlns="http://www.w3.org/2000/svg"><g clip-path="url(#clip0_2692_12933)" fill="#fff"><path d="M1.995 18.519c-.048.466-.086.857-.123 1.248-.054.59-.472.965-1.034.922-.52-.043-.89-.488-.842-1.05.14-1.618.284-3.236.45-4.85.092-.905.842-1.237 1.581-.717 1.297.916 2.588 1.843 3.88 2.77.503.364.616.922.289 1.372-.321.444-.895.503-1.399.144-.37-.262-.739-.525-1.152-.755.06.09.118.176.183.262 2.084 2.84 4.892 4.346 8.412 4.244 3.826-.112 6.666-1.966 8.557-5.278.027-.048.049-.096.075-.14.285-.519.826-.696 1.313-.433.472.257.617.809.343 1.323-.482.911-1.05 1.763-1.757 2.519-2.54 2.727-5.675 4.083-9.399 3.884-3.906-.203-6.96-2.02-9.21-5.213-.033-.075-.081-.134-.167-.252zM20.307 6.436a9.121 9.121 0 00-3.413-3.269c-2.668-1.473-5.46-1.715-8.321-.68-2.385.862-4.164 2.47-5.39 4.694a1.657 1.657 0 01-.52.578c-.349.22-.794.118-1.078-.177-.289-.3-.348-.723-.144-1.114.627-1.206 1.42-2.293 2.416-3.215C6.27 1.013 9.125-.112 12.41.01c3.826.145 6.875 1.833 9.174 4.882.123.166.235.332.353.503.006.006.016.006.07.032.043-.423.08-.83.123-1.237.048-.504.407-.863.879-.885.6-.032 1.04.434.991 1.067-.07.873-.155 1.741-.235 2.615l-.226 2.347a.865.865 0 01-.412.685c-.354.226-.713.226-1.056-.016a559.089 559.089 0 01-4.072-2.91.915.915 0 01-.193-1.307c.305-.412.868-.498 1.313-.187.402.262.793.552 1.19.836z"/></g><defs><clipPath id="clip0_2692_12933"><path fill="#fff" d="M0 0h24v23.989H0z"/></clipPath></defs></svg>