<svg width="20" height="20" fill="none" xmlns="http://www.w3.org/2000/svg"><g clip-path="url(#clip0_2873_12073)"><path d="M10.008 0C15.504.008 20.02 4.535 20 10.02c-.02 5.492-4.527 9.988-10.008 9.98C4.496 19.992-.019 15.465 0 9.98.02 4.488 4.527-.008 10.008 0zM4.465 10.16c1.441 1.442 2.894 2.899 4.355 4.36l7.242-6.586c-.53-.586-1.05-1.157-1.578-1.73a4865.16 4865.16 0 01-5.632 5.116c-.942-.941-1.868-1.863-2.778-2.773-.543.547-1.09 1.094-1.61 1.613z" fill="#1FA956"/></g><defs><clipPath id="clip0_2873_12073"><path fill="#fff" d="M0 0h20v20H0z"/></clipPath></defs></svg>