<svg width="8" height="79" fill="none" xmlns="http://www.w3.org/2000/svg"><path d="M7.478 1H1v76.972h6.478V1z" fill="#0086C7"/><mask id="mask0_2726_18125" style="mask-type:luminance" maskUnits="userSpaceOnUse" x="1" y="1" width="7" height="77"><path d="M7.478 1H1v76.972h6.478V1z" fill="#fff"/></mask><g mask="url(#mask0_2726_18125)"><path opacity=".358" d="M7.48 2.313h-5.8v1.905h5.8V2.313z" fill="#fff"/><path d="M7.48 2.313h-5.8v1.905h5.8V2.313z" stroke="#000" stroke-miterlimit="10" stroke-linejoin="round"/></g><mask id="mask1_2726_18125" style="mask-type:luminance" maskUnits="userSpaceOnUse" x="1" y="1" width="7" height="77"><path d="M7.478 1H1v76.972h6.478V1z" fill="#fff"/></mask><g mask="url(#mask1_2726_18125)"><path opacity=".358" d="M7.48 67.049h-5.8v1.905h5.8V67.05z" fill="#fff"/><path d="M7.48 67.049h-5.8v1.905h5.8V67.05z" stroke="#000" stroke-miterlimit="10" stroke-linejoin="round"/></g><mask id="mask2_2726_18125" style="mask-type:luminance" maskUnits="userSpaceOnUse" x="1" y="1" width="7" height="77"><path d="M7.478 1H1v76.972h6.478V1z" fill="#fff"/></mask><g mask="url(#mask2_2726_18125)"><path opacity=".358" d="M7.48 6.123h-5.8v1.905h5.8V6.123z" fill="#fff"/><path d="M7.48 6.123h-5.8v1.905h5.8V6.123z" stroke="#000" stroke-miterlimit="10" stroke-linejoin="round"/></g><mask id="mask3_2726_18125" style="mask-type:luminance" maskUnits="userSpaceOnUse" x="1" y="1" width="7" height="77"><path d="M7.478 1H1v76.972h6.478V1z" fill="#fff"/></mask><g mask="url(#mask3_2726_18125)"><path opacity=".358" d="M7.48 70.86h-5.8v1.905h5.8v-1.906z" fill="#fff"/><path d="M7.48 70.86h-5.8v1.905h5.8v-1.906z" stroke="#000" stroke-miterlimit="10" stroke-linejoin="round"/></g><mask id="mask4_2726_18125" style="mask-type:luminance" maskUnits="userSpaceOnUse" x="1" y="1" width="7" height="77"><path d="M7.478 1H1v76.972h6.478V1z" fill="#fff"/></mask><g mask="url(#mask4_2726_18125)"><path opacity=".358" d="M7.48 9.934h-5.8v1.905h5.8V9.934z" fill="#fff"/><path d="M7.48 9.934h-5.8v1.905h5.8V9.934z" stroke="#000" stroke-miterlimit="10" stroke-linejoin="round"/></g><mask id="mask5_2726_18125" style="mask-type:luminance" maskUnits="userSpaceOnUse" x="1" y="1" width="7" height="77"><path d="M7.478 1H1v76.972h6.478V1z" fill="#fff"/></mask><g mask="url(#mask5_2726_18125)"><path opacity=".358" d="M7.48 74.67h-5.8v1.905h5.8V74.67z" fill="#fff"/><path d="M7.48 74.67h-5.8v1.905h5.8V74.67z" stroke="#000" stroke-miterlimit="10" stroke-linejoin="round"/></g><mask id="mask6_2726_18125" style="mask-type:luminance" maskUnits="userSpaceOnUse" x="1" y="1" width="7" height="77"><path d="M7.478 1H1v76.972h6.478V1z" fill="#fff"/></mask><g mask="url(#mask6_2726_18125)"><path opacity=".358" d="M7.478 14.295H1v50.637h6.478V14.295z" fill="#fff"/><path d="M7.478 14.295H1v50.637h6.478V14.295z" stroke="#000" stroke-miterlimit="10" stroke-linejoin="round"/></g><mask id="mask7_2726_18125" style="mask-type:luminance" maskUnits="userSpaceOnUse" x="1" y="1" width="7" height="77"><path d="M7.478 1H1v76.972h6.478V1z" fill="#fff"/></mask><g mask="url(#mask7_2726_18125)"><path opacity=".358" fill-rule="evenodd" clip-rule="evenodd" d="M1.931 30.806H1v17.486l1.1-.043-.042 7.875h4.53v-7.79l.89-.042V30.848l-.974-.084.042-7.875H1.931v7.917z" fill="#fff"/><path d="M1.931 30.806H1v17.486l1.1-.043-.042 7.875h4.53v-7.79l.89-.042V30.848l-.974-.084.042-7.875H1.931v7.917z" stroke="#000" stroke-miterlimit="10" stroke-linejoin="round"/></g><mask id="mask8_2726_18125" style="mask-type:luminance" maskUnits="userSpaceOnUse" x="1" y="1" width="7" height="77"><path d="M7.478 1H1v76.972h6.478V1z" fill="#fff"/></mask><g mask="url(#mask8_2726_18125)"><path opacity=".358" fill-rule="evenodd" clip-rule="evenodd" d="M4.258 37.666c-1.016 0-1.82.805-1.82 1.778 0 .974.804 1.778 1.82 1.778s1.82-.804 1.82-1.778c-.042-.974-.846-1.778-1.82-1.778z" fill="#fff"/><path d="M4.258 37.666c-1.016 0-1.82.805-1.82 1.778 0 .974.804 1.778 1.82 1.778s1.82-.804 1.82-1.778c-.042-.974-.846-1.778-1.82-1.778z" stroke="#000" stroke-miterlimit="10" stroke-linejoin="round"/></g><mask id="mask9_2726_18125" style="mask-type:luminance" maskUnits="userSpaceOnUse" x="1" y="1" width="7" height="77"><path d="M7.478 1H1v76.972h6.478V1z" fill="#fff"/></mask><g mask="url(#mask9_2726_18125)"><path opacity=".351" d="M6.845 31.78H1.68v15.41h5.165V31.78z" fill="#EBEBEB"/><path d="M6.845 31.78H1.68v15.41h5.165V31.78z" stroke="#000" stroke-miterlimit="10" stroke-linecap="round" stroke-linejoin="round"/></g><mask id="mask10_2726_18125" style="mask-type:luminance" maskUnits="userSpaceOnUse" x="1" y="1" width="7" height="77"><path d="M7.478 1H1v76.972h6.478V1z" fill="#fff"/></mask><g mask="url(#mask10_2726_18125)"><path opacity=".351" fill-rule="evenodd" clip-rule="evenodd" d="M4.262 15.902c-1.44 0-2.582 1.144-2.582 2.54 0 1.398 1.143 2.541 2.582 2.541 1.44 0 2.583-1.143 2.583-2.54 0-1.398-1.185-2.54-2.583-2.54z" fill="#EBEBEB"/><path d="M4.262 15.902c-1.44 0-2.582 1.144-2.582 2.54 0 1.398 1.143 2.541 2.582 2.541 1.44 0 2.583-1.143 2.583-2.54 0-1.398-1.185-2.54-2.583-2.54z" stroke="#000" stroke-miterlimit="10" stroke-linecap="round" stroke-linejoin="round"/></g><mask id="mask11_2726_18125" style="mask-type:luminance" maskUnits="userSpaceOnUse" x="1" y="1" width="7" height="77"><path d="M7.478 1H1v76.972h6.478V1z" fill="#fff"/></mask><g mask="url(#mask11_2726_18125)"><path opacity=".351" fill-rule="evenodd" clip-rule="evenodd" d="M4.262 58.115c-1.44 0-2.582 1.143-2.582 2.54 0 1.398 1.143 2.54 2.582 2.54 1.44 0 2.583-1.142 2.583-2.54 0-1.397-1.185-2.54-2.583-2.54z" fill="#EBEBEB"/><path d="M4.262 58.115c-1.44 0-2.582 1.143-2.582 2.54 0 1.398 1.143 2.54 2.582 2.54 1.44 0 2.583-1.142 2.583-2.54 0-1.397-1.185-2.54-2.583-2.54z" stroke="#000" stroke-miterlimit="10" stroke-linecap="round" stroke-linejoin="round"/></g><path d="M7.478 1H1v76.972h6.478V1z" stroke="#000" stroke-miterlimit="10" stroke-linejoin="round"/></svg>