<svg width="9" height="78" fill="none" xmlns="http://www.w3.org/2000/svg"><path d="M7.704.493H1.227v76.972h6.477V.493z" stroke="#000" stroke-miterlimit="10" stroke-linejoin="round"/><path d="M7.704.493H1.227v76.972h6.477V.493z" fill="#fff"/><mask id="mask0_2726_17124" style="mask-type:luminance" maskUnits="userSpaceOnUse" x="1" y="0" width="7" height="78"><path d="M7.704.493H1.227v76.972h6.477V.493z" fill="#fff"/></mask><g mask="url(#mask0_2726_17124)"><path opacity=".358" d="M7.027 1.764h-5.8v1.905h5.8V1.764z" fill="#fff"/><path d="M7.027 1.764h-5.8v1.905h5.8V1.764z" stroke="#000" stroke-miterlimit="10" stroke-linejoin="round"/></g><mask id="mask1_2726_17124" style="mask-type:luminance" maskUnits="userSpaceOnUse" x="1" y="0" width="7" height="78"><path d="M7.704.493H1.227v76.972h6.477V.493z" fill="#fff"/></mask><g mask="url(#mask1_2726_17124)"><path opacity=".358" d="M7.027 66.541h-5.8v1.905h5.8v-1.905z" fill="#fff"/><path d="M7.027 66.541h-5.8v1.905h5.8v-1.905z" stroke="#000" stroke-miterlimit="10" stroke-linejoin="round"/></g><mask id="mask2_2726_17124" style="mask-type:luminance" maskUnits="userSpaceOnUse" x="1" y="0" width="7" height="78"><path d="M7.704.493H1.227v76.972h6.477V.493z" fill="#fff"/></mask><g mask="url(#mask2_2726_17124)"><path opacity=".358" d="M7.027 5.574h-5.8V7.48h5.8V5.574z" fill="#fff"/><path d="M7.027 5.574h-5.8V7.48h5.8V5.574z" stroke="#000" stroke-miterlimit="10" stroke-linejoin="round"/></g><mask id="mask3_2726_17124" style="mask-type:luminance" maskUnits="userSpaceOnUse" x="1" y="0" width="7" height="78"><path d="M7.704.493H1.227v76.972h6.477V.493z" fill="#fff"/></mask><g mask="url(#mask3_2726_17124)"><path opacity=".358" d="M7.027 70.352h-5.8v1.905h5.8v-1.905z" fill="#fff"/><path d="M7.027 70.352h-5.8v1.905h5.8v-1.905z" stroke="#000" stroke-miterlimit="10" stroke-linejoin="round"/></g><mask id="mask4_2726_17124" style="mask-type:luminance" maskUnits="userSpaceOnUse" x="1" y="0" width="7" height="78"><path d="M7.704.493H1.227v76.972h6.477V.493z" fill="#fff"/></mask><g mask="url(#mask4_2726_17124)"><path opacity=".358" d="M7.027 9.384h-5.8v1.905h5.8V9.384z" fill="#fff"/><path d="M7.027 9.384h-5.8v1.905h5.8V9.384z" stroke="#000" stroke-miterlimit="10" stroke-linejoin="round"/></g><mask id="mask5_2726_17124" style="mask-type:luminance" maskUnits="userSpaceOnUse" x="1" y="0" width="7" height="78"><path d="M7.704.493H1.227v76.972h6.477V.493z" fill="#fff"/></mask><g mask="url(#mask5_2726_17124)"><path opacity=".358" d="M7.027 74.162h-5.8v1.905h5.8v-1.905z" fill="#fff"/><path d="M7.027 74.162h-5.8v1.905h5.8v-1.905z" stroke="#000" stroke-miterlimit="10" stroke-linejoin="round"/></g><mask id="mask6_2726_17124" style="mask-type:luminance" maskUnits="userSpaceOnUse" x="1" y="0" width="7" height="78"><path d="M7.704.493H1.227v76.972h6.477V.493z" fill="#fff"/></mask><g mask="url(#mask6_2726_17124)"><path opacity=".358" d="M7.704 13.745H1.227v50.637h6.477V13.745z" fill="#fff"/><path d="M7.704 13.745H1.227v50.637h6.477V13.745z" stroke="#000" stroke-miterlimit="10" stroke-linejoin="round"/></g><mask id="mask7_2726_17124" style="mask-type:luminance" maskUnits="userSpaceOnUse" x="1" y="0" width="7" height="78"><path d="M7.704.493H1.227v76.972h6.477V.493z" fill="#fff"/></mask><g mask="url(#mask7_2726_17124)"><path opacity=".358" fill-rule="evenodd" clip-rule="evenodd" d="M6.773 30.257l.974.042v17.444H6.646v7.832H2.158v-7.748l-.931-.042V30.342l.973-.085v-7.875h4.615l-.042 7.875z" fill="#fff"/><path d="M6.773 30.257l.974.042v17.444H6.646v7.832H2.158v-7.748l-.931-.042V30.342l.973-.085v-7.875h4.615l-.042 7.875z" stroke="#000" stroke-miterlimit="10" stroke-linejoin="round"/></g><mask id="mask8_2726_17124" style="mask-type:luminance" maskUnits="userSpaceOnUse" x="1" y="0" width="7" height="78"><path d="M7.704.493H1.227v76.972h6.477V.493z" fill="#fff"/></mask><g mask="url(#mask8_2726_17124)"><path opacity=".358" fill-rule="evenodd" clip-rule="evenodd" d="M4.485 37.158c1.016 0 1.82.805 1.82 1.778 0 .974-.804 1.779-1.82 1.779-1.017 0-1.82-.805-1.82-1.779 0-.973.803-1.778 1.82-1.778z" fill="#fff"/><path d="M4.485 37.158c1.016 0 1.82.805 1.82 1.778 0 .974-.804 1.779-1.82 1.779-1.017 0-1.82-.805-1.82-1.779 0-.973.803-1.778 1.82-1.778z" stroke="#000" stroke-miterlimit="10" stroke-linejoin="round"/></g><mask id="mask9_2726_17124" style="mask-type:luminance" maskUnits="userSpaceOnUse" x="1" y="0" width="7" height="78"><path d="M7.704.493H1.227v76.972h6.477V.493z" fill="#fff"/></mask><g mask="url(#mask9_2726_17124)"><path opacity=".351" d="M7.072 31.23H1.906v15.412h5.166V31.23z" fill="#EBEBEB"/><path d="M7.072 31.23H1.906v15.412h5.166V31.23z" stroke="#000" stroke-miterlimit="10" stroke-linecap="round" stroke-linejoin="round"/></g><mask id="mask10_2726_17124" style="mask-type:luminance" maskUnits="userSpaceOnUse" x="1" y="0" width="7" height="78"><path d="M7.704.493H1.227v76.972h6.477V.493z" fill="#fff"/></mask><g mask="url(#mask10_2726_17124)"><path opacity=".351" fill-rule="evenodd" clip-rule="evenodd" d="M4.489 15.396c1.44 0 2.583 1.144 2.583 2.54 0 1.398-1.144 2.541-2.583 2.541-1.44 0-2.583-1.143-2.583-2.54s1.143-2.54 2.583-2.54z" fill="#EBEBEB"/><path d="M4.489 15.396c1.44 0 2.583 1.144 2.583 2.54 0 1.398-1.144 2.541-2.583 2.541-1.44 0-2.583-1.143-2.583-2.54s1.143-2.54 2.583-2.54z" stroke="#000" stroke-miterlimit="10" stroke-linecap="round" stroke-linejoin="round"/></g><mask id="mask11_2726_17124" style="mask-type:luminance" maskUnits="userSpaceOnUse" x="1" y="0" width="7" height="78"><path d="M7.704.493H1.227v76.972h6.477V.493z" fill="#fff"/></mask><g mask="url(#mask11_2726_17124)"><path opacity=".351" fill-rule="evenodd" clip-rule="evenodd" d="M4.489 57.607c1.44 0 2.583 1.144 2.583 2.54 0 1.398-1.144 2.541-2.583 2.541-1.44 0-2.583-1.143-2.583-2.54s1.143-2.54 2.583-2.54z" fill="#EBEBEB"/><path d="M4.489 57.607c1.44 0 2.583 1.144 2.583 2.54 0 1.398-1.144 2.541-2.583 2.541-1.44 0-2.583-1.143-2.583-2.54s1.143-2.54 2.583-2.54z" stroke="#000" stroke-miterlimit="10" stroke-linecap="round" stroke-linejoin="round"/></g></svg>