<svg width="12" height="79" fill="none" xmlns="http://www.w3.org/2000/svg"><path d="M11.096.578H.766V77.55h10.33V.578z" fill="#fff"/><mask id="mask0_2739_18339" style="mask-type:luminance" maskUnits="userSpaceOnUse" x="0" y="0" width="12" height="78"><path d="M11.096.578H.766V77.55h10.33V.578z" fill="#fff"/></mask><g mask="url(#mask0_2739_18339)"><path opacity=".358" d="M9.191 1.848H.766v1.905H9.19V1.848z" fill="#fff"/><path d="M9.191 1.848H.766v1.905H9.19V1.848z" stroke="#000" stroke-miterlimit="10" stroke-linejoin="round"/></g><mask id="mask1_2739_18339" style="mask-type:luminance" maskUnits="userSpaceOnUse" x="0" y="0" width="12" height="78"><path d="M11.096.578H.766V77.55h10.33V.578z" fill="#fff"/></mask><g mask="url(#mask1_2739_18339)"><path opacity=".358" d="M11.097 70.438H2.672v1.905h8.425v-1.906z" fill="#fff"/><path d="M11.097 70.438H2.672v1.905h8.425v-1.906z" stroke="#000" stroke-miterlimit="10" stroke-linejoin="round"/></g><mask id="mask2_2739_18339" style="mask-type:luminance" maskUnits="userSpaceOnUse" x="0" y="0" width="12" height="78"><path d="M11.096.578H.766V77.55h10.33V.578z" fill="#fff"/></mask><g mask="url(#mask2_2739_18339)"><path opacity=".358" d="M11.097 5.658H2.672v1.905h8.425V5.658z" fill="#fff"/><path d="M11.097 5.658H2.672v1.905h8.425V5.658z" stroke="#000" stroke-miterlimit="10" stroke-linejoin="round"/></g><mask id="mask3_2739_18339" style="mask-type:luminance" maskUnits="userSpaceOnUse" x="0" y="0" width="12" height="78"><path d="M11.096.578H.766V77.55h10.33V.578z" fill="#fff"/></mask><g mask="url(#mask3_2739_18339)"><path opacity=".358" d="M9.191 74.248H.766v1.905H9.19v-1.905z" fill="#fff"/><path d="M9.191 74.248H.766v1.905H9.19v-1.905z" stroke="#000" stroke-miterlimit="10" stroke-linejoin="round"/></g><mask id="mask4_2739_18339" style="mask-type:luminance" maskUnits="userSpaceOnUse" x="0" y="0" width="12" height="78"><path d="M11.096.578H.766V77.55h10.33V.578z" fill="#fff"/></mask><g mask="url(#mask4_2739_18339)"><path opacity=".358" d="M11.096 9.469H.766V68.53h10.33V9.469z" fill="#fff"/><path d="M11.096 9.469H.766V68.53h10.33V9.469z" stroke="#000" stroke-miterlimit="10" stroke-linejoin="round"/></g><mask id="mask5_2739_18339" style="mask-type:luminance" maskUnits="userSpaceOnUse" x="0" y="0" width="12" height="78"><path d="M11.096.578H.766V77.55h10.33V.578z" fill="#fff"/></mask><g mask="url(#mask5_2739_18339)"><path opacity=".358" fill-rule="evenodd" clip-rule="evenodd" d="M9.36 30.214h.93V47.7h-1.1l.042 7.833H2.416v-7.79h-.932V30.255l1.017-.084-.043-7.875H9.36v7.917z" fill="#fff"/><path d="M9.36 30.214h.93V47.7h-1.1l.042 7.833H2.416v-7.79h-.932V30.255l1.017-.084-.043-7.875H9.36v7.917z" stroke="#000" stroke-miterlimit="10" stroke-linejoin="round"/></g><mask id="mask6_2739_18339" style="mask-type:luminance" maskUnits="userSpaceOnUse" x="0" y="0" width="12" height="78"><path d="M11.096.578H.766V77.55h10.33V.578z" fill="#fff"/></mask><g mask="url(#mask6_2739_18339)"><path opacity=".358" fill-rule="evenodd" clip-rule="evenodd" d="M6.054 14.168a3.415 3.415 0 013.43 3.43c0 1.862-1.567 3.429-3.43 3.429-1.862 0-3.429-1.524-3.429-3.43a3.415 3.415 0 013.43-3.429z" fill="#fff"/><path d="M6.054 14.168a3.415 3.415 0 013.43 3.43c0 1.862-1.567 3.429-3.43 3.429-1.862 0-3.429-1.524-3.429-3.43a3.415 3.415 0 013.43-3.429z" stroke="#000" stroke-miterlimit="10" stroke-linejoin="round"/></g><mask id="mask7_2739_18339" style="mask-type:luminance" maskUnits="userSpaceOnUse" x="0" y="0" width="12" height="78"><path d="M11.096.578H.766V77.55h10.33V.578z" fill="#fff"/></mask><g mask="url(#mask7_2739_18339)"><path opacity=".358" fill-rule="evenodd" clip-rule="evenodd" d="M5.93 36.313a2.548 2.548 0 012.541 2.54 2.548 2.548 0 01-2.54 2.54 2.548 2.548 0 01-2.54-2.54 2.52 2.52 0 012.54-2.54z" fill="#fff"/><path d="M5.93 36.313a2.548 2.548 0 012.541 2.54 2.548 2.548 0 01-2.54 2.54 2.548 2.548 0 01-2.54-2.54 2.52 2.52 0 012.54-2.54z" stroke="#000" stroke-miterlimit="10" stroke-linejoin="round"/></g><mask id="mask8_2739_18339" style="mask-type:luminance" maskUnits="userSpaceOnUse" x="0" y="0" width="12" height="78"><path d="M11.096.578H.766V77.55h10.33V.578z" fill="#fff"/></mask><g mask="url(#mask8_2739_18339)"><path opacity=".358" fill-rule="evenodd" clip-rule="evenodd" d="M5.93 62.773a2.548 2.548 0 012.541 2.54 2.548 2.548 0 01-2.54 2.541 2.548 2.548 0 01-2.54-2.54 2.548 2.548 0 012.54-2.54z" fill="#fff"/><path d="M5.93 62.773a2.548 2.548 0 012.541 2.54 2.548 2.548 0 01-2.54 2.541 2.548 2.548 0 01-2.54-2.54 2.548 2.548 0 012.54-2.54z" stroke="#000" stroke-miterlimit="10" stroke-linejoin="round"/></g><mask id="mask9_2739_18339" style="mask-type:luminance" maskUnits="userSpaceOnUse" x="0" y="0" width="12" height="78"><path d="M11.096.578H.766V77.55h10.33V.578z" fill="#fff"/></mask><g mask="url(#mask9_2739_18339)"><path opacity=".358" d="M8.517 57.016H3.352v5.123h5.165v-5.123z" fill="#fff"/></g><mask id="mask10_2739_18339" style="mask-type:luminance" maskUnits="userSpaceOnUse" x="0" y="0" width="12" height="78"><path d="M11.096.578H.766V77.55h10.33V.578z" fill="#fff"/></mask><g mask="url(#mask10_2739_18339)"><path opacity=".358" d="M7.75 57.48H4.11v4.192h3.64v-4.191z" fill="#fff"/><path d="M7.75 57.48H4.11v4.192h3.64v-4.191z" stroke="#000" stroke-miterlimit="10" stroke-linejoin="round"/></g><mask id="mask11_2739_18339" style="mask-type:luminance" maskUnits="userSpaceOnUse" x="0" y="0" width="12" height="78"><path d="M11.096.578H.766V77.55h10.33V.578z" fill="#fff"/></mask><g mask="url(#mask11_2739_18339)"><path d="M8.517 57.016H3.352v5.123h5.165v-5.123z" stroke="#000" stroke-miterlimit="10" stroke-linejoin="round"/></g><path d="M11.096.578H.766V77.55h10.33V.578z" stroke="#000" stroke-miterlimit="10" stroke-linejoin="round"/></svg>