<svg width="9" height="79" fill="none" xmlns="http://www.w3.org/2000/svg"><path fill="url(#paint0_linear_2726_18126)" d="M1.602.33h6.606v77.39H1.602z"/><mask id="mask0_2726_18126" style="mask-type:luminance" maskUnits="userSpaceOnUse" x="1" y="0" width="7" height="78"><path d="M7.68.56H1.204v76.972h6.478V.561z" fill="#fff"/></mask><g mask="url(#mask0_2726_18126)"><path opacity=".358" d="M7.683 1.83h-5.8v1.905h5.8V1.83z" fill="#fff"/><path d="M7.683 1.83h-5.8v1.905h5.8V1.83z" stroke="#000" stroke-miterlimit="10" stroke-linejoin="round"/></g><mask id="mask1_2726_18126" style="mask-type:luminance" maskUnits="userSpaceOnUse" x="1" y="0" width="7" height="78"><path d="M7.68.56H1.204v76.972h6.478V.561z" fill="#fff"/></mask><g mask="url(#mask1_2726_18126)"><path opacity=".358" d="M7.683 66.61h-5.8v1.905h5.8v-1.906z" fill="#fff"/><path d="M7.683 66.61h-5.8v1.905h5.8v-1.906z" stroke="#000" stroke-miterlimit="10" stroke-linejoin="round"/></g><mask id="mask2_2726_18126" style="mask-type:luminance" maskUnits="userSpaceOnUse" x="1" y="0" width="7" height="78"><path d="M7.68.56H1.204v76.972h6.478V.561z" fill="#fff"/></mask><g mask="url(#mask2_2726_18126)"><path opacity=".358" d="M7.683 5.64h-5.8v1.906h5.8V5.64z" fill="#fff"/><path d="M7.683 5.64h-5.8v1.906h5.8V5.64z" stroke="#000" stroke-miterlimit="10" stroke-linejoin="round"/></g><mask id="mask3_2726_18126" style="mask-type:luminance" maskUnits="userSpaceOnUse" x="1" y="0" width="7" height="78"><path d="M7.68.56H1.204v76.972h6.478V.561z" fill="#fff"/></mask><g mask="url(#mask3_2726_18126)"><path opacity=".358" d="M7.683 70.42h-5.8v1.905h5.8V70.42z" fill="#fff"/><path d="M7.683 70.42h-5.8v1.905h5.8V70.42z" stroke="#000" stroke-miterlimit="10" stroke-linejoin="round"/></g><mask id="mask4_2726_18126" style="mask-type:luminance" maskUnits="userSpaceOnUse" x="1" y="0" width="7" height="78"><path d="M7.68.56H1.204v76.972h6.478V.561z" fill="#fff"/></mask><g mask="url(#mask4_2726_18126)"><path opacity=".358" d="M7.683 9.451h-5.8v1.905h5.8V9.451z" fill="#fff"/><path d="M7.683 9.451h-5.8v1.905h5.8V9.451z" stroke="#000" stroke-miterlimit="10" stroke-linejoin="round"/></g><mask id="mask5_2726_18126" style="mask-type:luminance" maskUnits="userSpaceOnUse" x="1" y="0" width="7" height="78"><path d="M7.68.56H1.204v76.972h6.478V.561z" fill="#fff"/></mask><g mask="url(#mask5_2726_18126)"><path opacity=".358" d="M7.683 74.23h-5.8v1.906h5.8V74.23z" fill="#fff"/><path d="M7.683 74.23h-5.8v1.906h5.8V74.23z" stroke="#000" stroke-miterlimit="10" stroke-linejoin="round"/></g><mask id="mask6_2726_18126" style="mask-type:luminance" maskUnits="userSpaceOnUse" x="1" y="0" width="7" height="78"><path d="M7.68.56H1.204v76.972h6.478V.561z" fill="#fff"/></mask><g mask="url(#mask6_2726_18126)"><path opacity=".358" d="M7.68 13.813H1.204v50.636h6.478V13.813z" fill="#fff"/><path d="M7.68 13.813H1.204v50.636h6.478V13.813z" stroke="#000" stroke-miterlimit="10" stroke-linejoin="round"/></g><mask id="mask7_2726_18126" style="mask-type:luminance" maskUnits="userSpaceOnUse" x="1" y="0" width="7" height="78"><path d="M7.68.56H1.204v76.972h6.478V.561z" fill="#fff"/></mask><g mask="url(#mask7_2726_18126)"><path opacity=".358" fill-rule="evenodd" clip-rule="evenodd" d="M2.135 30.324h-.932V47.81h1.1l-.041 7.833h4.487l.043-7.748.889-.043V30.41l-.974-.085V22.45H2.092l.043 7.875z" fill="#fff"/><path d="M2.135 30.324h-.932V47.81h1.1l-.041 7.833h4.487l.043-7.748.889-.043V30.41l-.974-.085V22.45H2.092l.043 7.875z" stroke="#000" stroke-miterlimit="10" stroke-linejoin="round"/></g><mask id="mask8_2726_18126" style="mask-type:luminance" maskUnits="userSpaceOnUse" x="1" y="0" width="7" height="78"><path d="M7.68.56H1.204v76.972h6.478V.561z" fill="#fff"/></mask><g mask="url(#mask8_2726_18126)"><path opacity=".358" d="M4.422 40.783c1.006 0 1.82-.796 1.82-1.778s-.814-1.778-1.82-1.778c-1.005 0-1.82.796-1.82 1.778s.815 1.778 1.82 1.778z" fill="#fff"/><path d="M4.422 40.783c1.006 0 1.82-.796 1.82-1.778s-.814-1.778-1.82-1.778c-1.005 0-1.82.796-1.82 1.778s.815 1.778 1.82 1.778z" stroke="#000" stroke-miterlimit="10" stroke-linejoin="round"/></g><mask id="mask9_2726_18126" style="mask-type:luminance" maskUnits="userSpaceOnUse" x="1" y="0" width="7" height="78"><path d="M7.68.56H1.204v76.972h6.478V.561z" fill="#fff"/></mask><g mask="url(#mask9_2726_18126)"><path opacity=".351" d="M7.001 31.299H1.836V46.71H7V31.3z" fill="#EBEBEB"/><path d="M7.001 31.299H1.836V46.71H7V31.3z" stroke="#000" stroke-miterlimit="10" stroke-linecap="round" stroke-linejoin="round"/></g><mask id="mask10_2726_18126" style="mask-type:luminance" maskUnits="userSpaceOnUse" x="1" y="0" width="7" height="78"><path d="M7.68.56H1.204v76.972h6.478V.561z" fill="#fff"/></mask><g mask="url(#mask10_2726_18126)"><path opacity=".351" fill-rule="evenodd" clip-rule="evenodd" d="M4.419 15.422c-1.44 0-2.583 1.143-2.583 2.54s1.143 2.54 2.583 2.54c1.44 0 2.582-1.143 2.582-2.54s-1.143-2.54-2.582-2.54z" fill="#EBEBEB"/><path d="M4.419 15.422c-1.44 0-2.583 1.143-2.583 2.54s1.143 2.54 2.583 2.54c1.44 0 2.582-1.143 2.582-2.54s-1.143-2.54-2.582-2.54z" stroke="#000" stroke-miterlimit="10" stroke-linecap="round" stroke-linejoin="round"/></g><mask id="mask11_2726_18126" style="mask-type:luminance" maskUnits="userSpaceOnUse" x="1" y="0" width="7" height="78"><path d="M7.68.56H1.204v76.972h6.478V.561z" fill="#fff"/></mask><g mask="url(#mask11_2726_18126)"><path opacity=".351" fill-rule="evenodd" clip-rule="evenodd" d="M4.419 57.676c-1.44 0-2.583 1.143-2.583 2.54s1.143 2.54 2.583 2.54c1.44 0 2.582-1.143 2.582-2.54s-1.143-2.54-2.582-2.54z" fill="#EBEBEB"/><path d="M4.419 57.676c-1.44 0-2.583 1.143-2.583 2.54s1.143 2.54 2.583 2.54c1.44 0 2.582-1.143 2.582-2.54s-1.143-2.54-2.582-2.54z" stroke="#000" stroke-miterlimit="10" stroke-linecap="round" stroke-linejoin="round"/></g><path d="M7.68.56H1.204v76.972h6.478V.561z" stroke="#000" stroke-miterlimit="10" stroke-linejoin="round"/><defs><linearGradient id="paint0_linear_2726_18126" x1="2.073" y1="44.216" x2="7.264" y2="44.216" gradientUnits="userSpaceOnUse"><stop stop-color="#59B600"/><stop offset="1" stop-color="#FFFC00"/></linearGradient></defs></svg>